# https://github.com/mikedh/trimesh
v -0.03469700 -0.00786000 0.00176800
v -0.03125300 -0.01076900 0.00317100
v -0.03424200 -0.01064300 0.00306400
v -0.04255400 -0.00806000 0.00282800
v -0.04656300 -0.01031300 0.00527100
v -0.04823600 -0.00601600 0.00386100
v -0.04110500 -0.00182100 0.00066900
v -0.04285900 -0.00302400 0.00121200
v -0.04376000 0.00046700 0.00083400
v -0.03891600 0.00041600 0.00012800
v -0.04563200 -0.00501600 0.00251400
v -0.04111700 0.00432900 0.00023300
v -0.02720500 -0.01090100 0.00359800
v -0.02996900 -0.01391700 0.00523000
v -0.03547300 -0.00328200 0.00042700
v -0.04972800 -0.00183900 0.00325500
v -0.04621300 0.00017500 0.00152300
v -0.03245900 -0.00637500 0.00119200
v -0.04871500 0.00077900 0.00236600
v -0.04797000 0.00524600 0.00183600
v -0.05072900 0.00612800 0.00298200
v -0.02744600 -0.00812600 0.00217800
v -0.04462000 0.00604100 0.00089000
v -0.03161800 -0.00456900 0.00071700
v -0.05452800 -0.00975500 0.00992100
v -0.05378300 -0.00725100 0.00768800
v -0.05704000 -0.00846800 0.01173700
v -0.02744500 -0.00597000 0.00133400
v -0.03449600 0.00036500 -0.00007200
v -0.04828300 0.00892000 0.00219100
v -0.02871200 -0.00206400 0.00033500
v -0.05270300 -0.00567000 0.00613000
v -0.05309100 -0.00059800 0.00475200
v -0.05133200 -0.00401500 0.00462000
v -0.03608600 0.00389500 -0.00015900
v -0.05532300 0.00193200 0.00583300
v -0.05278000 0.00218300 0.00415300
v -0.02587500 -0.00376100 0.00098300
v -0.02396700 -0.00575700 0.00192300
v -0.05276600 0.00536700 0.00404500
v -0.05632100 -0.00046300 0.00710500
v -0.05612400 -0.00202800 0.00737400
v -0.05845700 -0.00245100 0.00984200
v -0.05702100 0.00378700 0.00702300
v -0.02969700 0.00136900 -0.00004400
v -0.02447000 0.00030900 0.00059300
v -0.02384000 -0.00251400 0.00113000
v -0.04128800 -0.01509000 0.00684200
v -0.04382700 -0.01189900 0.00528600
v -0.04056400 -0.01269100 0.00489300
v -0.02618400 0.00250300 0.00016900
v -0.03796300 -0.01588800 0.00682000
v -0.02449700 0.00546200 0.00041400
v -0.03666700 -0.01196000 0.00392300
v -0.03967000 -0.02009100 0.01142100
v -0.04399600 -0.01931600 0.01212500
v -0.04249500 -0.01679200 0.00877800
v -0.03865400 -0.00833900 0.00231000
v -0.03814600 -0.01799500 0.00874000
v -0.03044700 0.00663000 -0.00011300
v -0.05330000 0.00770300 0.00454400
v -0.04101100 -0.02501100 0.01896600
v -0.03745600 -0.02601700 0.01922400
v -0.03925600 -0.02729900 0.02229000
v -0.05642800 0.00770200 0.00674400
v -0.05463500 0.00439900 0.00520500
v -0.03092300 -0.01686100 0.00744700
v -0.02870200 -0.01864400 0.00933900
v -0.03287100 -0.01905900 0.00932900
v -0.03525700 -0.01594800 0.00661000
v -0.03594300 -0.01880200 0.00915200
v -0.05834200 0.00689500 0.00842000
v -0.05469700 0.01003100 0.00586800
v -0.03331600 -0.01342600 0.00474200
v -0.04406900 -0.02576700 0.02242900
v -0.04525400 -0.02252900 0.01745700
v -0.02781900 -0.01446600 0.00590900
v -0.04141600 -0.00561800 0.00165100
v -0.04771500 -0.01952300 0.01471100
v -0.04362100 -0.02131900 0.01455100
v -0.03827900 -0.00536200 0.00110700
v -0.04847400 -0.01695400 0.01197300
v -0.04808300 -0.01462500 0.00924900
v -0.04872000 -0.02170800 0.01911700
v -0.03953500 -0.02341200 0.01580400
v -0.06034500 0.01243800 0.01254800
v -0.02172200 0.00632200 0.00110600
v -0.06100200 -0.00366500 0.01397300
v -0.05931500 -0.00548700 0.01251200
v -0.05951400 -0.00786900 0.01471600
v -0.06044400 -0.00123500 0.01190700
v -0.06168500 -0.00553700 0.01672600
v -0.05022300 -0.01018800 0.00692900
v -0.04632900 -0.01302500 0.00706100
v -0.06268300 -0.00142400 0.01579900
v -0.04976600 -0.00826600 0.00559900
v -0.05705900 0.01206200 0.00840600
v -0.06410800 -0.00650200 0.03010500
v -0.06358200 -0.00747700 0.02786600
v -0.06176800 -0.01102700 0.03057200
v -0.06530600 -0.00273600 0.02697400
v -0.06464900 -0.00391200 0.02478200
v -0.05852200 -0.01515400 0.02395900
v -0.06004600 -0.01342500 0.02625400
v -0.06016000 -0.01234600 0.02267900
v -0.05716400 -0.01771000 0.02772000
v -0.05875200 -0.01596300 0.03035600
v -0.06248300 -0.00887900 0.02425900
v -0.05438100 -0.01139600 0.01117900
v -0.05469500 -0.01310600 0.01339600
v -0.05272800 -0.01549000 0.01399200
v -0.05800200 -0.01145800 0.01607700
v -0.04742500 -0.02571200 0.02664600
v -0.04917200 -0.02272200 0.02173000
v -0.04459500 -0.02683000 0.02543400
v -0.05269100 -0.01997900 0.02126100
v -0.05130500 -0.02266000 0.02546700
v -0.05057300 -0.01481800 0.01112100
v -0.05811700 0.00244000 0.00809700
v -0.06000300 0.00083400 0.01061800
v -0.04996100 -0.01896000 0.01590100
v -0.05073800 -0.02397900 0.02856200
v -0.05261200 -0.02265200 0.02933600
v -0.04853800 -0.02573100 0.02978000
v -0.05499800 -0.01923300 0.02461800
v -0.05532300 -0.01548000 0.01736300
v -0.04070600 -0.02810300 0.02470800
v -0.04292000 -0.02958400 0.03209900
v -0.04596200 -0.02807900 0.03338200
v -0.03573400 -0.02233200 0.01321400
v -0.05117500 -0.02422100 0.03205400
v -0.05305300 -0.02261500 0.03418500
v -0.05428400 -0.02128500 0.03122100
v -0.05731700 -0.01782900 0.03009300
v -0.05513800 -0.02042500 0.03275700
v -0.03253800 -0.02154300 0.01199800
v -0.05600600 -0.01892200 0.03695800
v -0.05384000 -0.02154200 0.03609500
v -0.05214800 -0.02338900 0.03644900
v -0.05734700 -0.01770900 0.03345200
v -0.06333300 -0.00552200 0.02132300
v -0.06368700 -0.00301300 0.01931700
v -0.03742100 -0.02860500 0.02396900
v -0.06020800 -0.01014700 0.01881900
v -0.06219800 0.00196300 0.01371700
v -0.06419000 0.00210600 0.01793300
v -0.06248900 0.00498100 0.01402600
v -0.06139900 -0.00939900 0.02083000
v -0.06217200 0.00926700 0.01406500
v -0.06100200 0.00728900 0.01183800
v -0.06411100 0.00852900 0.01802500
v -0.06547700 0.00507900 0.02170700
v -0.06368000 -0.00091500 0.01787300
v -0.06516700 0.00113600 0.02130100
v -0.06492200 0.01009000 0.02092400
v -0.06622000 0.00586600 0.02539700
v -0.05946000 0.01020000 0.01048800
v -0.06009800 0.00441300 0.01031400
v -0.06249100 0.01257300 0.01617800
v -0.06392300 0.01151300 0.01868200
v -0.06256800 0.01521100 0.01826400
v -0.05198200 -0.01869700 0.01777700
v -0.06486500 0.01290300 0.02336800
v -0.06373800 0.01513400 0.02156100
v -0.06522000 -0.00049700 0.02274000
v -0.03581000 -0.02415400 0.01582100
v -0.03398200 -0.02611100 0.01859100
v -0.04996200 -0.01188600 0.00799400
v -0.04077200 -0.03029100 0.03106400
v -0.04724800 -0.02741300 0.03574700
v -0.06622700 0.00211900 0.02624500
v -0.04457300 -0.02919000 0.03536500
v -0.04313300 -0.02998200 0.03739300
v -0.05637200 -0.00542100 0.00907500
v -0.04733900 -0.02732700 0.03914000
v -0.04590800 -0.02843800 0.03879500
v -0.04596700 -0.02789900 0.04102900
v -0.05216100 -0.01116100 0.00898200
v -0.04869200 -0.02517100 0.04190100
v -0.05513100 -0.01756100 0.02071400
v -0.05651400 -0.01742200 0.02371400
v -0.05821400 -0.01369400 0.01971900
v -0.05956700 -0.01424100 0.03580700
v -0.02039600 0.00231600 0.00145900
v -0.01932300 -0.01820200 0.01251200
v -0.01716100 -0.01934500 0.01552900
v -0.02083000 -0.02237200 0.01675300
v -0.01897200 -0.02238300 0.01828700
v -0.02495300 -0.01284700 0.00533200
v -0.01319300 0.00312500 0.00489900
v -0.01169700 0.00032500 0.00639200
v -0.01392600 0.00001600 0.00477900
v -0.01596000 0.00587200 0.00332300
v -0.01336400 0.00563600 0.00482800
v -0.01092600 0.00426000 0.00663300
v -0.02285000 -0.01020300 0.00429200
v -0.02229000 -0.01418600 0.00729300
v -0.02009100 -0.01157500 0.00633800
v -0.01712800 -0.00113000 0.00317300
v -0.01898400 -0.00219900 0.00260200
v -0.02464600 -0.00886500 0.00303600
v -0.00936300 0.00069400 0.00839200
v -0.00789400 0.00156300 0.00980000
v -0.00951300 0.00270700 0.00801100
v -0.00907000 0.00549800 0.00845500
v -0.01865500 0.00380300 0.00202200
v -0.01829800 -0.01445300 0.00945500
v -0.01690800 -0.01245800 0.00863500
v -0.00670100 -0.00729100 0.01606900
v -0.00898600 -0.00838400 0.01314300
v -0.00658800 -0.00487000 0.01427700
v -0.00939300 -0.01206200 0.01628400
v -0.01863000 -0.00866000 0.00519000
v -0.00930500 -0.00611200 0.01112400
v -0.00606300 -0.00158500 0.01339000
v -0.01560600 -0.01436700 0.01110400
v -0.02315200 -0.02448400 0.01846000
v -0.02329200 -0.02203100 0.01488600
v -0.00392400 -0.00438200 0.01979200
v -0.02040300 -0.00676900 0.00343700
v -0.01686800 -0.01025000 0.00708300
v -0.02098400 -0.02450800 0.02005100
v -0.00712400 0.00393700 0.01068300
v -0.00724000 -0.01055700 0.01897500
v -0.00529900 -0.00777300 0.02008600
v -0.00411600 -0.00239000 0.01765900
v -0.02735800 -0.02838700 0.02354900
v -0.02547800 -0.02622000 0.02010600
v -0.00395800 -0.00699900 0.02305200
v -0.00341200 -0.00275900 0.01976500
v -0.02156300 -0.00389200 0.00204100
v -0.00837900 -0.01448000 0.04573600
v -0.01024800 -0.01584200 0.04735600
v -0.01049900 -0.01805000 0.04411300
v -0.01285400 -0.00803500 0.00858500
v -0.01615800 -0.00720700 0.00574100
v -0.01845300 -0.00494100 0.00354800
v -0.00607900 -0.01220900 0.04345000
v -0.00356800 -0.00845400 0.04124600
v -0.00507500 -0.00871900 0.04580600
v -0.01220700 -0.00352300 0.00709500
v -0.01540400 -0.00380500 0.00481700
v -0.02274800 -0.02658500 0.04680800
v -0.02077200 -0.02654600 0.04441200
v -0.00322100 -0.00654800 0.04295000
v -0.00393100 -0.00580900 0.04603500
v -0.00254500 -0.00314000 0.04428000
v -0.00202600 -0.00410400 0.04144500
v -0.00151100 -0.00077200 0.04252500
v -0.01501300 -0.02343200 0.04037300
v -0.01557900 0.00202000 0.00357000
v -0.01244600 -0.02066100 0.04270100
v -0.01242500 -0.02171000 0.03881500
v -0.01002300 -0.01872700 0.04095000
v -0.00067900 0.00411900 0.04023000
v -0.00025500 0.00258900 0.03728500
v -0.01449200 -0.01097200 0.00910700
v -0.00185500 -0.00510000 0.02987200
v -0.00337500 -0.00733300 0.02616500
v -0.00201500 -0.00402200 0.02632100
v -0.00214200 -0.00240900 0.02350700
v -0.03168500 -0.03036600 0.04508200
v -0.03103000 -0.03101100 0.04265400
v -0.02878700 -0.03057600 0.04346700
v -0.00230700 -0.00037500 0.02137400
v -0.03025500 -0.02892000 0.04774400
v -0.03562900 -0.03097300 0.02877600
v -0.01379500 -0.01446400 0.01289400
v -0.00427200 0.00233500 0.01558400
v -0.00280400 0.00280300 0.01871500
v -0.01508900 -0.01797000 0.01578100
v -0.03807000 -0.03069600 0.02946500
v -0.01688100 -0.02283600 0.02167400
v -0.01619600 -0.02109000 0.01920400
v -0.00560200 0.00750200 0.01329300
v -0.00398200 0.00707500 0.01612300
v -0.00581900 0.00462100 0.01265100
v -0.03357100 -0.03137600 0.02931700
v -0.00265700 0.00759100 0.01932900
v -0.03640700 -0.03171400 0.03154000
v -0.01451300 -0.01983600 0.01935100
v -0.03370600 -0.03223300 0.03314100
v -0.01300800 -0.01750400 0.01788700
v -0.03090000 -0.03121200 0.02945800
v -0.00176200 0.00378400 0.02171600
v -0.00126700 0.00022300 0.02513000
v -0.01196100 -0.01840500 0.02156400
v -0.01024800 -0.01476200 0.01847000
v -0.03190500 -0.03177900 0.03128400
v -0.00148200 0.00604300 0.02287900
v -0.02931400 -0.03120900 0.03055300
v -0.03139600 -0.02316000 0.01405000
v -0.03116300 -0.03221100 0.03452200
v -0.02900200 -0.03168500 0.03426100
v -0.01381000 -0.02296000 0.03103300
v -0.01302300 -0.02176400 0.02867700
v -0.03151500 -0.02667300 0.01939600
v -0.02735600 -0.03099000 0.03227000
v -0.02893500 -0.02492100 0.01695400
v -0.01211200 -0.01417400 0.01462600
v -0.01077600 -0.01913600 0.02688600
v -0.01033600 -0.01998300 0.03780700
v -0.01349800 -0.02297800 0.03429800
v -0.00863600 -0.01799400 0.03541500
v -0.00837300 -0.01698600 0.03002300
v -0.02318800 -0.02848100 0.02942500
v -0.02734200 -0.02052300 0.01157600
v -0.00762000 -0.01634600 0.03239300
v -0.02589800 -0.03061700 0.03361300
v -0.02780000 -0.02248500 0.01389500
v -0.01140500 -0.01105200 0.01228300
v -0.02532500 -0.02456500 0.01755200
v -0.00803600 -0.01707800 0.03835100
v -0.02507100 -0.03031100 0.03880500
v -0.00618400 -0.01444800 0.03491900
v -0.02767500 -0.03117600 0.03964700
v -0.00559800 -0.01336400 0.03759200
v -0.00498100 -0.01107900 0.02786700
v -0.00492800 -0.01205300 0.03179300
v -0.00292400 -0.00816500 0.03175000
v -0.01420600 -0.02160300 0.02403300
v -0.01554700 -0.02319600 0.02548100
v -0.03390600 -0.02872300 0.02325000
v -0.02274000 -0.02931000 0.03643800
v -0.03104000 -0.02898700 0.02379700
v -0.02967700 -0.02739000 0.02087000
v -0.00430700 -0.01121700 0.03586900
v -0.00238000 -0.00716000 0.03538200
v -0.01006100 -0.01634000 0.02201500
v -0.00788300 -0.01612800 0.04078100
v -0.00545400 -0.01248200 0.04043200
v -0.02041100 -0.02777000 0.03887400
v -0.02000500 -0.02675200 0.02853400
v -0.01718700 -0.02534200 0.03007200
v -0.01073400 -0.02010700 0.03159700
v -0.00312400 -0.00848400 0.03839200
v -0.00783700 -0.01415000 0.02403200
v -0.01557300 -0.02450100 0.03283500
v -0.00100000 -0.00178400 0.02913700
v -0.00102600 -0.00319100 0.03321400
v -0.00064800 0.00109600 0.02798200
v -0.02223200 -0.02725500 0.02567100
v -0.00048600 -0.00095500 0.03386200
v -0.00040700 0.00526700 0.02885500
v -0.00016300 0.00293700 0.03110700
v -0.00516300 -0.00941200 0.02314700
v -0.00015200 0.00146900 0.03532400
v -0.02241200 -0.02592300 0.02169400
v -0.00023100 0.00677700 0.03117700
v -0.02459300 -0.02781000 0.02420500
v -0.00004600 0.00555500 0.03420600
v -0.00043300 0.00680700 0.03841600
v -0.01923500 -0.02539600 0.02462300
v -0.00043700 0.00982000 0.03477800
v -0.02668400 -0.03014100 0.04280200
v -0.02459400 -0.02958200 0.04170400
v -0.02167600 -0.02843700 0.04013500
v -0.00071100 0.00992300 0.03775100
v -0.02133300 -0.02753900 0.04294300
v -0.00661800 -0.01154600 0.04595800
v -0.01982600 -0.02663400 0.04207600
v -0.01082500 -0.00449000 0.00868400
v -0.01386700 -0.00596800 0.00674100
v -0.02341100 -0.02816300 0.04431000
v -0.00185000 -0.00521100 0.03804400
v -0.02581000 -0.02870000 0.04565300
v -0.02723100 -0.02808800 0.04775100
v -0.00085200 0.00013700 0.04036100
v -0.00095400 -0.00217600 0.03715700
v -0.03914400 -0.03141800 0.03390200
v -0.03685900 -0.03207800 0.03581000
v -0.03336800 -0.03216400 0.03607800
v -0.03248200 -0.03188000 0.03780000
v -0.04183000 -0.03056600 0.03527600
v -0.04075600 -0.03078500 0.03819900
v -0.00808500 -0.00234200 0.01080800
v -0.01217300 -0.01901500 0.04577700
v -0.03918400 -0.03110800 0.03840500
v -0.01441000 -0.01889300 0.04906700
v -0.04380400 -0.02925200 0.04058000
v -0.04262300 -0.02932600 0.04213500
v -0.03943600 -0.03039000 0.04150300
v -0.02452700 -0.01726700 0.00915900
v -0.03007000 -0.03164200 0.03924500
v -0.00619700 0.00160000 0.01221500
v -0.03485000 -0.03026400 0.04469900
v -0.02164200 -0.01747100 0.01047700
v -0.00763100 0.00715900 0.01039700
v -0.03071700 0.05285200 -0.00013400
v -0.02696400 0.05111700 -0.00012200
v -0.02640400 0.05496300 0.00007900
v -0.02895700 0.05451300 -0.00012300
v -0.02485800 0.05181200 0.00019700
v -0.02230200 0.05221400 0.00100500
v -0.02120500 0.05128600 0.00152500
v -0.04088500 0.05583100 0.00517100
v -0.03515600 0.05364600 0.00092300
v -0.03834300 0.05748800 0.00328000
v -0.03782400 0.05530600 0.00239800
v -0.03669900 0.05625800 0.00191900
v -0.03250000 0.05429300 0.00022200
v -0.03476200 0.05589200 0.00104500
v -0.03139800 0.05621900 0.00029200
v -0.03199000 0.05979300 0.00167300
v -0.02916800 0.05951700 0.00113600
v -0.03182700 0.05797000 0.00080700
v -0.02854900 0.05737500 0.00037700
v -0.02635400 0.05799400 0.00072300
v -0.02741300 0.06008400 0.00152900
v -0.03588500 0.05898000 0.00239900
v -0.03423000 0.06099500 0.00308800
v -0.02469100 0.05728800 0.00087400
v -0.02258400 0.05827900 0.00192300
v -0.02102500 0.06037600 0.00395200
v -0.02482500 0.05930300 0.00168000
v -0.02331400 0.05586800 0.00096300
v -0.02072300 0.05852900 0.00286000
v -0.02016700 0.05704900 0.00272500
v -0.01801000 0.05456300 0.00384800
v -0.03332200 0.06211000 0.00388800
v -0.02963300 0.06066600 0.00183300
v -0.03090100 0.06144500 0.00267600
v -0.02493100 0.06131900 0.00336600
v -0.04280400 0.05545400 0.00757000
v -0.04129500 0.05747300 0.00642000
v -0.04142200 0.05877400 0.00761200
v -0.03863700 0.05894100 0.00410500
v -0.03804100 0.05992400 0.00426100
v -0.04354600 0.05632700 0.00983800
v -0.04181000 0.05929100 0.00911600
v -0.04402500 0.05670500 0.01238400
v -0.04190600 0.06030800 0.01139800
v -0.03708600 0.05934000 0.00316000
v -0.03651300 0.06133300 0.00461400
v -0.03805800 0.06180700 0.00664100
v -0.03932100 0.06158500 0.00797300
v -0.03673700 0.06268300 0.00686400
v -0.03445600 0.06260100 0.00506700
v -0.04047000 0.06143600 0.01001400
v -0.03767800 0.06321900 0.00961300
v -0.02083200 0.05454500 0.00188100
v -0.01892800 0.05800000 0.00389600
v -0.01880200 0.05963300 0.00499500
v -0.01894900 0.06099800 0.00643400
v -0.01699400 0.05289000 0.00467700
v -0.01906500 0.05101600 0.00291300
v -0.01598600 0.05390800 0.00606600
v -0.01605500 0.05695700 0.00686400
v -0.01494500 0.05605000 0.00847800
v -0.01376500 0.05367800 0.01065000
v -0.01388200 0.05605400 0.01162100
v -0.01708900 0.05882800 0.00656000
v -0.01691800 0.06078100 0.00915300
v -0.01559700 0.05883200 0.00927900
v -0.01447000 0.05793900 0.01167900
v -0.01539400 0.06026700 0.01265500
v -0.01382800 0.05716400 0.01456900
v -0.01448000 0.05901300 0.01573600
v -0.01588900 0.06141800 0.01467500
v -0.01646600 0.06185200 0.01308300
v -0.01788400 0.06321200 0.01519200
v -0.01528600 0.06024200 0.01712600
v -0.02989000 0.06726100 0.00955900
v -0.02846800 0.06688800 0.00867100
v -0.02779300 0.06677800 0.00863800
v -0.02659500 0.06715300 0.00965200
v -0.02838100 0.06789400 0.01066200
v -0.03050800 0.06718600 0.01017100
v -0.03026600 0.06771200 0.01149200
v -0.02677400 0.06794600 0.01220800
v -0.02867300 0.06824900 0.01264500
v -0.01965700 0.06236300 0.00827600
v -0.01941300 0.06339500 0.01081700
v -0.02614400 0.06714400 0.01034300
v -0.02008000 0.06444700 0.01361800
v -0.01789900 0.06251800 0.01094100
v -0.00086300 0.01167300 0.03049700
v -0.00195700 0.00965300 0.02265600
v -0.00200000 0.01668900 0.03293400
v -0.00113200 0.01346000 0.03453500
v -0.00201700 0.01577300 0.03889800
v -0.00117700 0.01055700 0.02691300
v -0.00294400 0.01937200 0.03612700
v -0.01333000 0.05552700 0.01699700
v -0.01491200 0.05828900 0.01975700
v -0.05384100 0.02051500 0.05248100
v -0.05666500 0.01605800 0.05270200
v -0.05264800 0.01853800 0.05506800
v -0.05491800 0.00517200 0.05764000
v -0.05691100 0.00680700 0.05571500
v -0.05459000 -0.00206900 0.05647400
v -0.05729000 -0.00222400 0.05316100
v -0.05476600 -0.00443600 0.05527900
v -0.05877400 0.00697100 0.05358200
v -0.05762800 0.00860900 0.05479100
v -0.05417000 0.02246300 0.05041800
v -0.05405700 -0.00806400 0.05418500
v -0.05285200 -0.01143900 0.05336900
v -0.05149700 -0.00971400 0.05582900
v -0.05333700 0.00377400 0.05886100
v -0.05265100 -0.00006900 0.05882700
v -0.05143800 0.00324300 0.06021500
v -0.05573400 0.02340000 0.04736700
v -0.05486100 0.00820200 0.05754900
v -0.05907000 -0.01237000 0.04199900
v -0.05267000 0.02473100 0.04964500
v -0.05204000 -0.00469900 0.05788400
v -0.06253400 -0.00527200 0.04132500
v -0.06228700 -0.00873700 0.03736200
v -0.05083300 0.02331800 0.05286100
v -0.05238300 0.00733800 0.05960800
v -0.04953700 -0.01020000 0.05714500
v -0.05046000 -0.00505900 0.05896500
v -0.05971800 -0.00897800 0.04444500
v -0.05287000 0.01617800 0.05634900
v -0.04801400 -0.00959700 0.05852400
v -0.04552300 -0.00920700 0.06005200
v -0.04882400 0.00057400 0.06146000
v -0.04888700 0.00388200 0.06175800
v -0.04539800 -0.00067400 0.06286900
v -0.04842000 -0.00615500 0.05979600
v -0.04985100 0.01767900 0.05775000
v -0.05058300 0.02127300 0.05485800
v -0.04557000 0.00269100 0.06322400
v -0.04772300 0.02068500 0.05721900
v -0.04693000 0.01794700 0.05939300
v -0.04330000 0.00143600 0.06387900
v -0.05034600 -0.00072600 0.06033900
v -0.04946400 0.00669100 0.06148000
v -0.04804200 -0.00325700 0.06099600
v -0.04969600 0.00877100 0.06117400
v -0.04878600 0.02240600 0.05524500
v -0.04600000 0.00602400 0.06315100
v -0.04579900 0.02269200 0.05678800
v -0.04533700 -0.00608200 0.06138000
v -0.04327200 -0.00369200 0.06293400
v -0.04710800 0.00830600 0.06253700
v -0.06349400 -0.00280100 0.04082700
v -0.06277200 0.00014400 0.04482600
v -0.06057300 -0.00393600 0.04693200
v -0.04221100 0.00440200 0.06438600
v -0.04422500 0.02112800 0.05871800
v -0.06486200 -0.00118500 0.03737800
v -0.06513400 0.00336900 0.03915100
v -0.06574000 0.00179100 0.03534800
v -0.06598200 0.00548000 0.03566800
v -0.05485700 0.01074300 0.05705900
v -0.05846600 -0.00761900 0.04819700
v -0.05021300 0.02598000 0.05064600
v -0.06422400 0.00257700 0.04217700
v -0.05697700 0.01166200 0.05458800
v -0.05546800 0.01349100 0.05542000
v -0.05275000 0.00984000 0.05896600
v -0.06312900 0.00676300 0.04610700
v -0.06368400 0.00502800 0.04472700
v -0.06086400 -0.00107300 0.04821500
v -0.05223000 0.01271800 0.05848800
v -0.06215000 0.00310700 0.04768200
v -0.04966800 0.01170700 0.06057100
v -0.04830300 0.02535000 0.05287600
v -0.05963500 0.00041800 0.05100200
v -0.04620400 0.02501800 0.05456900
v -0.05661900 -0.01504800 0.04409600
v -0.05712700 -0.01280100 0.04596200
v -0.04898700 0.01454800 0.05992200
v -0.06114700 0.00396600 0.04980600
v -0.04317500 0.02589700 0.05530500
v -0.05987200 0.00327500 0.05161600
v -0.05747200 0.00121400 0.05423000
v -0.05288700 -0.01757600 0.04763400
v -0.05478100 -0.01468400 0.04797600
v -0.05411900 -0.01764400 0.04538300
v -0.05775500 0.00408400 0.05466800
v -0.05726000 -0.00944700 0.04893600
v -0.05507900 -0.01287200 0.04950100
v -0.06238900 0.00989000 0.04716300
v -0.06320700 0.01333800 0.04341000
v -0.06145800 0.01596900 0.04542900
v -0.06319800 0.01627300 0.04073500
v -0.06200000 0.01861400 0.04122900
v -0.06184000 0.00605000 0.04883500
v -0.05326000 -0.01561600 0.04930600
v -0.04230900 0.02376500 0.05744800
v -0.06055800 0.02093400 0.04151700
v -0.06098700 0.02224200 0.03780400
v -0.05905000 0.02355000 0.04080300
v -0.06003900 0.00610000 0.05186400
v -0.05265300 -0.01407100 0.05149200
v -0.04297600 0.01985200 0.06004900
v -0.06421200 0.01015500 0.04266600
v -0.06440600 0.01318400 0.04011500
v -0.03863000 0.02171900 0.06008000
v -0.06005800 0.01898500 0.04530800
v -0.06118900 0.01295800 0.04804400
v -0.05810900 0.02258500 0.04439800
v -0.06054400 0.01628900 0.04697400
v -0.05101900 -0.01883000 0.04844300
v -0.05309100 -0.01938400 0.04438600
v -0.05083900 -0.02079700 0.04606800
v -0.06084600 0.01021000 0.04990100
v -0.03864200 0.02722100 0.05567200
v -0.05762800 0.02035800 0.04797300
v -0.05822900 0.02107300 0.04615300
v -0.04793000 -0.02193000 0.04855300
v -0.03776500 0.02484400 0.05792400
v -0.05996700 0.01454900 0.04924600
v -0.03496600 0.02623800 0.05732600
v -0.04934500 -0.01780600 0.05141000
v -0.04759200 0.01269900 0.06147500
v -0.04588000 0.00971500 0.06291900
v -0.04570500 -0.02155500 0.05109100
v -0.04503300 -0.02448200 0.04896100
v -0.06031900 0.00826300 0.05126100
v -0.04416200 0.00934800 0.06361300
v -0.05154600 -0.01683200 0.05009700
v -0.05911600 0.00951800 0.05270800
v -0.04506400 0.01277500 0.06254700
v -0.04445600 0.01499900 0.06201000
v -0.04239800 0.01337000 0.06322900
v -0.05896500 0.01301500 0.05160400
v -0.04697400 -0.01712800 0.05403100
v -0.04887800 -0.01657300 0.05295600
v -0.04487500 0.01622500 0.06131900
v -0.05871900 0.01694600 0.04951900
v -0.05642800 0.01810500 0.05154100
v -0.04181800 0.01662900 0.06220500
v -0.04973500 -0.01398300 0.05438700
v -0.05564100 0.00204000 0.05653100
v -0.05581600 0.02043200 0.05035500
v -0.03920900 0.01776800 0.06228400
v -0.05906700 -0.00285800 0.05035400
v -0.05486800 -0.01011500 0.05193000
v -0.05042900 -0.01242100 0.05491000
v -0.05099700 -0.01197300 0.05471400
v -0.04689000 -0.01424800 0.05626800
v -0.05697200 -0.00606700 0.05160200
v -0.06411000 0.01630700 0.03733400
v -0.06295700 0.01917000 0.03691700
v -0.06139100 0.02288000 0.03309100
v -0.06348400 0.01904000 0.03357700
v -0.04710500 -0.02570600 0.04460400
v -0.06240200 0.02115600 0.02920700
v -0.04478800 -0.02749300 0.04439700
v -0.04598800 -0.02558700 0.04662600
v -0.05786700 -0.01630600 0.03774100
v -0.06569900 0.00929400 0.02425900
v -0.05927100 -0.01335800 0.03942300
v -0.06616100 0.00956300 0.02814800
v -0.06547800 0.01192100 0.02647800
v -0.06391500 0.00870600 0.04395200
v -0.06177800 -0.01086400 0.03381600
v -0.06566200 0.01230700 0.03046100
v -0.06543600 -0.00266200 0.03064900
v -0.06482000 0.01526800 0.02785400
v -0.06354700 -0.00729000 0.03338800
v -0.06379200 0.01783200 0.02665900
v -0.06288200 0.01796000 0.02269600
v -0.06182200 0.00839500 0.04870700
v -0.06433700 0.01717400 0.03129500
v -0.06259700 0.02038700 0.02667800
v -0.06526500 0.00864900 0.03910200
v -0.06513700 0.01250900 0.03674700
v -0.06633300 0.00151300 0.03098100
v -0.06083900 -0.00978500 0.04065000
v -0.06658100 0.00505800 0.03124500
v -0.06647500 0.00377600 0.03241000
v -0.06409100 -0.00366800 0.03792600
v -0.06639200 0.00741900 0.02967000
v -0.06652900 0.00518300 0.02832400
v -0.06613700 0.00895800 0.03149800
v -0.06393700 -0.00545400 0.03592400
v -0.06486600 0.00667600 0.04112600
v -0.06571700 0.00858300 0.03588700
v -0.05452600 -0.02029800 0.03882100
v -0.05244900 -0.02172000 0.04136300
v -0.06488200 0.01510600 0.03381300
v -0.05516300 -0.01808400 0.04239200
v -0.05650400 -0.01728900 0.04036100
v -0.03426400 -0.00106700 0.06506000
v -0.03270400 0.00054800 0.06528800
v -0.04073800 -0.02661700 0.04965000
v -0.03973200 -0.02855700 0.04689200
v -0.03901900 -0.02741800 0.04925700
v -0.03084800 -0.01358200 0.06046700
v -0.03384100 -0.01257900 0.06112900
v -0.03322200 -0.01613700 0.05903100
v -0.04345200 -0.02494600 0.04980000
v -0.04427800 -0.02592000 0.04797900
v -0.03295500 0.00339900 0.06548600
v -0.01161300 0.01171900 0.05799200
v -0.00986600 0.00674300 0.05753400
v -0.03550900 0.00628100 0.06545800
v -0.03602500 -0.02752900 0.04995100
v -0.03631100 -0.02633600 0.05145200
v -0.00731900 0.00476000 0.05501600
v -0.02900000 0.00156100 0.06516000
v -0.03025000 -0.00137200 0.06494100
v -0.04146100 0.00823600 0.06447500
v -0.03854100 0.00850200 0.06499300
v -0.01208400 0.00722600 0.05917000
v -0.03218400 -0.02817400 0.04942900
v -0.03382700 -0.02858900 0.04867700
v -0.03554700 -0.01120500 0.06175700
v -0.03764800 -0.01198600 0.06115500
v -0.00963800 0.01087200 0.05656300
v -0.00785900 0.00853600 0.05532300
v -0.03674400 0.00192700 0.06526200
v -0.01380200 0.00530100 0.06039200
v -0.03768600 -0.00816000 0.06285100
v -0.04305700 -0.02259000 0.05221000
v -0.04047900 -0.02439200 0.05213200
v -0.01582900 0.00763100 0.06135200
v -0.01536100 0.00331700 0.06122900
v -0.03776400 -0.02530300 0.05223500
v -0.01830600 0.00548300 0.06260100
v -0.03363500 0.00800000 0.06544800
v -0.03459200 0.01029600 0.06525700
v -0.03020900 0.00787400 0.06534600
v -0.03083100 -0.02738000 0.05019400
v -0.03411200 -0.00916300 0.06275600
v -0.02740300 -0.02511200 0.05166100
v -0.02780600 0.00465700 0.06515300
v -0.01445800 0.01042800 0.06020100
v -0.03042700 -0.00956400 0.06252700
v -0.01758500 0.01054500 0.06182700
v -0.01687300 0.01741500 0.05937800
v -0.01757700 0.01340400 0.06113100
v -0.01465400 0.01394100 0.05937200
v -0.03152800 0.01062000 0.06516500
v -0.03118400 -0.00728200 0.06349300
v -0.01101100 0.01518400 0.05629100
v -0.01034700 0.01748300 0.05453700
v -0.04545100 -0.01685500 0.05524400
v -0.01358100 0.01847800 0.05670100
v -0.04331400 -0.00720100 0.06182800
v -0.01671600 0.02080500 0.05737000
v -0.04172100 -0.02181700 0.05346900
v -0.01514300 0.02232100 0.05526800
v -0.03904700 -0.02306400 0.05374100
v -0.04116800 -0.00877700 0.06195300
v -0.04316000 -0.01100600 0.06026100
v -0.02091300 -0.01003800 0.06010400
v -0.02438700 -0.00814000 0.06203300
v -0.02487600 -0.01199400 0.06030300
v -0.00862900 0.01334900 0.05475700
v -0.00745900 0.01177200 0.05403000
v -0.03527600 -0.02512000 0.05276600
v -0.02618500 -0.00611100 0.06323600
v -0.02898900 -0.00693000 0.06342800
v -0.02653200 -0.00824100 0.06245400
v -0.03572400 -0.02273800 0.05470900
v -0.00737900 0.01566800 0.05215400
v -0.03287100 -0.02320100 0.05446500
v -0.03202800 -0.02679200 0.05112000
v -0.03103400 -0.02485700 0.05282400
v -0.02127300 -0.00710300 0.06147300
v -0.02368700 -0.00437500 0.06317300
v -0.02824900 -0.02366100 0.05322900
v -0.03141100 -0.02318300 0.05432500
v -0.03923900 -0.00469300 0.06374000
v -0.01818300 -0.00584800 0.06074900
v -0.02078700 -0.00374100 0.06242800
v -0.03742300 -0.02216800 0.05474400
v -0.03706400 -0.00534300 0.06388500
v -0.01407500 0.01609100 0.05822200
v -0.02150900 0.00989100 0.06350100
v -0.02369500 0.01051900 0.06406600
v -0.02176800 0.00802000 0.06381000
v -0.03505700 -0.00538100 0.06403900
v -0.02079100 0.01287500 0.06261800
v -0.01881700 0.00875900 0.06259700
v -0.01549700 -0.00459800 0.05985600
v -0.01770200 -0.00860300 0.05936400
v -0.01457500 -0.00965800 0.05702200
v -0.02005300 0.01568200 0.06149700
v -0.02536300 -0.02728100 0.04790200
v -0.03040100 -0.01723000 0.05817400
v -0.02811600 -0.01456400 0.05956400
v -0.02666500 -0.02669500 0.04958300
v -0.02490000 -0.01470900 0.05876500
v -0.02601600 -0.01777100 0.05692800
v -0.02389500 -0.02539500 0.04939500
v -0.02104000 0.00377000 0.06367100
v -0.01767800 0.00135700 0.06224400
v -0.02616800 0.00908700 0.06480400
v -0.01280200 0.00028400 0.05951000
v -0.01184900 -0.00110200 0.05853600
v -0.02859100 -0.01136600 0.06140000
v -0.02728500 0.01296100 0.06434900
v -0.02399300 0.00647100 0.06449200
v -0.01327400 -0.00572900 0.05797300
v -0.02400700 0.01298800 0.06362000
v -0.01365900 0.00176500 0.06023400
v -0.02143900 -0.01300400 0.05870700
v -0.00924100 -0.00124400 0.05622400
v -0.01104100 0.00091400 0.05834400
v -0.02378500 0.01515000 0.06292500
v -0.02569200 -0.02428700 0.05170500
v -0.01106500 0.00323300 0.05865100
v -0.02350600 0.02053600 0.06050400
v -0.02415700 0.01766300 0.06203400
v -0.01932200 0.01707200 0.06067400
v -0.01648200 -0.00132000 0.06130200
v -0.01989800 -0.00080400 0.06285500
v -0.01948000 0.00103400 0.06294500
v -0.01937200 0.02023200 0.05913300
v -0.02768800 -0.00430300 0.06407900
v -0.02917800 -0.00316800 0.06453100
v -0.00983700 -0.01418600 0.04883800
v -0.00679300 -0.01032800 0.04774200
v -0.02567600 -0.00035200 0.06448900
v -0.00884500 -0.01188000 0.04969700
v -0.01231000 -0.01498400 0.05113500
v -0.01416100 -0.01728200 0.05078300
v -0.01141900 -0.01656100 0.04824100
v -0.01919300 -0.01869000 0.05321100
v -0.01118200 -0.01281800 0.05195000
v -0.01665700 -0.01789500 0.05237800
v -0.01309800 -0.01373600 0.05314600
v -0.01479200 -0.01599800 0.05264300
v -0.02247000 0.00066600 0.06384000
v -0.02381200 0.00379400 0.06442700
v -0.01024300 -0.01119000 0.05215400
v -0.00505400 -0.00607400 0.04830700
v -0.01421800 -0.01299300 0.05466600
v -0.01714700 -0.01528100 0.05501600
v -0.00750300 -0.00854200 0.05050200
v -0.01142800 -0.01007800 0.05429300
v -0.00957900 -0.00807100 0.05352600
v -0.00695500 -0.00538200 0.05182500
v -0.01737400 -0.01211600 0.05735400
v -0.02901300 -0.01838900 0.05715000
v -0.00450100 -0.00224000 0.04949900
v -0.00639300 -0.00310800 0.05215400
v -0.02098000 -0.01663400 0.05605300
v -0.00909400 -0.00525800 0.05452700
v -0.00768700 -0.00303600 0.05383400
v -0.02852600 0.01504900 0.06395400
v -0.01186200 -0.00656000 0.05656500
v -0.02916600 0.01073100 0.06496000
v -0.02968600 0.01067300 0.06501800
v -0.03046800 0.01229000 0.06487100
v -0.00733600 0.00090300 0.05463700
v -0.00533600 -0.00033900 0.05163300
v -0.02993900 0.01788000 0.06292500
v -0.03304900 0.01582400 0.06391300
v -0.03313500 0.01355100 0.06468600
v -0.00319800 -0.00125300 0.04740800
v -0.03231600 0.02020600 0.06179800
v -0.03520100 0.01694500 0.06329900
v -0.02726300 0.01592800 0.06344600
v -0.00457400 -0.00006000 0.05055300
v -0.00343500 0.00145300 0.04867700
v -0.00463700 0.00180900 0.05085800
v -0.00172600 0.00201800 0.04434700
v -0.00233100 0.00372600 0.04645800
v -0.00391200 0.00365000 0.04971400
v -0.00316900 0.00575100 0.04821700
v -0.03550100 0.02331300 0.05953800
v -0.01945400 -0.01629700 0.05559400
v -0.03243900 0.02279600 0.06021200
v -0.03656200 0.02006700 0.06149100
v -0.00642400 0.00358300 0.05383100
v -0.00525900 0.00558500 0.05211000
v -0.00424900 0.00767600 0.05020800
v -0.00297800 0.00946500 0.04732800
v -0.03155100 0.02603400 0.05779300
v -0.02912400 0.02380100 0.05945900
v -0.01084200 -0.00374500 0.05683500
v -0.04294400 -0.01566400 0.05745100
v -0.04439000 -0.01294000 0.05854100
v -0.03994900 0.01148900 0.06428800
v -0.02077600 0.02311200 0.05792700
v -0.02489300 0.02301500 0.05934000
v -0.03858100 0.01482500 0.06364400
v -0.02792100 0.02103400 0.06115600
v -0.02572300 0.01900400 0.06181900
v -0.03657400 0.01134200 0.06488200
v -0.04012400 -0.01389000 0.05953900
v -0.04163900 -0.01181500 0.06036800
v -0.03593500 0.01385000 0.06437600
v -0.00898700 0.00278500 0.05673800
v -0.03739000 -0.01647300 0.05841600
v -0.02866400 0.02575800 0.05791200
v -0.00563600 0.00747300 0.05253400
v -0.02521800 0.02549900 0.05752000
v -0.00481600 0.01078400 0.05058200
v -0.00318000 0.01212900 0.04680100
v -0.00442100 0.01373800 0.04859400
v -0.00670600 0.00945400 0.05370500
v -0.00585800 0.01272200 0.05147800
v -0.00612800 0.01598900 0.05008400
v -0.04152100 -0.00170800 0.06391000
v -0.03719800 -0.00194300 0.06469100
v -0.04083900 -0.00010900 0.06433800
v -0.03751900 0.00018800 0.06497600
v -0.03913100 0.00354000 0.06502300
v -0.03190600 -0.00439300 0.06435400
v -0.04159400 -0.02800700 0.04674200
v -0.03980200 -0.02926300 0.04517900
v -0.03588600 -0.02942600 0.04680000
v -0.00158400 0.00570600 0.04416300
v -0.00221700 0.00638900 0.04599200
v -0.00230200 0.01261100 0.04396200
v -0.03540900 0.06311100 0.02413400
v -0.03792300 0.06069100 0.02523400
v -0.03551100 0.06193000 0.02559900
v -0.03717300 0.06008000 0.02639000
v -0.03484000 0.06108500 0.02684900
v -0.03317600 0.06270100 0.02589700
v -0.01664700 0.05832300 0.02371900
v -0.03358000 0.05982900 0.02850300
v -0.03163400 0.06131100 0.02783700
v -0.02868600 0.06040800 0.02897100
v -0.02951100 0.06227200 0.02727700
v -0.02748600 0.06150100 0.02799800
v -0.02058500 0.05900700 0.02731100
v -0.02454700 0.06094800 0.02780100
v -0.02329100 0.06241900 0.02569700
v -0.02594100 0.06415500 0.02467300
v -0.03113800 0.06355200 0.02551800
v -0.03215700 0.06423200 0.02424000
v -0.02884600 0.06342200 0.02603200
v -0.02664400 0.06311500 0.02623100
v -0.02200000 0.06052800 0.02693300
v -0.02089000 0.06258000 0.02391400
v -0.01911300 0.06001100 0.02525800
v -0.01995400 0.06099500 0.02508600
v -0.02319800 0.06416300 0.02315600
v -0.03914700 0.06161000 0.02278100
v -0.03986600 0.06163400 0.02153500
v -0.04072000 0.05972000 0.02278400
v -0.03910800 0.06295700 0.01976800
v -0.03522400 0.06436700 0.02191700
v -0.03375300 0.06545700 0.02009000
v -0.03647700 0.06459500 0.01956000
v -0.03207700 0.06545500 0.02162300
v -0.02553600 0.06612000 0.02001700
v -0.02413400 0.06616500 0.01892500
v -0.02169900 0.06517200 0.01848000
v -0.02191000 0.06482000 0.02060900
v -0.01918300 0.06384500 0.01816400
v -0.01787400 0.06265000 0.01919900
v -0.04290100 0.05942000 0.01405300
v -0.04441200 0.05628700 0.01434000
v -0.04302400 0.05937800 0.01577100
v -0.01639300 0.06051300 0.02040400
v -0.01551700 0.05829300 0.02153400
v -0.04127000 0.06154900 0.01310800
v -0.01739300 0.06032400 0.02287300
v -0.04154100 0.06161800 0.01473000
v -0.04047400 0.06245100 0.01400300
v -0.04252500 0.05893500 0.01979700
v -0.04205700 0.06084300 0.01696600
v -0.04054700 0.06234600 0.01655300
v -0.01876600 0.06238900 0.02189700
v -0.03706700 0.06459700 0.01710900
v -0.03954800 0.06291700 0.01266200
v -0.02942300 0.06575400 0.02194800
v -0.02854100 0.06488200 0.02395200
v -0.02716900 0.06542700 0.02270800
v -0.03790200 0.06296800 0.02217800
v -0.02747700 0.06797900 0.01321700
v -0.02007500 0.06454400 0.01603500
v -0.01356600 0.02378500 0.05284900
v -0.01277200 0.02657800 0.04953900
v -0.00977400 0.02314500 0.04963600
v -0.01116900 0.02569500 0.04875600
v -0.01089500 0.02102300 0.05273100
v -0.01809700 0.02407000 0.05579200
v -0.00140200 0.00996100 0.04210600
v -0.00196100 0.01395200 0.04141800
v -0.01229500 0.02043800 0.05443500
v -0.00308800 0.01655600 0.04314300
v -0.00334300 0.01482800 0.04551900
v -0.00278000 0.01807400 0.03908000
v -0.00396300 0.02083100 0.03954500
v -0.01709600 0.02601700 0.05347100
v -0.00557000 0.02147100 0.04417800
v -0.00420500 0.01956700 0.04293800
v -0.00876700 0.01877100 0.05189400
v -0.00842300 0.02355200 0.04753400
v -0.00859000 0.02129100 0.04981300
v -0.00500800 0.01838500 0.04638500
v -0.00637200 0.02012400 0.04746800
v -0.00795900 0.02371200 0.04660000
v -0.02314500 0.02556500 0.05689300
v -0.02080600 0.02551700 0.05603000
f 441 395 394
f 419 445 205
f 847 838 846
f 846 881 847
f 97 157 396
f 10 12 35
f 647 509 183
f 467 469 471
f 463 469 467
f 279 276 449
f 449 276 275
f 416 441 394
f 394 393 416
f 446 441 419
f 560 549 510
f 537 610 531
f 533 610 537
f 614 610 533
f 614 872 619
f 619 872 875
f 872 881 875
f 562 567 909
f 918 916 886
f 396 157 86
f 270 276 279
f 969 967 968
f 351 354 352
f 906 549 560
f 630 875 850
f 881 846 850
f 850 875 881
f 886 916 884
f 849 850 846
f 886 884 874
f 874 884 868
f 154 171 152
f 157 97 72
f 72 97 65
f 142 154 153
f 396 427 398
f 398 97 396
f 65 97 398
f 37 19 16
f 37 36 66
f 66 40 37
f 16 19 17
f 17 19 20
f 109 27 25
f 174 25 27
f 26 25 174
f 513 530 528
f 499 512 513
f 667 538 543
f 514 505 564
f 550 544 543
f 543 538 550
f 550 672 544
f 633 512 499
f 440 437 435
f 470 467 471
f 483 481 479
f 461 460 476
f 459 460 461
f 452 442 443
f 447 449 275
f 447 445 419
f 15 7 10
f 413 416 412
f 418 416 413
f 441 416 418
f 419 441 418
f 418 442 419
f 12 23 389
f 389 403 392
f 35 12 389
f 389 390 35
f 392 390 389
f 406 402 410
f 403 402 406
f 463 467 464
f 464 420 463
f 413 412 415
f 415 412 408
f 583 567 534
f 534 567 562
f 529 519 533
f 533 537 529
f 529 537 531
f 601 567 583
f 626 618 619
f 619 875 626
f 626 875 630
f 987 918 886
f 886 874 987
f 988 970 925
f 925 918 988
f 918 987 988
f 152 171 156
f 654 648 652
f 676 652 662
f 591 637 662
f 662 637 676
f 654 652 659
f 659 652 676
f 160 164 161
f 161 164 429
f 161 159 160
f 649 648 654
f 424 86 159
f 424 161 429
f 159 161 424
f 419 205 195
f 385 223 277
f 277 223 275
f 275 276 277
f 203 223 385
f 205 223 203
f 927 968 967
f 986 979 948
f 892 752 891
f 795 869 836
f 254 234 252
f 905 934 962
f 905 906 907
f 962 906 905
f 935 934 937
f 471 935 937
f 549 906 506
f 496 510 506
f 506 510 549
f 506 503 496
f 907 906 908
f 908 909 907
f 562 909 908
f 560 562 908
f 908 906 560
f 930 962 931
f 930 906 962
f 930 506 906
f 503 506 930
f 471 469 957
f 432 430 429
f 214 211 210
f 311 214 210
f 235 214 311
f 351 352 256
f 256 347 351
f 349 354 351
f 351 347 345
f 345 349 351
f 344 349 345
f 285 270 279
f 365 340 369
f 343 340 339
f 343 345 347
f 347 369 343
f 343 369 340
f 339 340 258
f 258 260 339
f 842 838 847
f 726 806 802
f 802 806 800
f 802 727 726
f 862 592 630
f 630 850 862
f 850 849 862
f 862 859 592
f 862 849 861
f 861 859 862
f 867 859 861
f 607 859 867
f 861 868 867
f 868 884 867
f 876 874 868
f 800 874 876
f 876 868 861
f 861 849 876
f 925 970 978
f 736 806 726
f 728 765 726
f 726 727 728
f 728 690 765
f 252 234 377
f 264 384 316
f 901 386 262
f 98 655 653
f 543 663 653
f 543 544 545
f 545 663 543
f 152 151 146
f 146 151 147
f 146 154 152
f 146 153 154
f 147 151 149
f 159 86 149
f 160 159 149
f 149 151 160
f 149 86 157
f 119 158 72
f 157 72 150
f 72 158 150
f 150 149 157
f 150 158 147
f 147 149 150
f 65 398 73
f 73 398 399
f 2 14 74
f 20 23 9
f 9 17 20
f 9 23 12
f 12 10 9
f 10 7 9
f 9 7 8
f 8 17 9
f 180 182 126
f 114 75 115
f 56 83 57
f 57 83 94
f 111 126 110
f 111 110 109
f 118 111 109
f 121 111 118
f 168 94 83
f 83 118 168
f 144 92 90
f 34 6 96
f 96 32 34
f 16 6 34
f 41 119 36
f 26 174 42
f 42 32 26
f 307 387 218
f 218 310 307
f 307 310 292
f 273 353 222
f 218 387 185
f 371 386 382
f 511 504 489
f 489 500 511
f 511 553 504
f 531 553 511
f 511 529 531
f 502 511 500
f 519 529 502
f 529 511 502
f 501 513 528
f 528 502 501
f 501 502 500
f 544 672 546
f 141 102 142
f 108 102 141
f 142 92 141
f 99 102 108
f 99 100 98
f 108 104 99
f 104 100 99
f 171 154 165
f 165 154 142
f 142 102 165
f 540 631 556
f 505 514 664
f 509 647 664
f 647 505 664
f 672 550 555
f 539 550 538
f 539 540 556
f 539 555 550
f 183 140 645
f 645 647 183
f 644 688 612
f 643 688 644
f 463 437 468
f 437 440 468
f 468 469 463
f 468 440 469
f 469 440 958
f 958 957 469
f 952 957 958
f 358 352 354
f 976 481 483
f 974 481 976
f 483 479 484
f 484 976 483
f 480 479 481
f 480 358 354
f 481 358 480
f 461 476 475
f 474 470 475
f 279 449 450
f 449 451 450
f 472 476 444
f 388 223 205
f 388 205 445
f 445 447 388
f 275 223 388
f 388 447 275
f 449 447 448
f 448 454 449
f 452 454 448
f 442 452 448
f 419 442 448
f 448 447 419
f 184 393 394
f 184 87 393
f 35 390 60
f 53 390 393
f 53 51 390
f 393 87 53
f 87 184 53
f 46 51 53
f 53 184 46
f 31 51 46
f 29 10 35
f 29 15 10
f 29 31 15
f 391 416 393
f 391 412 416
f 391 390 392
f 393 390 391
f 408 412 391
f 417 418 413
f 442 418 417
f 443 442 417
f 410 402 400
f 399 398 400
f 401 402 403
f 403 389 401
f 401 389 23
f 466 464 467
f 472 444 466
f 466 470 474
f 467 470 466
f 414 466 444
f 443 417 414
f 413 415 414
f 414 417 413
f 414 444 443
f 423 414 415
f 589 592 583
f 630 592 589
f 589 626 630
f 532 534 562
f 532 562 560
f 560 510 532
f 510 523 532
f 619 618 617
f 617 614 619
f 610 614 617
f 518 502 528
f 519 502 518
f 528 530 518
f 530 520 518
f 520 527 524
f 533 519 524
f 519 518 524
f 524 518 520
f 872 614 698
f 698 699 872
f 878 881 872
f 872 699 878
f 847 881 878
f 605 859 607
f 592 859 605
f 607 913 605
f 605 913 601
f 583 592 605
f 605 601 583
f 567 601 912
f 601 913 912
f 912 909 567
f 912 913 909
f 907 909 910
f 909 913 910
f 910 905 907
f 873 987 874
f 873 988 987
f 873 874 800
f 800 806 873
f 970 988 873
f 873 736 970
f 806 736 873
f 919 918 925
f 591 590 577
f 577 590 576
f 600 576 658
f 658 613 600
f 658 576 554
f 600 613 616
f 613 494 616
f 646 156 648
f 648 649 646
f 669 156 171
f 669 663 665
f 171 663 669
f 665 668 669
f 669 668 648
f 648 156 669
f 648 668 670
f 670 652 648
f 670 662 652
f 670 668 665
f 660 945 431
f 431 432 429
f 654 659 656
f 660 431 656
f 642 660 656
f 656 659 642
f 642 659 640
f 946 642 640
f 640 639 946
f 638 639 640
f 640 637 638
f 676 637 640
f 640 659 676
f 953 585 586
f 586 585 584
f 593 624 602
f 396 86 425
f 86 424 425
f 425 427 396
f 419 195 194
f 194 195 190
f 194 446 419
f 441 446 194
f 395 441 194
f 276 270 269
f 269 277 276
f 385 277 269
f 270 226 269
f 204 203 202
f 204 195 205
f 205 203 204
f 967 982 950
f 950 927 967
f 950 982 986
f 950 948 947
f 925 978 917
f 968 927 966
f 966 927 965
f 969 968 966
f 966 965 969
f 458 459 462
f 976 484 485
f 458 462 485
f 947 948 485
f 485 462 947
f 485 484 458
f 975 904 974
f 985 979 986
f 986 982 985
f 752 892 985
f 843 695 882
f 882 795 843
f 837 834 843
f 843 795 837
f 837 795 836
f 248 239 365
f 365 369 248
f 365 239 336
f 887 891 890
f 934 905 922
f 922 937 934
f 905 910 922
f 471 937 959
f 959 922 960
f 937 922 959
f 936 935 471
f 471 957 936
f 936 934 935
f 962 934 936
f 954 953 931
f 954 585 953
f 638 585 954
f 946 639 954
f 954 639 638
f 215 226 211
f 215 203 385
f 385 269 215
f 215 269 226
f 362 214 235
f 209 226 219
f 211 226 209
f 210 211 209
f 212 311 210
f 210 209 212
f 212 209 224
f 255 256 352
f 279 450 478
f 478 450 451
f 770 727 775
f 727 802 775
f 838 842 789
f 789 851 838
f 789 842 840
f 785 789 840
f 767 789 785
f 768 785 790
f 767 785 768
f 869 795 787
f 914 884 916
f 914 867 884
f 914 913 607
f 607 867 914
f 845 849 846
f 845 876 849
f 845 846 838
f 838 851 845
f 970 736 738
f 738 978 970
f 965 917 738
f 738 917 978
f 690 728 723
f 723 728 727
f 799 882 691
f 691 882 695
f 695 706 691
f 765 690 731
f 234 232 233
f 233 377 234
f 359 356 357
f 364 356 359
f 359 250 252
f 263 264 262
f 384 264 263
f 262 386 263
f 386 371 263
f 355 356 364
f 355 264 316
f 316 356 355
f 682 901 683
f 900 381 382
f 900 901 682
f 382 386 900
f 386 901 900
f 530 513 521
f 98 653 101
f 101 99 98
f 102 99 101
f 171 165 101
f 101 165 102
f 101 663 171
f 101 653 663
f 671 653 655
f 671 655 509
f 509 667 671
f 671 667 543
f 543 653 671
f 665 663 666
f 663 545 666
f 666 546 665
f 666 545 544
f 544 546 666
f 44 72 65
f 44 119 72
f 44 65 66
f 66 36 44
f 36 119 44
f 61 73 399
f 65 73 61
f 399 400 61
f 66 65 61
f 61 40 66
f 55 56 57
f 50 54 52
f 68 69 67
f 67 14 77
f 77 68 67
f 74 14 67
f 13 2 22
f 22 201 13
f 14 2 13
f 77 14 13
f 107 140 183
f 107 134 140
f 107 100 104
f 183 509 651
f 509 655 651
f 651 107 183
f 100 107 651
f 651 655 98
f 98 100 651
f 108 141 148
f 148 92 144
f 148 141 92
f 103 107 104
f 180 126 162
f 162 111 121
f 126 111 162
f 1 2 3
f 3 2 74
f 74 54 3
f 8 7 81
f 7 15 81
f 11 4 6
f 11 6 16
f 11 17 8
f 16 17 11
f 96 6 5
f 6 4 5
f 94 168 5
f 76 79 80
f 79 56 80
f 80 55 85
f 56 55 80
f 94 5 49
f 49 4 50
f 49 5 4
f 82 118 83
f 82 56 79
f 83 56 82
f 82 79 121
f 121 118 82
f 178 25 26
f 109 25 178
f 178 118 109
f 178 168 118
f 110 126 112
f 112 126 182
f 112 90 27
f 112 182 144
f 144 90 112
f 112 27 109
f 109 110 112
f 33 37 16
f 16 34 33
f 36 37 33
f 33 41 36
f 33 42 41
f 33 34 32
f 32 42 33
f 119 41 43
f 41 42 43
f 43 42 174
f 186 185 216
f 268 271 216
f 216 271 186
f 213 221 198
f 198 221 208
f 387 197 207
f 208 216 207
f 207 198 208
f 197 198 207
f 207 185 387
f 207 216 185
f 383 307 68
f 387 307 383
f 383 197 387
f 383 68 77
f 274 281 273
f 186 271 274
f 274 271 281
f 218 185 187
f 187 185 186
f 227 228 350
f 374 371 375
f 382 381 375
f 370 371 374
f 374 169 370
f 267 323 278
f 284 289 278
f 628 500 489
f 628 501 500
f 636 632 497
f 665 546 673
f 673 670 665
f 662 670 673
f 514 540 508
f 508 664 514
f 508 539 538
f 540 539 508
f 538 667 508
f 508 667 509
f 509 664 508
f 636 631 574
f 574 514 564
f 564 575 574
f 574 632 636
f 575 632 574
f 681 683 714
f 682 683 681
f 604 612 615
f 604 644 612
f 512 633 627
f 615 612 608
f 612 688 687
f 688 681 687
f 615 582 570
f 575 582 588
f 588 582 615
f 622 627 588
f 615 608 588
f 588 608 622
f 430 432 439
f 422 411 420
f 422 464 421
f 420 464 422
f 421 405 404
f 404 405 406
f 404 422 421
f 411 422 404
f 404 406 410
f 410 411 404
f 972 358 481
f 972 481 974
f 974 904 972
f 458 484 457
f 457 484 479
f 479 480 477
f 354 349 477
f 477 480 354
f 477 457 479
f 451 457 477
f 474 475 473
f 473 475 476
f 473 466 474
f 473 476 472
f 472 466 473
f 453 454 452
f 453 452 443
f 443 444 453
f 453 444 476
f 453 476 460
f 192 242 199
f 18 2 1
f 22 2 18
f 1 81 18
f 18 81 15
f 35 60 45
f 45 29 35
f 390 51 45
f 45 60 390
f 51 31 45
f 31 29 45
f 403 406 407
f 406 405 407
f 407 405 408
f 392 403 407
f 407 391 392
f 408 391 407
f 421 464 465
f 464 466 465
f 466 414 465
f 414 423 465
f 409 423 415
f 409 405 421
f 421 465 409
f 409 465 423
f 409 415 408
f 408 405 409
f 526 589 542
f 583 534 542
f 542 589 583
f 623 589 526
f 618 626 623
f 626 589 623
f 534 532 525
f 526 542 525
f 525 542 534
f 525 532 523
f 559 553 531
f 486 510 496
f 486 523 510
f 504 553 547
f 541 527 895
f 533 524 541
f 541 524 527
f 541 614 533
f 541 698 614
f 717 842 847
f 847 878 717
f 717 878 699
f 924 920 960
f 960 923 924
f 924 923 916
f 916 918 924
f 918 919 924
f 924 919 920
f 921 910 913
f 921 922 910
f 921 923 960
f 960 922 921
f 461 475 964
f 964 475 470
f 963 470 471
f 963 939 470
f 471 959 938
f 938 963 471
f 939 963 938
f 554 576 650
f 576 590 650
f 650 555 554
f 672 555 650
f 650 590 672
f 593 584 580
f 580 585 638
f 584 585 580
f 596 624 593
f 555 539 558
f 558 539 556
f 556 631 561
f 561 558 556
f 566 558 561
f 613 658 581
f 581 658 554
f 581 558 566
f 554 555 581
f 555 558 581
f 489 504 490
f 600 616 620
f 620 616 551
f 620 487 624
f 163 646 649
f 163 649 654
f 163 164 160
f 654 656 163
f 163 656 164
f 164 656 657
f 657 656 431
f 429 164 657
f 657 431 429
f 931 953 932
f 953 586 932
f 932 930 931
f 503 930 932
f 426 424 429
f 426 425 424
f 429 430 426
f 427 425 426
f 426 428 427
f 199 184 206
f 206 184 394
f 986 948 911
f 911 950 986
f 948 950 911
f 965 927 928
f 928 917 965
f 925 917 928
f 928 919 925
f 928 926 919
f 927 950 928
f 974 976 980
f 980 948 979
f 980 485 948
f 983 985 982
f 983 982 967
f 983 981 752
f 752 985 983
f 983 967 969
f 969 981 983
f 746 706 890
f 890 891 746
f 891 752 746
f 752 745 746
f 238 239 240
f 830 837 836
f 834 837 830
f 365 336 328
f 328 340 365
f 320 258 328
f 328 258 340
f 322 353 273
f 904 975 888
f 865 887 885
f 885 864 865
f 885 887 890
f 695 864 885
f 890 706 885
f 885 706 695
f 863 695 843
f 863 864 695
f 856 903 858
f 931 962 933
f 962 936 933
f 933 954 931
f 933 936 957
f 432 431 944
f 944 431 945
f 944 945 660
f 944 642 946
f 944 660 642
f 203 215 376
f 202 203 376
f 211 214 376
f 376 215 211
f 376 362 202
f 214 362 376
f 242 192 241
f 202 362 241
f 224 209 225
f 225 209 219
f 219 229 225
f 260 258 259
f 259 229 260
f 259 258 320
f 301 287 329
f 329 337 301
f 283 287 281
f 281 271 283
f 856 848 855
f 290 285 279
f 279 478 290
f 339 260 261
f 261 286 339
f 261 229 219
f 260 229 261
f 339 286 341
f 341 343 339
f 345 343 341
f 344 345 341
f 341 286 285
f 341 290 344
f 285 290 341
f 770 775 797
f 851 789 797
f 689 696 722
f 790 785 722
f 722 696 811
f 771 715 712
f 771 768 715
f 770 767 766
f 767 768 766
f 768 771 766
f 796 787 795
f 796 882 799
f 795 882 796
f 799 786 796
f 796 786 787
f 783 768 790
f 715 768 783
f 712 715 713
f 713 708 712
f 772 786 803
f 787 786 772
f 916 923 915
f 915 914 916
f 913 914 915
f 915 921 913
f 923 921 915
f 969 965 973
f 965 738 973
f 690 691 705
f 705 691 706
f 705 731 690
f 745 731 705
f 705 746 745
f 706 746 705
f 690 723 700
f 700 691 690
f 712 708 700
f 700 723 712
f 700 708 799
f 799 691 700
f 732 745 752
f 732 731 745
f 752 981 732
f 732 981 969
f 969 973 732
f 815 379 377
f 377 233 815
f 332 250 357
f 357 250 361
f 361 359 357
f 250 359 361
f 372 384 373
f 384 263 373
f 373 371 372
f 373 263 371
f 264 355 366
f 366 355 364
f 364 243 366
f 759 755 758
f 753 755 759
f 781 759 758
f 883 879 763
f 252 377 244
f 244 359 252
f 377 379 244
f 379 243 244
f 364 359 244
f 244 243 364
f 535 521 517
f 517 735 535
f 530 521 535
f 535 520 530
f 749 748 807
f 749 730 724
f 88 90 92
f 158 119 120
f 119 43 120
f 120 43 91
f 145 146 147
f 145 120 91
f 147 158 145
f 158 120 145
f 312 310 218
f 292 167 166
f 292 166 130
f 85 55 130
f 130 166 85
f 50 52 48
f 48 49 50
f 57 94 48
f 94 49 48
f 71 130 55
f 189 13 201
f 77 13 189
f 189 383 77
f 197 383 189
f 38 31 46
f 134 107 106
f 107 103 106
f 105 104 108
f 105 103 104
f 108 148 105
f 182 103 105
f 144 182 105
f 105 148 144
f 84 162 121
f 84 79 76
f 121 79 84
f 76 75 84
f 75 114 84
f 180 162 116
f 114 117 116
f 116 84 114
f 162 84 116
f 113 114 115
f 113 117 114
f 326 228 227
f 76 80 62
f 62 80 85
f 62 75 76
f 63 167 323
f 63 166 167
f 64 62 63
f 85 166 63
f 63 62 85
f 115 75 127
f 75 62 127
f 127 62 64
f 127 169 115
f 127 272 169
f 58 81 1
f 1 3 58
f 58 3 54
f 58 54 50
f 50 4 58
f 78 11 8
f 4 11 78
f 8 81 78
f 78 58 4
f 81 58 78
f 96 5 93
f 93 5 168
f 168 178 93
f 93 178 26
f 93 32 96
f 26 32 93
f 208 221 257
f 257 216 208
f 235 311 257
f 257 311 268
f 268 216 257
f 235 257 236
f 236 257 221
f 236 221 213
f 222 187 188
f 273 222 188
f 188 274 273
f 186 274 188
f 188 187 186
f 291 284 227
f 227 350 291
f 291 289 284
f 348 350 228
f 348 222 353
f 374 375 173
f 378 371 382
f 382 375 378
f 378 375 371
f 169 272 280
f 280 370 169
f 280 272 267
f 267 278 280
f 371 370 280
f 501 628 491
f 672 590 661
f 661 546 672
f 661 673 546
f 661 590 591
f 591 662 661
f 662 673 661
f 631 540 548
f 548 574 631
f 548 540 514
f 514 574 548
f 678 674 677
f 645 674 678
f 647 645 678
f 678 505 647
f 677 674 675
f 137 645 140
f 137 674 645
f 682 681 899
f 899 681 688
f 899 688 643
f 899 900 682
f 643 381 899
f 381 900 899
f 621 627 622
f 564 505 563
f 505 678 563
f 563 678 677
f 644 604 597
f 597 570 644
f 597 604 615
f 615 570 597
f 498 632 575
f 575 588 498
f 499 497 498
f 498 497 632
f 498 588 627
f 952 958 949
f 958 439 949
f 949 439 432
f 436 958 440
f 436 439 958
f 436 440 435
f 435 428 436
f 428 426 436
f 430 439 436
f 436 426 430
f 433 411 410
f 427 428 433
f 433 398 427
f 410 400 433
f 433 400 398
f 438 437 463
f 463 420 438
f 971 972 904
f 352 358 971
f 358 972 971
f 455 457 451
f 455 451 449
f 449 454 455
f 458 457 455
f 482 478 451
f 451 477 482
f 482 290 478
f 344 290 482
f 482 349 344
f 482 477 349
f 21 61 400
f 40 61 21
f 21 30 20
f 21 37 40
f 20 19 21
f 19 37 21
f 397 400 402
f 20 30 397
f 397 21 400
f 30 21 397
f 402 401 397
f 397 23 20
f 397 401 23
f 565 623 526
f 624 487 625
f 487 515 488
f 488 625 487
f 486 625 488
f 523 486 488
f 551 547 552
f 552 515 487
f 552 620 551
f 487 620 552
f 557 565 515
f 559 565 557
f 515 552 557
f 557 552 547
f 553 559 557
f 557 547 553
f 699 698 897
f 698 541 897
f 897 541 895
f 807 748 757
f 757 811 807
f 842 717 729
f 692 717 699
f 699 897 692
f 920 919 929
f 919 926 929
f 939 938 929
f 943 459 461
f 947 462 943
f 943 462 459
f 961 959 960
f 961 938 959
f 960 920 961
f 920 929 961
f 961 929 938
f 593 580 578
f 578 596 593
f 566 561 568
f 573 490 494
f 573 628 489
f 489 490 573
f 495 616 494
f 494 490 495
f 551 616 495
f 495 547 551
f 504 547 495
f 495 490 504
f 624 596 606
f 606 620 624
f 155 163 160
f 646 163 155
f 160 151 155
f 155 151 152
f 152 156 155
f 156 646 155
f 595 932 586
f 503 932 595
f 595 584 593
f 595 586 584
f 193 194 190
f 395 194 193
f 394 395 193
f 193 206 394
f 956 928 950
f 926 928 956
f 956 950 947
f 947 943 956
f 976 485 977
f 977 980 976
f 485 980 977
f 984 985 892
f 984 975 974
f 974 980 984
f 979 985 984
f 984 980 979
f 238 240 360
f 360 240 810
f 360 232 238
f 245 240 239
f 245 248 247
f 239 248 245
f 809 233 232
f 810 812 809
f 809 815 233
f 232 360 809
f 809 360 810
f 827 812 810
f 824 848 833
f 824 833 834
f 834 830 824
f 830 827 824
f 810 240 824
f 824 827 810
f 238 232 330
f 254 313 330
f 234 254 330
f 330 232 234
f 320 328 327
f 327 328 336
f 302 313 254
f 302 254 252
f 904 888 866
f 866 971 904
f 903 971 866
f 865 858 866
f 866 858 903
f 866 887 865
f 866 888 887
f 889 888 975
f 889 984 892
f 975 984 889
f 889 892 891
f 891 887 889
f 887 888 889
f 834 833 852
f 833 848 852
f 955 957 952
f 955 933 957
f 954 933 955
f 202 241 191
f 191 241 192
f 191 192 190
f 190 195 191
f 191 204 202
f 195 204 191
f 320 327 319
f 346 337 224
f 224 225 346
f 346 225 229
f 229 259 346
f 287 301 321
f 281 287 321
f 273 281 321
f 321 322 273
f 329 287 288
f 287 283 288
f 288 212 224
f 288 337 329
f 224 337 288
f 300 271 268
f 300 283 271
f 268 311 300
f 311 212 300
f 212 288 300
f 300 288 283
f 902 855 255
f 902 971 903
f 902 903 856
f 856 855 902
f 902 255 352
f 352 971 902
f 256 255 368
f 255 855 368
f 368 248 369
f 347 256 368
f 368 369 347
f 219 226 230
f 230 261 219
f 286 261 265
f 270 285 265
f 285 286 265
f 261 230 265
f 265 226 270
f 265 230 226
f 800 876 877
f 877 845 851
f 876 845 877
f 792 767 770
f 770 797 792
f 792 789 767
f 792 797 789
f 801 775 802
f 801 797 775
f 801 802 800
f 800 877 801
f 851 797 801
f 801 877 851
f 680 696 689
f 712 723 725
f 725 771 712
f 725 723 727
f 725 727 770
f 770 766 725
f 725 766 771
f 822 783 790
f 790 722 822
f 822 722 811
f 805 783 821
f 811 757 821
f 821 822 811
f 783 822 821
f 784 713 715
f 715 783 784
f 784 783 805
f 803 786 793
f 793 784 803
f 713 784 793
f 793 786 799
f 799 708 793
f 708 713 793
f 782 243 379
f 825 774 831
f 828 774 825
f 734 732 973
f 765 731 734
f 731 732 734
f 726 765 734
f 734 736 726
f 734 738 736
f 734 973 738
f 264 366 367
f 753 759 777
f 777 686 753
f 832 781 778
f 759 781 832
f 778 777 832
f 832 777 759
f 744 788 778
f 685 703 704
f 704 686 685
f 883 686 704
f 704 879 883
f 880 879 704
f 724 730 720
f 720 685 724
f 720 703 685
f 685 686 684
f 778 788 684
f 684 777 778
f 686 777 684
f 724 685 684
f 684 788 724
f 751 686 883
f 883 763 751
f 753 686 751
f 751 747 753
f 714 747 751
f 754 755 753
f 753 747 754
f 894 760 764
f 895 527 893
f 893 527 520
f 893 894 895
f 760 894 893
f 880 704 740
f 27 90 89
f 90 88 89
f 89 174 27
f 89 43 174
f 91 43 89
f 89 88 91
f 91 88 95
f 95 145 91
f 142 153 95
f 153 146 95
f 146 145 95
f 95 92 142
f 95 88 92
f 217 187 222
f 228 312 217
f 218 187 217
f 217 312 218
f 222 348 217
f 217 348 228
f 292 130 136
f 136 307 292
f 136 71 69
f 130 71 136
f 136 69 68
f 68 307 136
f 70 71 52
f 74 67 70
f 70 67 69
f 69 71 70
f 70 54 74
f 70 52 54
f 59 48 52
f 52 71 59
f 57 48 59
f 59 55 57
f 59 71 55
f 196 189 201
f 213 198 196
f 196 198 197
f 197 189 196
f 196 220 213
f 201 220 196
f 39 220 201
f 231 220 39
f 39 201 22
f 237 220 231
f 199 242 237
f 242 236 237
f 213 220 237
f 237 236 213
f 22 18 28
f 28 39 22
f 38 39 28
f 31 38 28
f 47 38 46
f 46 184 47
f 184 231 47
f 231 39 47
f 47 39 38
f 180 116 125
f 125 116 117
f 139 675 674
f 325 278 323
f 325 326 227
f 227 284 325
f 284 278 325
f 297 167 292
f 323 167 297
f 297 325 323
f 326 325 297
f 143 127 64
f 143 323 267
f 267 272 143
f 272 127 143
f 143 63 323
f 64 63 143
f 235 236 363
f 363 236 242
f 242 241 363
f 363 362 235
f 363 241 362
f 289 291 293
f 316 384 293
f 293 384 372
f 298 291 350
f 374 173 172
f 380 375 381
f 380 173 375
f 380 381 643
f 643 177 380
f 282 278 289
f 282 280 278
f 289 293 282
f 371 280 282
f 372 371 282
f 282 293 372
f 513 501 507
f 501 491 507
f 499 513 507
f 507 497 499
f 492 561 631
f 492 631 636
f 677 675 598
f 641 177 643
f 643 644 641
f 641 598 675
f 512 627 635
f 627 621 635
f 635 621 733
f 711 681 714
f 711 687 681
f 612 687 611
f 611 621 622
f 611 608 612
f 622 608 611
f 733 621 710
f 687 711 710
f 710 611 687
f 621 611 710
f 564 563 571
f 571 575 564
f 571 582 575
f 571 570 582
f 634 627 633
f 634 498 627
f 634 633 499
f 499 498 634
f 411 433 434
f 434 433 428
f 420 411 434
f 434 438 420
f 434 428 435
f 435 437 434
f 437 438 434
f 456 459 458
f 458 455 456
f 460 459 456
f 456 455 454
f 456 453 460
f 454 453 456
f 522 565 526
f 515 565 522
f 526 525 522
f 522 525 523
f 523 488 522
f 522 488 515
f 618 623 609
f 623 565 609
f 609 617 618
f 609 565 559
f 610 617 609
f 531 610 609
f 609 559 531
f 629 602 624
f 624 625 629
f 496 503 629
f 503 602 629
f 629 486 496
f 629 625 486
f 707 680 689
f 679 680 707
f 689 692 707
f 707 692 897
f 840 842 841
f 842 729 841
f 716 729 717
f 717 692 716
f 716 692 689
f 769 898 679
f 769 894 764
f 679 894 769
f 730 898 769
f 769 720 730
f 470 939 940
f 940 964 470
f 577 578 579
f 579 578 580
f 591 577 579
f 579 637 591
f 638 637 579
f 579 580 638
f 594 577 576
f 594 578 577
f 594 576 600
f 596 578 594
f 594 606 596
f 600 620 594
f 620 606 594
f 566 568 587
f 587 581 566
f 587 573 494
f 568 573 587
f 587 494 613
f 613 581 587
f 569 568 561
f 569 573 568
f 561 492 569
f 569 492 491
f 569 491 628
f 628 573 569
f 593 602 603
f 603 595 593
f 603 602 503
f 503 595 603
f 251 193 190
f 206 193 251
f 199 206 251
f 190 192 251
f 251 192 199
f 941 929 926
f 926 956 941
f 939 929 941
f 941 940 939
f 836 828 829
f 829 830 836
f 829 827 830
f 240 245 246
f 246 824 240
f 246 245 247
f 247 848 246
f 848 824 246
f 331 239 238
f 238 330 331
f 331 336 239
f 331 330 313
f 308 319 315
f 315 319 327
f 250 332 253
f 252 250 253
f 253 302 252
f 844 863 843
f 844 852 863
f 843 834 844
f 834 852 844
f 864 863 854
f 863 852 854
f 951 955 952
f 954 955 951
f 952 949 951
f 946 954 951
f 951 944 946
f 432 944 951
f 951 949 432
f 305 319 308
f 305 301 337
f 305 335 301
f 318 346 259
f 318 259 320
f 320 319 318
f 337 346 318
f 318 305 337
f 319 305 318
f 249 368 855
f 249 848 247
f 249 855 848
f 247 248 249
f 248 368 249
f 808 898 730
f 808 749 807
f 730 749 808
f 807 811 808
f 805 821 804
f 804 821 757
f 803 784 804
f 804 784 805
f 772 774 791
f 869 787 791
f 787 772 791
f 779 782 798
f 826 825 831
f 815 809 813
f 776 366 243
f 776 367 366
f 779 367 776
f 776 782 779
f 243 782 776
f 778 781 780
f 780 744 778
f 788 744 750
f 748 749 750
f 724 788 750
f 750 749 724
f 702 901 262
f 694 747 714
f 694 754 747
f 714 683 694
f 266 367 779
f 262 264 266
f 264 367 266
f 719 266 779
f 536 893 520
f 520 535 536
f 536 535 735
f 760 893 536
f 735 740 536
f 536 740 760
f 764 760 709
f 760 740 709
f 703 720 709
f 709 704 703
f 709 740 704
f 709 769 764
f 720 769 709
f 199 237 200
f 200 237 231
f 200 184 199
f 200 231 184
f 31 28 24
f 24 28 18
f 15 31 24
f 24 18 15
f 180 125 181
f 181 182 180
f 181 103 182
f 181 106 103
f 181 125 106
f 123 125 117
f 106 125 123
f 179 641 675
f 674 137 138
f 138 139 674
f 299 297 292
f 326 297 299
f 292 310 299
f 310 312 299
f 299 312 228
f 228 326 299
f 342 298 350
f 342 348 353
f 350 348 342
f 298 342 309
f 294 293 291
f 291 298 294
f 298 309 294
f 316 293 294
f 176 172 173
f 176 380 177
f 173 380 176
f 131 124 129
f 129 124 113
f 497 507 493
f 493 507 491
f 491 492 493
f 636 497 493
f 493 492 636
f 677 598 572
f 572 563 677
f 570 571 572
f 572 571 563
f 598 641 599
f 570 572 599
f 599 572 598
f 644 570 599
f 599 641 644
f 512 635 516
f 517 521 516
f 516 513 512
f 516 521 513
f 880 740 741
f 741 735 517
f 741 740 735
f 895 894 896
f 896 897 895
f 896 707 897
f 896 894 679
f 679 707 896
f 761 772 803
f 743 757 748
f 748 750 743
f 744 742 743
f 743 750 744
f 718 785 840
f 840 841 718
f 718 722 785
f 718 841 729
f 729 716 718
f 689 722 718
f 718 716 689
f 964 940 942
f 461 964 942
f 942 943 461
f 940 941 942
f 942 956 943
f 942 941 956
f 812 827 823
f 827 829 823
f 823 829 828
f 317 331 313
f 313 315 317
f 317 315 327
f 317 327 336
f 336 331 317
f 302 253 303
f 303 335 302
f 303 253 332
f 332 338 303
f 353 322 334
f 302 335 304
f 313 302 304
f 304 305 308
f 335 305 304
f 308 315 304
f 304 315 313
f 864 854 857
f 865 864 857
f 857 858 865
f 856 858 857
f 696 680 697
f 811 696 697
f 697 808 811
f 697 680 679
f 679 898 697
f 898 808 697
f 839 774 828
f 839 791 774
f 869 791 839
f 836 869 839
f 839 828 836
f 721 798 758
f 779 798 721
f 721 719 779
f 758 755 721
f 755 754 721
f 754 719 721
f 758 798 835
f 835 781 758
f 835 780 781
f 379 815 814
f 815 813 814
f 754 694 701
f 701 719 754
f 266 719 701
f 701 702 262
f 262 266 701
f 122 123 117
f 117 113 122
f 113 124 122
f 122 124 131
f 131 123 122
f 134 106 133
f 106 123 133
f 133 123 131
f 135 137 140
f 135 138 137
f 140 134 135
f 134 133 135
f 357 356 314
f 314 356 316
f 316 294 314
f 314 294 309
f 175 176 177
f 175 139 131
f 177 641 175
f 641 179 175
f 675 139 175
f 175 179 675
f 172 176 170
f 170 129 172
f 131 129 170
f 170 175 131
f 176 175 170
f 128 129 113
f 115 169 128
f 128 113 115
f 172 129 128
f 128 169 374
f 374 172 128
f 871 516 635
f 517 516 871
f 871 741 517
f 739 763 879
f 739 711 714
f 714 751 739
f 739 751 763
f 773 742 831
f 773 761 742
f 831 774 773
f 773 774 772
f 772 761 773
f 762 804 757
f 803 804 762
f 762 761 803
f 742 761 756
f 756 743 742
f 761 762 756
f 757 743 756
f 756 762 757
f 817 813 809
f 817 809 812
f 812 823 817
f 817 823 828
f 335 303 295
f 295 303 338
f 295 334 322
f 338 334 295
f 333 342 353
f 353 334 333
f 324 314 309
f 324 334 338
f 309 333 324
f 324 333 334
f 324 338 332
f 324 332 357
f 357 314 324
f 853 854 852
f 853 857 854
f 856 857 853
f 853 848 856
f 853 852 848
f 860 798 816
f 860 835 798
f 860 826 831
f 780 835 794
f 794 742 744
f 744 780 794
f 831 742 794
f 794 860 831
f 835 860 794
f 825 826 820
f 702 701 693
f 693 701 694
f 693 694 683
f 693 683 901
f 901 702 693
f 139 138 132
f 138 135 132
f 132 135 133
f 131 139 132
f 132 133 131
f 733 710 870
f 870 635 733
f 870 871 635
f 711 739 870
f 880 741 870
f 741 871 870
f 870 879 880
f 870 739 879
f 301 335 296
f 335 295 296
f 296 321 301
f 322 321 296
f 296 295 322
f 306 309 342
f 342 333 306
f 306 333 309
f 818 820 826
f 818 860 816
f 826 860 818
f 814 820 818
f 379 814 818
f 816 798 818
f 818 798 782
f 818 782 379
f 819 814 813
f 819 820 814
f 813 817 819
f 825 820 819
f 828 825 819
f 819 817 828
f 737 710 711
f 711 870 737
f 737 870 710

