# https://github.com/mikedh/trimesh
v -0.00291400 -0.02294700 0.00066600
v -0.01013000 -0.02130000 0.00118400
v 0.00299600 -0.02339400 0.00004700
v 0.00742500 -0.01858000 -0.00030200
v -0.02418300 -0.01359400 0.00568300
v -0.02195500 -0.01504200 0.00379900
v -0.02464900 -0.01653900 0.00766700
v -0.02215000 -0.01872300 0.00610400
v -0.00804900 -0.03586000 0.01600300
v -0.00793300 -0.03457800 0.01321500
v -0.00299400 -0.03645900 0.01492200
v 0.00020700 -0.03442200 0.01003700
v -0.00010300 -0.03612200 0.01339500
v -0.00504200 -0.03458000 0.01164900
v -0.01110300 -0.03440700 0.01534800
v -0.00268000 -0.04036300 0.02893400
v -0.00466500 -0.04034800 0.03108900
v -0.00901300 -0.03908700 0.02938800
v -0.00701400 -0.04015200 0.03420700
v -0.00861900 -0.03983800 0.03614700
v -0.02607500 -0.01321200 0.00808400
v -0.02607900 -0.01685900 0.01037900
v 0.00341700 -0.03586400 0.01275800
v -0.01074000 -0.03760700 0.02422500
v -0.01382300 -0.03626900 0.02417500
v -0.01391500 -0.03477800 0.01955300
v -0.01659400 -0.03420700 0.02237500
v -0.01013600 -0.03654300 0.01983800
v 0.00138000 -0.03718500 0.01566400
v -0.00235400 -0.03823100 0.01916800
v 0.00063300 -0.03815200 0.01827300
v -0.01243000 -0.02187200 0.00176000
v -0.01566100 -0.01805800 0.00109700
v -0.01222300 -0.02388800 0.00275300
v -0.01643000 -0.01881800 0.00161200
v -0.02276300 -0.00704000 0.00292800
v -0.02381000 -0.00303100 0.00368400
v -0.02125500 -0.00269300 0.00206000
v -0.02434500 -0.00999600 0.00481800
v -0.02501400 -0.00494400 0.00493900
v -0.02607100 -0.00785400 0.00654400
v -0.00589600 -0.03903000 0.02435800
v -0.00127200 -0.03988700 0.02498800
v -0.02004500 -0.01853500 0.00379400
v -0.01775400 -0.02148900 0.00392000
v -0.01882300 -0.02196800 0.00506500
v -0.02248200 -0.03236300 0.03212400
v -0.02072900 -0.03276400 0.02759600
v -0.01837300 -0.03496900 0.03021300
v -0.02037500 -0.02185200 0.00661300
v -0.02298700 -0.02144200 0.00959400
v -0.00654300 -0.02351100 0.00130800
v -0.00180500 -0.02545900 0.00125100
v -0.00822900 -0.02584400 0.00270400
v -0.02681800 -0.00506400 0.00705600
v -0.02566500 -0.00275400 0.00549800
v -0.00910400 -0.02437700 0.00216400
v -0.01804300 -0.01870400 0.00233800
v -0.02000900 -0.01626300 0.00277700
v -0.01958000 -0.03295400 0.02520500
v -0.02314100 -0.02911900 0.02302200
v -0.02559600 -0.02815600 0.02777700
v -0.01799900 -0.01447100 0.00106200
v -0.02530200 -0.02462000 0.01875400
v -0.02569200 -0.02683700 0.02480400
v -0.01569300 -0.01505400 0.00061400
v -0.02001800 -0.01356000 0.00180600
v -0.02729400 -0.01486900 0.01140600
v -0.02953700 -0.01098700 0.01386600
v -0.02808000 -0.00938400 0.00996800
v -0.02988700 -0.00798800 0.01314800
v -0.03056800 -0.01193300 0.01714300
v -0.02795600 -0.02433000 0.02597800
v -0.02186700 -0.01097000 0.00268900
v -0.01504900 -0.02329500 0.00359500
v -0.03130900 -0.00897500 0.01715900
v -0.02071000 -0.00914100 0.00174700
v -0.01859200 -0.01166400 0.00099600
v -0.02911600 -0.00443000 0.01075100
v -0.02486500 -0.02957700 0.03010600
v -0.02636400 -0.00090900 0.00666400
v -0.02862900 -0.00188700 0.00989400
v -0.02103700 -0.03416200 0.03613500
v -0.01656600 -0.03666400 0.03385200
v -0.03039100 -0.00430000 0.01348500
v -0.02507700 -0.03054000 0.03528700
v -0.02327300 -0.03295600 0.04245600
v 0.00141700 -0.02659600 0.00149000
v -0.03091600 -0.00129900 0.01476600
v -0.02129400 -0.03429100 0.03915700
v -0.02732700 -0.02743500 0.03252300
v -0.02957000 -0.02083700 0.02463000
v -0.02892000 -0.02515200 0.03214100
v -0.02994600 -0.01829900 0.02215900
v -0.02916100 -0.01802300 0.01931000
v -0.02906000 -0.02608600 0.03606400
v 0.00613100 -0.02699100 0.00166400
v 0.00617400 -0.02806100 0.00243500
v 0.00575900 -0.02507800 0.00061200
v -0.02729900 -0.02863700 0.03880300
v 0.00762600 -0.02318000 -0.00009900
v -0.01546600 -0.03605600 0.02659400
v 0.01125300 -0.02361500 0.00052500
v -0.03081700 -0.02150100 0.03072300
v -0.02922100 -0.01629100 0.01741200
v -0.03118800 -0.02244900 0.03575300
v -0.02788100 -0.01643500 0.01402400
v -0.03150300 -0.01469800 0.02270000
v 0.01310900 -0.02054500 -0.00009500
v -0.03151800 -0.01757400 0.02618200
v 0.00985800 -0.02110000 -0.00016100
v -0.03247900 -0.00850800 0.02076100
v -0.01244000 -0.03804300 0.03028600
v -0.01209400 -0.03864100 0.03457800
v -0.01713300 -0.03173800 0.01699600
v -0.01390500 -0.03311100 0.01562200
v -0.03246300 -0.01145400 0.02274300
v -0.01904600 -0.03239300 0.02226800
v -0.03287800 -0.01400400 0.02661200
v -0.02190200 -0.02788600 0.01718700
v -0.01959600 -0.02971900 0.01671600
v -0.02077400 -0.03022300 0.02003900
v 0.01175200 -0.01610900 -0.00032600
v -0.01259300 -0.02588000 0.00449500
v -0.00882000 -0.03987700 0.03885300
v -0.03392100 -0.01337900 0.03080600
v -0.00604100 -0.04050800 0.03740100
v -0.01692500 -0.03676800 0.03696100
v -0.00939100 -0.02759800 0.00442800
v -0.01042100 -0.03034800 0.00786100
v -0.01263000 -0.03879000 0.04040000
v -0.01653400 -0.03711800 0.04163800
v -0.00432900 -0.02827000 0.00337400
v -0.00729400 -0.03062800 0.00663500
v -0.02033600 -0.03499400 0.04352300
v -0.03195200 -0.01981700 0.03256500
v -0.03319700 -0.01660400 0.03224900
v -0.01344100 -0.03019000 0.00989800
v -0.01700100 -0.02771200 0.00986200
v -0.01442200 -0.02712700 0.00684600
v -0.00585200 -0.03725200 0.01822500
v -0.00788000 -0.03785100 0.02167700
v -0.01436300 -0.03799800 0.04440900
v -0.00725600 -0.04017200 0.04182900
v -0.01013500 -0.03934900 0.04431100
v -0.02149900 -0.02632100 0.01385700
v -0.02482100 -0.02284800 0.01498500
v -0.02374700 -0.02266700 0.01255300
v -0.01988000 -0.02490700 0.00950500
v -0.00836100 -0.03285000 0.01018500
v -0.01118900 -0.03274500 0.01203300
v -0.03461800 -0.00886300 0.02968000
v -0.03461100 -0.00615400 0.02763200
v -0.03364200 -0.01200500 0.02783800
v -0.01597400 -0.03056100 0.01311000
v -0.02561700 -0.01952400 0.01215700
v -0.03258000 0.00335200 0.02043900
v -0.03021800 0.00202700 0.01405200
v -0.03337600 -0.00055200 0.02163300
v -0.03358600 0.00441500 0.02418400
v -0.01766000 -0.02384200 0.00591400
v -0.02712900 -0.01970700 0.01585400
v -0.02335100 -0.02574500 0.01622800
v -0.01858700 -0.02596300 0.00920800
v -0.03175700 -0.00487700 0.01688300
v -0.00241100 -0.03172400 0.00657800
v -0.00541400 -0.03223200 0.00799500
v -0.00344400 -0.03373400 0.00972200
v -0.03354100 -0.00682200 0.02354700
v 0.00183800 -0.03281500 0.00745100
v -0.03337700 -0.00295900 0.02165300
v 0.00473100 -0.03322700 0.00813100
v -0.00227100 -0.02960600 0.00410800
v 0.00003100 -0.03119900 0.00545700
v -0.01893000 -0.02753900 0.01167400
v 0.00153000 -0.02922500 0.00328400
v 0.00388400 -0.02985500 0.00391400
v 0.00368400 -0.03149000 0.00556000
v 0.00730900 -0.02927400 0.00374700
v 0.02717200 -0.02450400 0.01366900
v 0.02794200 -0.02526500 0.01640000
v 0.02254200 -0.02512300 0.00784800
v 0.01904200 -0.02692300 0.00664300
v -0.00178800 -0.04097000 0.04348900
v -0.00349400 -0.04087500 0.04087700
v 0.00137500 -0.04120600 0.03984600
v 0.02033700 -0.02454700 0.00523400
v 0.02297600 -0.02215400 0.00561400
v 0.00100000 -0.04110700 0.04382200
v 0.02536000 -0.02400200 0.01001800
v 0.00162200 -0.04109100 0.04519500
v 0.03012700 -0.02456700 0.02057900
v 0.03199400 -0.02393100 0.02615600
v 0.02934200 -0.02706500 0.02491700
v 0.00513700 -0.03812100 0.01884500
v 0.00185900 -0.03942700 0.02237500
v 0.02263400 -0.02081100 0.00445300
v 0.02577800 -0.01924800 0.00653600
v -0.00167600 -0.04040000 0.04843800
v -0.00663100 -0.03982400 0.04710600
v 0.01145200 -0.03003200 0.00566100
v 0.03035900 -0.02634800 0.02702400
v 0.02669500 -0.02113700 0.00905500
v 0.02287300 -0.02737700 0.01109600
v 0.01234100 -0.02755600 0.00344700
v 0.01183300 -0.02627900 0.00225000
v 0.02654400 -0.03047600 0.02719800
v 0.02944300 -0.02797400 0.02926600
v 0.00592000 -0.04093300 0.04160400
v 0.00559300 -0.04106200 0.03668000
v 0.00854900 -0.04055800 0.03873900
v 0.02888100 -0.02115400 0.01251700
v 0.01508500 -0.02858300 0.00574600
v 0.00693200 -0.04071800 0.03359700
v 0.03004600 -0.02254500 0.01671500
v 0.00959600 -0.04013600 0.03421000
v 0.01361200 -0.03902600 0.03771500
v 0.01135000 -0.03969100 0.03991300
v 0.03188800 -0.02548100 0.03233400
v 0.02085500 -0.03044300 0.01377900
v 0.02240100 -0.02901700 0.01323700
v 0.02504600 -0.02901600 0.01755700
v 0.02283000 -0.03117400 0.01886000
v 0.01573300 -0.02664200 0.00433100
v 0.01727000 -0.02507700 0.00371400
v 0.00905400 -0.04018900 0.04268600
v 0.03252800 -0.02167000 0.02248400
v 0.01220600 -0.03920800 0.04400700
v 0.02787600 -0.02730800 0.02045900
v 0.02567600 -0.03020100 0.02287800
v 0.01718900 -0.03718000 0.04397400
v 0.01732700 -0.03736400 0.03755700
v 0.01560300 -0.02235200 0.00126800
v 0.03407200 -0.02036300 0.02599600
v 0.03440900 -0.02150400 0.03217400
v 0.01546400 -0.03784600 0.04528400
v 0.01975100 -0.03595400 0.04095100
v 0.01631900 -0.01896500 0.00021900
v 0.01827100 -0.02011400 0.00134700
v 0.03256200 -0.01883800 0.01806800
v 0.02990100 -0.02807100 0.03375900
v 0.02784500 -0.03008700 0.03170500
v 0.00793600 -0.04008200 0.04661800
v 0.00363700 -0.04065400 0.04769700
v 0.01991300 -0.02224300 0.00323300
v 0.02045700 -0.02037100 0.00268400
v 0.03065300 -0.02731700 0.03925500
v 0.02911500 -0.02906700 0.03862500
v 0.00633100 -0.03906400 0.02282200
v 0.00086300 -0.04051000 0.02800900
v 0.03335400 -0.02375200 0.03810100
v 0.03386800 -0.02263800 0.03355800
v 0.01954500 -0.03559100 0.04687100
v 0.01748700 -0.03657100 0.04810700
v 0.01344900 -0.03799900 0.04997100
v 0.00761200 -0.03385800 0.00970000
v 0.00359100 -0.04017900 0.02626300
v 0.03609400 -0.01802900 0.03232500
v 0.01043500 -0.03885400 0.05072900
v 0.00776000 -0.03555500 0.01327700
v 0.01110900 -0.03866800 0.02605300
v 0.01087000 -0.03812300 0.02308100
v 0.01298000 -0.03295600 0.01065000
v 0.00870600 -0.03629200 0.01552200
v 0.01819400 -0.03557000 0.05204000
v 0.00810900 -0.03189400 0.00692200
v 0.00706300 -0.03996000 0.02778400
v 0.01076200 -0.03241200 0.00846500
v 0.03581100 -0.01933200 0.03814400
v 0.01042100 -0.03959300 0.03059400
v 0.01595100 -0.03683800 0.02594500
v 0.02431400 -0.03333000 0.03604800
v 0.02201000 -0.03465300 0.04000600
v 0.02042200 -0.03569400 0.03637000
v 0.01364000 -0.03083800 0.00768700
v -0.00059900 -0.04106500 0.03430800
v 0.02589700 -0.03192300 0.04053300
v 0.00314300 -0.04110500 0.03352300
v 0.01552200 -0.03601000 0.02166900
v 0.00347000 -0.04070800 0.02977400
v 0.02029500 -0.03427100 0.02381000
v 0.02174900 -0.03469000 0.04347300
v 0.01315000 -0.03891400 0.03229300
v 0.02549600 -0.03192300 0.04395000
v 0.01737100 -0.03695400 0.03032400
v 0.01705900 -0.02979500 0.00864100
v 0.02748900 -0.03072200 0.03722500
v 0.02139300 -0.03465300 0.02902500
v 0.02276800 -0.03311200 0.02555400
v 0.02849200 -0.02961100 0.04222200
v 0.01798500 -0.03103000 0.01156600
v 0.01449000 -0.03381600 0.01380600
v 0.02426200 -0.03312100 0.03176300
v 0.00564500 -0.03717500 0.01636500
v 0.03207200 -0.02534200 0.04126700
v 0.02969100 -0.02816800 0.04373000
v -0.00332300 -0.04089500 0.03701600
v 0.02166100 -0.03411100 0.04855900
v 0.02136400 -0.03505500 0.03253700
v 0.01152400 -0.03531500 0.01491500
v 0.01606500 -0.03461300 0.01751300
v 0.01037800 -0.03696500 0.01858100
v 0.02535300 -0.03056300 0.05186000
v 0.02769900 -0.02965100 0.04730500
v 0.02905300 -0.02813200 0.04790800
v 0.03188500 -0.02472100 0.04672700
v 0.01877000 -0.03282000 0.01630200
v 0.02978500 -0.02628000 0.05085800
v 0.03282700 -0.02395400 0.04331800
v 0.03521100 -0.02025300 0.04181300
v 0.03403100 -0.02179700 0.04507200
v 0.03747300 -0.01504600 0.03827000
v 0.03761200 -0.01404900 0.03492700
v 0.03710600 -0.01574000 0.04282600
v 0.03589400 -0.01804100 0.04621300
v 0.01931500 -0.02942500 0.01002600
v 0.03174000 -0.02334200 0.05176300
v 0.03408700 -0.02043200 0.04969000
v 0.03727800 -0.01434800 0.04582300
v 0.02455700 -0.02709800 0.01318300
v -0.00613000 0.01235100 0.00030900
v -0.00588400 0.01794100 0.00271300
v -0.00243800 0.01857500 0.00305900
v -0.00347700 0.01774900 0.00255400
v -0.00909100 0.02000800 0.00544200
v -0.00975200 0.01607200 0.00204900
v -0.01278800 0.01847700 0.00493700
v -0.01775000 0.01820400 0.00718300
v -0.01481400 0.01982300 0.00721100
v -0.01621700 0.01679300 0.00504800
v -0.00474000 0.02185500 0.00660800
v -0.01100100 0.02132000 0.00729700
v -0.01446400 0.02177100 0.00934200
v 0.00041200 0.02000700 0.00405400
v -0.02963100 0.00418200 0.01382700
v -0.02753000 0.00197900 0.00900400
v 0.00422800 0.01363200 0.00068700
v -0.02898300 0.00854000 0.01494500
v -0.02674300 0.00648500 0.00973900
v -0.03150800 0.00568300 0.01876900
v 0.00364500 0.01870400 0.00308100
v -0.03008400 0.00852200 0.01724500
v -0.02587300 0.01073800 0.01086100
v 0.00606700 0.01861200 0.00311100
v -0.02706800 0.01203900 0.01380700
v -0.02859000 0.01177900 0.01662700
v -0.01479200 0.00219100 -0.00009000
v -0.03218100 0.00852300 0.02247300
v -0.03025800 0.01149300 0.02021900
v -0.02833100 0.01431100 0.01868900
v -0.01344800 0.00399000 -0.00041200
v 0.00385900 0.02011700 0.00420100
v 0.00086800 0.02207500 0.00640900
v 0.00527900 0.02141200 0.00569100
v 0.00442800 0.01190100 0.00021800
v 0.00958700 0.01014100 0.00004400
v -0.01285300 0.00721300 -0.00016100
v -0.00736900 0.02114400 0.00615900
v -0.02537300 0.00910400 0.00898900
v -0.01077300 0.00982500 0.00019200
v 0.01276400 0.01039500 0.00054700
v -0.00217600 0.02358800 0.00845000
v 0.00897300 0.01286100 0.00045300
v 0.00967000 0.01588600 0.00175000
v -0.02504400 0.01520200 0.01318300
v -0.02203400 0.01688600 0.01034500
v -0.02365000 0.01439300 0.01030600
v -0.00931100 0.02419800 0.01041500
v -0.00622900 0.02359000 0.00896800
v -0.00449800 0.02459900 0.00998100
v 0.01370400 0.01488900 0.00186500
v 0.01390800 0.01605600 0.00238300
v -0.00309100 0.02591500 0.01166100
v -0.02212500 0.01852000 0.01234600
v 0.01040800 0.01786000 0.00290700
v -0.02472900 0.01716300 0.01501500
v -0.02190500 0.02005200 0.01435300
v 0.00128300 0.02368000 0.00842100
v 0.01665700 0.01359000 0.00227000
v -0.01972000 0.01846500 0.00921700
v -0.01648500 0.02135800 0.01011300
v -0.01872300 0.02095500 0.01142600
v 0.00356500 0.02405800 0.00907000
v 0.00675500 0.02221500 0.00677700
v 0.01612200 0.01630700 0.00347500
v -0.01896900 0.02322300 0.01593700
v -0.01745100 0.02306800 0.01373100
v -0.00029400 0.02480800 0.01000400
v 0.01975400 0.01442500 0.00460600
v -0.00017600 0.02640600 0.01232100
v -0.02621000 0.01741500 0.01839000
v 0.00053600 0.02723100 0.01388800
v -0.02160700 0.00249700 0.00239200
v -0.01869700 0.00451300 0.00072200
v 0.00553800 0.02530700 0.01099800
v -0.02908200 0.01523100 0.02176800
v -0.02413900 0.00069600 0.00441300
v 0.00833500 0.01877500 0.00329400
v -0.02287800 0.00406800 0.00396000
v -0.02234800 0.02099300 0.01689800
v 0.01291000 0.01930500 0.00490500
v -0.01996400 0.00405200 0.00132000
v 0.00932500 0.02015600 0.00480300
v -0.01960800 0.00540400 0.00130200
v -0.02065600 0.02363700 0.01994400
v -0.02459600 0.02025500 0.02017800
v -0.02553700 0.00511600 0.00719200
v -0.01709900 0.02594400 0.01988200
v -0.02222300 0.00683200 0.00415300
v -0.02073800 0.00863200 0.00347900
v 0.01497700 0.02039400 0.00687300
v 0.01173300 0.02308000 0.00903400
v 0.02016400 0.01704600 0.00666700
v -0.02347800 0.01059200 0.00730100
v 0.01631000 0.02163300 0.00925500
v 0.01917500 0.01980400 0.00900000
v 0.01975500 0.02147500 0.01170000
v -0.01687400 0.00811400 0.00062300
v -0.01838900 0.01000600 0.00225900
v -0.01709500 0.01230800 0.00253700
v -0.01530300 0.01016700 0.00079100
v -0.02002800 0.01321600 0.00524600
v 0.00815800 0.02521900 0.01131000
v -0.00711300 0.01090400 0.00013200
v -0.01466200 0.01251400 0.00158100
v -0.01202500 0.01360200 0.00144600
v -0.00456400 0.01415700 0.00091700
v -0.00977600 0.01248700 0.00066500
v 0.01394800 0.02406700 0.01158800
v -0.01713300 0.01467700 0.00393900
v 0.01496300 0.02500700 0.01382400
v 0.01184200 0.02570800 0.01346200
v -0.01362200 0.01550200 0.00302100
v -0.02176500 0.01149800 0.00601700
v -0.01854400 0.01659300 0.00619300
v -0.00732400 0.02527100 0.01138900
v -0.00597700 0.02634600 0.01263300
v -0.00718200 0.02736600 0.01498900
v -0.01458300 0.02351500 0.01186600
v -0.00975700 0.02601100 0.01360000
v -0.00322600 0.02803300 0.01535600
v -0.01294000 0.02546700 0.01431400
v -0.01383000 0.02630100 0.01683200
v -0.01450300 0.02721800 0.01999900
v -0.01106000 0.02904500 0.02191700
v 0.00009900 0.02966100 0.01853100
v 0.00465100 0.02724000 0.01421800
v 0.00737600 0.02803800 0.01632200
v -0.01048600 0.02830300 0.01898000
v -0.00522400 0.02931600 0.01852500
v -0.00690900 0.02985600 0.02117200
v 0.00311100 0.03044800 0.02057300
v 0.00400700 0.02955600 0.01850500
v -0.00276800 0.03075600 0.02187000
v -0.00025200 0.03157900 0.02398800
v 0.01008900 0.02802700 0.01701100
v 0.00665200 0.02993800 0.02009300
v 0.01097200 0.02899400 0.01962300
v 0.01398800 0.02703200 0.01711200
v 0.01728300 0.02476000 0.01505600
v 0.01534900 0.02814200 0.02077400
v 0.01827200 0.02577600 0.01796600
v 0.00528100 0.03128200 0.02335300
v 0.01024000 0.03087200 0.02482300
v 0.00548500 0.03199500 0.02604600
v 0.01744600 0.02800200 0.02300700
v 0.01524400 0.02967800 0.02575300
v 0.01526200 -0.01135000 -0.00033300
v 0.01756100 -0.01359800 -0.00025900
v 0.01892700 0.00237300 0.00061900
v 0.02001900 0.00518200 0.00131200
v 0.02835700 0.00750500 0.00821300
v 0.02538800 0.00356300 0.00341600
v 0.02544700 0.00647600 0.00475500
v 0.02050200 0.02315600 0.01527800
v 0.02297100 0.02011400 0.01314000
v 0.03785200 -0.00734700 0.02855700
v 0.03849000 -0.00570900 0.03401200
v 0.03817900 -0.00928100 0.03236600
v 0.03018500 -0.00928800 0.00765800
v 0.02721800 -0.00902500 0.00387000
v 0.02914700 -0.00693400 0.00573500
v 0.03794800 -0.00389000 0.02919100
v 0.02672100 -0.00548500 0.00310800
v 0.02495300 -0.00814800 0.00174600
v 0.03735000 -0.01275100 0.02994700
v 0.03010000 -0.00433300 0.00692500
v 0.02909100 -0.00326400 0.00581200
v 0.03088900 -0.00596100 0.00811800
v 0.02370500 0.02157800 0.01646500
v 0.03205800 -0.00913600 0.01085600
v 0.03673800 -0.00693400 0.02344800
v 0.03510800 -0.00703200 0.01750000
v 0.03558900 -0.00419900 0.01867500
v 0.01486200 -0.01428700 -0.00029900
v 0.03585600 -0.00121800 0.02014300
v 0.03650500 -0.00353400 0.02218500
v 0.01841200 -0.01595900 0.00011600
v 0.01961100 -0.01389800 0.00015600
v 0.02628000 0.01877600 0.01576800
v 0.02752800 0.01612000 0.01417800
v 0.02492200 0.01805300 0.01270200
v 0.02043600 -0.01712400 0.00133800
v 0.03659300 0.00122200 0.02438100
v 0.03065400 -0.00164600 0.00824300
v 0.02166800 -0.01885100 0.00274300
v 0.02825800 0.00324500 0.00623700
v 0.02676100 -0.00058500 0.00374400
v 0.02867400 0.01717700 0.01781800
v 0.02580700 0.02062100 0.01835700
v 0.03750600 0.00054200 0.02869100
v 0.02772200 0.01988000 0.02094100
v 0.02236600 -0.01266200 0.00085600
v 0.03351100 -0.00580900 0.01318200
v 0.02395300 -0.01337700 0.00204500
v 0.03367200 -0.00916900 0.01410700
v 0.02498500 -0.01712800 0.00456000
v 0.03355500 -0.00154700 0.01335100
v 0.03198800 0.00595400 0.01296100
v 0.03043500 0.00530700 0.00999900
v 0.02985900 0.00990100 0.01177900
v 0.03464000 -0.00383100 0.01582000
v 0.03273100 0.00767300 0.01567800
v 0.01764500 -0.00874100 -0.00033400
v 0.01961900 -0.01003000 -0.00016300
v 0.03692000 0.00516600 0.02940000
v 0.03509200 0.00752200 0.02301400
v 0.03524200 0.00411400 0.02058200
v 0.03600300 0.00824200 0.02867600
v 0.02933500 0.01373100 0.01428400
v 0.02788800 0.01184200 0.01025200
v 0.03810100 -0.01214800 0.03666900
v 0.03173800 0.00175100 0.01077100
v 0.02496000 -0.01016400 0.00210800
v 0.02610800 -0.01335300 0.00383900
v 0.02265000 -0.00681800 0.00075400
v 0.02076000 -0.00691000 0.00017200
v 0.03821100 -0.01171900 0.03880500
v 0.03772400 -0.01360000 0.04139700
v 0.03372500 0.00215400 0.01502100
v 0.03151200 0.01353300 0.01886700
v 0.03857300 -0.00646200 0.03586600
v 0.03274500 -0.01658600 0.01611700
v 0.03500800 -0.01731400 0.02434600
v 0.03305700 0.01084100 0.01994600
v 0.03449000 -0.01263400 0.01795800
v 0.03533400 -0.01433700 0.02216600
v 0.02223200 0.00514200 0.00199400
v 0.02274200 0.00797400 0.00336900
v 0.02341600 0.01197300 0.00587200
v 0.03841800 -0.00081200 0.03574400
v 0.02973500 0.01743800 0.02089300
v 0.03208200 0.01523500 0.02392600
v 0.02694500 -0.01581300 0.00588800
v 0.03794900 -0.01099600 0.04545300
v 0.03836900 -0.00929600 0.04343200
v 0.02948800 -0.01695000 0.00978500
v 0.02265500 0.01579000 0.00777300
v 0.03751800 -0.01045000 0.04896800
v 0.03698500 -0.01159000 0.05121000
v 0.03424000 0.01127000 0.02455200
v 0.03790900 -0.00889000 0.04765700
v 0.03856000 -0.00570600 0.04290300
v 0.02577700 0.01142900 0.00764100
v 0.03847500 -0.00258000 0.04177400
v 0.02916300 -0.01422400 0.00784300
v 0.03837200 -0.00487300 0.04581600
v 0.03035800 -0.01857400 0.01279400
v 0.03760800 0.00318500 0.03198000
v 0.03482000 0.00001900 0.01710500
v 0.01949800 0.02643700 0.02109700
v 0.03798100 0.00347500 0.03890600
v 0.03761700 0.00489100 0.03614900
v 0.02842400 -0.01180100 0.00598600
v 0.02147300 0.02510600 0.02060600
v 0.03003300 -0.01137300 0.00801700
v 0.02472400 0.02273500 0.02089600
v 0.03092300 -0.01148400 0.00939000
v 0.02638100 0.02228100 0.02363500
v 0.02438300 0.02466000 0.02535700
v 0.02035100 0.02737800 0.02555300
v 0.03248200 -0.01220000 0.01255900
v 0.03590200 0.01054800 0.03324100
v 0.03684300 0.00778100 0.03485500
v 0.03821300 0.00158300 0.04093700
v 0.02209900 0.02701800 0.02883800
v 0.02813800 0.02119900 0.02570100
v 0.02546900 0.02467400 0.02956500
v 0.03817500 -0.00048800 0.04539400
v 0.03653600 -0.01548200 0.02901300
v 0.03659900 -0.01202000 0.02538900
v 0.02048000 0.02834800 0.03134100
v 0.03704600 0.00698600 0.04252900
v 0.03707500 0.00721600 0.03800700
v 0.03520300 -0.01011700 0.01889100
v 0.03498400 0.01310900 0.03533400
v 0.03586500 0.01125200 0.03887600
v 0.03411200 0.01342200 0.02878200
v 0.03343100 0.01487600 0.02925900
v 0.02769900 0.01422700 0.01215900
v 0.02557700 0.01512500 0.01027800
v 0.03070100 0.01848100 0.02729500
v 0.03283300 0.01662900 0.03229100
v 0.02045700 0.00108900 0.00080300
v 0.02268000 0.01799400 0.00987700
v 0.02330200 -0.00075200 0.00151600
v 0.02473900 -0.00388700 0.00186700
v 0.02494000 0.00018400 0.00240400
v 0.03402300 0.01528800 0.03910200
v 0.03190500 0.01860300 0.03645800
v 0.03055800 0.01984700 0.03201900
v 0.02382100 0.00306900 0.00213400
v 0.02860900 0.02163900 0.02941700
v 0.02740100 0.02361800 0.03440200
v 0.02927900 0.02180700 0.03559400
v 0.01786100 0.02931200 0.02904000
v -0.02486500 -0.00968400 0.06734600
v -0.02579800 -0.00798400 0.06708000
v -0.02717500 -0.01060600 0.06634400
v -0.02346400 -0.00980100 0.06758400
v -0.01877500 -0.02937900 0.06441400
v -0.01792400 -0.02732900 0.06645400
v -0.01622500 -0.02951000 0.06559600
v -0.03063000 -0.00322700 0.06430800
v -0.03200800 -0.00547700 0.06270900
v -0.03032400 -0.00636200 0.06446700
v -0.02844600 -0.00551000 0.06594800
v -0.02408500 -0.02207200 0.06565100
v -0.02701500 -0.02019600 0.06405300
v -0.02591000 -0.02255200 0.06379700
v -0.02801600 -0.01628800 0.06471700
v -0.02617100 -0.01755100 0.06575800
v -0.02980800 0.00174500 0.06466400
v -0.03173700 -0.00181400 0.06307800
v -0.02889300 -0.00179500 0.06559100
v -0.02708100 -0.00326100 0.06661900
v -0.02816800 0.00188600 0.06585700
v -0.02939400 -0.00821000 0.06505300
v -0.02663200 -0.01458000 0.06618100
v -0.03137900 0.00287200 0.06299600
v -0.02399300 -0.01659000 0.06717000
v -0.02202100 -0.02478700 0.06572800
v -0.02029100 -0.02729200 0.06521400
v -0.02427800 -0.02494800 0.06389200
v -0.02930300 0.00463000 0.06464300
v -0.02577400 -0.00298500 0.06709400
v -0.02185000 -0.02240400 0.06682200
v -0.02865200 0.00749400 0.06437400
v -0.02779400 0.00605800 0.06540700
v -0.02629100 0.00435900 0.06663400
v -0.02009300 -0.02494900 0.06675600
v -0.02581200 -0.00024300 0.06702600
v -0.02385500 0.00238700 0.06745100
v -0.01413800 -0.02913900 0.06662500
v -0.01517300 -0.02667100 0.06756700
v -0.02448400 0.00527200 0.06716200
v -0.02243300 0.00612600 0.06751000
v -0.02097200 -0.01462500 0.06788500
v -0.02816600 0.01105900 0.06329800
v -0.03008500 0.00889800 0.06246700
v -0.02677800 0.00933300 0.06515000
v -0.02952900 0.01175100 0.06140700
v -0.02426700 -0.01963600 0.06632600
v -0.01938200 -0.02224000 0.06776500
v -0.02152100 -0.02011700 0.06750000
v -0.01970100 -0.01915200 0.06805000
v -0.02315000 -0.01528400 0.06755600
v -0.01811000 -0.02503200 0.06742000
v -0.01696800 -0.02414400 0.06793700
v -0.01309600 -0.02576100 0.06814700
v -0.01521400 -0.02327300 0.06825900
v -0.02464200 -0.01442700 0.06717600
v -0.02455600 0.00731300 0.06680400
v -0.01831500 -0.02151700 0.06809700
v -0.02572600 0.01434400 0.06337800
v -0.02886700 -0.01240700 0.06491300
v -0.02338200 0.01116900 0.06626500
v -0.02061400 0.01093900 0.06720800
v -0.02434000 0.01252200 0.06532500
v -0.03594000 0.00836500 0.04343600
v -0.03657300 0.00513800 0.04376500
v -0.03593900 0.00796100 0.04633300
v -0.02364700 -0.02780500 0.06186900
v -0.02581000 -0.02643900 0.06065300
v -0.02150100 -0.02811900 0.06367400
v -0.03634000 0.00426600 0.04826700
v -0.03585900 0.00550300 0.05107400
v -0.01732800 -0.03097800 0.06348100
v -0.02010400 -0.03044600 0.06193700
v -0.01813600 -0.03253100 0.06035500
v -0.01426800 -0.03285300 0.06280400
v -0.01529300 -0.03353900 0.06101600
v -0.03330500 -0.01898000 0.04083400
v -0.03168600 -0.02248500 0.04196700
v -0.03603800 0.00226400 0.05254800
v -0.03550800 0.00984500 0.04216400
v -0.03356600 -0.01504600 0.05512900
v -0.03427500 -0.01411400 0.05245700
v -0.03375100 -0.01679300 0.05068900
v -0.01303300 -0.03095000 0.06562100
v -0.03422000 -0.01435200 0.03428200
v -0.03279900 -0.01979300 0.04827200
v -0.03407700 -0.01684700 0.04584900
v -0.02663500 -0.02472700 0.06115500
v -0.02743500 -0.02277200 0.06175700
v -0.03307800 -0.01828700 0.03576000
v -0.03099700 -0.01405600 0.06198300
v -0.03269000 -0.01481200 0.05824000
v -0.03080500 -0.01804300 0.05999400
v -0.02892800 -0.01890100 0.06255600
v -0.02986900 -0.02147500 0.05863800
v -0.02967600 -0.01907000 0.06127800
v -0.03435800 -0.01555000 0.03889100
v -0.01554100 -0.03664000 0.05135100
v -0.01561300 -0.03707000 0.04823500
v -0.01102700 -0.03816000 0.05134100
v -0.01147300 -0.03706100 0.05572900
v -0.01534100 -0.03600200 0.05460300
v -0.03019100 -0.01276000 0.06354500
v -0.03506200 -0.01014100 0.03369100
v -0.03268000 0.00297000 0.06142500
v -0.02887900 -0.02707300 0.04361100
v -0.02651300 -0.02978000 0.04072000
v -0.02918300 -0.02644200 0.04096000
v -0.03540400 -0.00611100 0.03235900
v -0.03122800 0.00599700 0.06233800
v -0.03522300 -0.01151000 0.03871400
v -0.02248100 -0.03348100 0.04626100
v -0.03488200 -0.01393700 0.04447600
v -0.02567900 -0.03081600 0.04779200
v -0.03561100 -0.01047800 0.04239800
v -0.03501600 -0.00675500 0.05639300
v -0.03253700 -0.00996300 0.06097200
v -0.03595400 -0.00273800 0.05379100
v -0.03563500 -0.00639000 0.05326100
v -0.03477200 -0.00906600 0.05554500
v -0.03601000 -0.00777300 0.03895500
v -0.03607400 -0.00490300 0.03576100
v -0.03651000 -0.00375400 0.03925900
v -0.03478700 -0.00016600 0.02694400
v -0.03032200 -0.02466300 0.04023500
v -0.03496300 -0.00480100 0.05715100
v -0.03407000 -0.00357000 0.05938800
v -0.03442400 0.00522700 0.02780800
v -0.03545600 0.00113800 0.03039400
v -0.03517800 0.00064800 0.05685600
v -0.03609600 0.00447200 0.03533500
v -0.03471300 0.00740500 0.03071800
v -0.03405900 0.00005400 0.05962100
v -0.02811200 -0.02801200 0.04636100
v -0.03315200 -0.00277000 0.06113000
v -0.03671900 -0.00057800 0.04865000
v -0.03553500 -0.00322800 0.03105500
v -0.02843500 -0.02712000 0.05025900
v -0.02419500 -0.03194800 0.04819000
v -0.03485900 0.00355600 0.05693500
v -0.03393600 0.00257600 0.05944400
v -0.02653300 -0.02972900 0.05044300
v -0.03631900 0.00002700 0.03515300
v -0.02355300 -0.03191000 0.05234100
v -0.03509700 0.00611300 0.05459400
v -0.03532500 0.00794100 0.05167800
v -0.03652800 -0.00082900 0.03800400
v -0.03458500 0.00961200 0.05275500
v -0.03519800 0.01035400 0.04634300
v -0.03404800 0.01232100 0.04951900
v -0.03654100 0.00364600 0.03874500
v -0.03072800 -0.02406800 0.04568900
v -0.03358100 0.00837500 0.05722300
v -0.03238300 0.01182800 0.05657100
v -0.03485000 0.00933400 0.03445700
v -0.03560500 0.00722000 0.03582100
v -0.03276300 0.00718500 0.05967400
v -0.03547000 -0.01108000 0.04417800
v -0.03521700 -0.01202000 0.04652500
v -0.03168100 0.01069400 0.05912100
v -0.03483700 -0.01319100 0.04949600
v -0.03257300 0.01293600 0.05456300
v -0.03648400 -0.00515400 0.04291100
v -0.03425700 -0.01210200 0.05527500
v -0.03314700 -0.01105300 0.05925500
v -0.03653900 -0.00526800 0.04500700
v -0.03678800 -0.00206500 0.04256300
v -0.02147400 -0.03397200 0.04777800
v -0.01820500 -0.03600200 0.04706000
v -0.03584100 -0.00898400 0.04635400
v -0.03624600 -0.00510400 0.04868100
v -0.03504600 -0.01126900 0.05114000
v -0.01023500 -0.03878700 0.04937500
v -0.01997000 -0.03433300 0.05236400
v -0.03590600 -0.00789500 0.04869300
v -0.02078500 -0.03298100 0.05580300
v -0.01700900 -0.03447000 0.05743200
v -0.02924800 -0.02564000 0.05238600
v -0.02406700 -0.03049200 0.05610300
v -0.02636000 -0.02930800 0.05295900
v -0.02796700 -0.02690800 0.05412300
v -0.02586000 -0.02799200 0.05783200
v -0.02869100 -0.02517700 0.05599800
v -0.03678200 0.00257600 0.04330600
v -0.03116300 -0.02077500 0.05623500
v -0.03123800 -0.02235200 0.05212500
v -0.03565500 0.00816700 0.03788900
v -0.03619200 0.00696000 0.04047900
v -0.03684600 0.00107300 0.04659200
v -0.03231000 -0.01929600 0.05396100
v -0.02443000 -0.02853700 0.05971200
v -0.01994200 -0.03266000 0.05801500
v -0.01184600 -0.03546900 0.05959100
v -0.02245500 -0.03035400 0.05953200
v 0.00911400 -0.02415200 0.06975300
v 0.02980300 -0.00994100 0.06703800
v 0.02819700 -0.01416600 0.06742000
v 0.03029000 -0.01267900 0.06590300
v 0.02696500 -0.01254500 0.06870100
v 0.02841300 -0.00950800 0.06820900
v 0.01330700 -0.02306200 0.07001000
v -0.01124100 -0.03260600 0.06445400
v -0.01061300 -0.03097800 0.06615600
v 0.03063800 -0.00699100 0.06648600
v 0.02948600 -0.00572500 0.06767100
v 0.01405700 -0.02007700 0.07033600
v -0.01171800 -0.02903900 0.06715900
v -0.00710600 -0.03011500 0.06722300
v -0.00814500 -0.03237200 0.06550400
v 0.02648000 -0.00911000 0.06956600
v 0.02746500 -0.00522100 0.06923900
v -0.00959500 -0.02835600 0.06773100
v -0.00456000 -0.03156500 0.06659500
v 0.00036900 -0.03237500 0.06623600
v -0.00422400 -0.03378200 0.06462400
v -0.00012400 -0.03430400 0.06436800
v -0.01244200 -0.02474100 0.06832400
v -0.00176800 -0.03079900 0.06728000
v -0.00278400 -0.02822900 0.06829700
v 0.00251100 -0.03468100 0.06402700
v 0.00535800 -0.03208000 0.06640400
v 0.00488500 -0.03465800 0.06384100
v 0.00749300 -0.03360200 0.06467400
v 0.01620600 -0.02785900 0.06748400
v 0.01447200 -0.03058300 0.06586000
v 0.01831500 -0.02800000 0.06636600
v 0.01923500 -0.02507500 0.06798000
v 0.00968600 -0.03056200 0.06713700
v 0.02125300 -0.02767300 0.06471300
v 0.01210500 -0.03203000 0.06525400
v 0.02236100 -0.02507200 0.06614600
v 0.01302200 -0.02980300 0.06701100
v 0.02456500 -0.02087900 0.06725500
v 0.02519800 -0.02346300 0.06495800
v 0.00187100 -0.03107900 0.06721800
v 0.00161800 -0.02919000 0.06822500
v 0.01350400 -0.02707700 0.06869100
v 0.01636800 -0.02536800 0.06890500
v 0.00665600 -0.02970400 0.06800700
v 0.01464600 -0.02428900 0.06970200
v 0.00609900 -0.02729600 0.06902300
v 0.00176800 -0.02800800 0.06860200
v 0.01859000 -0.02109100 0.06990900
v 0.01926400 -0.02225200 0.06932800
v 0.01176500 -0.02523300 0.06965800
v 0.00454700 -0.02638800 0.06915200
v 0.01703100 -0.02014400 0.07034600
v 0.02343400 -0.02048800 0.06825000
v 0.01050100 -0.02809600 0.06859800
v 0.02008500 -0.01714700 0.07047800
v 0.01879300 -0.00551200 0.07128800
v 0.01785200 -0.00148500 0.07130700
v 0.02188900 -0.01710300 0.07012200
v 0.02171900 -0.01957900 0.06948400
v 0.01970100 -0.01422800 0.07082700
v 0.01914300 -0.01090200 0.07106700
v 0.02197400 -0.01283300 0.07074600
v 0.02423700 -0.01685600 0.06922800
v 0.02382600 -0.01029800 0.07052500
v 0.02792300 -0.01683500 0.06656100
v 0.02754200 -0.02069800 0.06464900
v 0.02943400 -0.01694700 0.06489800
v 0.02149500 -0.00805100 0.07121900
v 0.02201900 -0.00492500 0.07139200
v 0.02264300 -0.01422100 0.07042300
v 0.02401200 -0.00645500 0.07082500
v 0.02642800 -0.01564900 0.06830000
v 0.02524700 -0.00335900 0.07046100
v 0.02317300 -0.00296100 0.07115800
v 0.02030700 -0.00286500 0.07146600
v 0.02436800 -0.01357000 0.06988600
v 0.03494600 -0.01777100 0.05168000
v 0.03099300 -0.02117800 0.05835300
v 0.03211000 -0.02110900 0.05560200
v 0.03327500 -0.01825400 0.05653900
v 0.02802300 -0.02299300 0.06186900
v 0.03059100 -0.01899800 0.06166000
v -0.00523700 -0.03941600 0.05128100
v 0.03627500 -0.01364600 0.05216800
v 0.03440800 -0.01485200 0.05737000
v 0.03623300 -0.00962300 0.05553900
v 0.00260200 -0.04035800 0.04974900
v 0.01649800 -0.03522200 0.05644400
v 0.01310600 -0.03716900 0.05417600
v -0.00174700 -0.03936100 0.05375600
v -0.00579900 -0.03876100 0.05417400
v 0.01971400 -0.03409700 0.05443300
v 0.01502200 -0.03515500 0.05836900
v 0.01216900 -0.03671100 0.05695100
v 0.03353300 -0.01356200 0.06039700
v -0.00782800 -0.03779000 0.05616500
v 0.01662300 -0.03260700 0.06189900
v 0.01983300 -0.03211100 0.05939700
v 0.03501800 -0.01072800 0.05854300
v -0.00861800 -0.03638400 0.05944600
v 0.01409400 -0.03412800 0.06136100
v 0.01870900 -0.03005000 0.06386800
v 0.02204400 -0.02959500 0.06147400
v 0.01440400 -0.03276900 0.06329700
v -0.00199300 -0.03832500 0.05714700
v 0.01087500 -0.03405300 0.06314800
v 0.00100700 -0.03891100 0.05582000
v -0.00312200 -0.03739200 0.05937900
v -0.00058200 -0.03740600 0.05960000
v 0.02489200 -0.02576100 0.06311800
v 0.00577300 -0.03984400 0.05094800
v 0.00337600 -0.03953100 0.05347100
v 0.00727100 -0.03905800 0.05372900
v 0.01087300 -0.03773500 0.05514100
v 0.00665800 -0.03785400 0.05783700
v 0.00248800 -0.03801100 0.05841100
v 0.00103700 -0.03660600 0.06129200
v 0.00602100 -0.03685200 0.06018700
v 0.03057300 -0.01583100 0.06408400
v 0.02359900 -0.03161100 0.05360100
v 0.00953200 -0.03601300 0.06056100
v 0.02252400 -0.03080500 0.05860000
v 0.03257100 -0.01215100 0.06290600
v 0.02699100 -0.02866000 0.05314400
v 0.02506900 -0.02888200 0.05795400
v 0.03240800 -0.00922200 0.06411900
v 0.02852500 -0.02583400 0.05643900
v -0.00863600 -0.03428900 0.06312300
v -0.00308300 -0.03607800 0.06183900
v 0.03430300 -0.00930700 0.06097100
v 0.02582600 -0.02661100 0.06079500
v 0.02730100 -0.02556800 0.05974300
v 0.00581400 -0.03542900 0.06265900
v -0.00476400 0.01838900 0.06852200
v -0.00945300 0.01715400 0.06825400
v -0.00516200 0.01614500 0.06889800
v -0.01315300 0.01551300 0.06791400
v -0.01788900 0.01370200 0.06727300
v -0.00941900 0.01844600 0.06790100
v -0.00342400 0.01995100 0.06818700
v -0.00929100 0.02061700 0.06691200
v -0.02106700 0.01383000 0.06632100
v -0.02214700 0.01639100 0.06450800
v -0.01025400 0.01468200 0.06840900
v -0.01938400 0.01728000 0.06541300
v -0.00151200 0.01655100 0.06925400
v -0.01880400 0.01549600 0.06651800
v -0.01067200 0.02469700 0.06345500
v -0.01526400 0.02107000 0.06494600
v -0.01227600 0.02160600 0.06562000
v -0.01351600 0.02032400 0.06603500
v -0.01699000 0.01793900 0.06609900
v -0.01468600 0.01719600 0.06714300
v -0.01084600 0.02334400 0.06471500
v -0.01323300 0.01875600 0.06692900
v -0.01841700 0.02010400 0.06399400
v -0.00731300 0.02274000 0.06606400
v -0.00747300 0.02458100 0.06456400
v -0.00449200 0.02228700 0.06688100
v -0.00022000 0.02289300 0.06699000
v -0.00417400 0.02440300 0.06544000
v -0.00119000 0.02508100 0.06513600
v -0.03356500 0.00812200 0.02670100
v -0.00234200 0.03325900 0.03702800
v -0.00064400 0.03344400 0.04257600
v 0.00217400 0.03346700 0.03524700
v -0.01698800 0.02539900 0.05781700
v -0.01290500 0.02632100 0.05988200
v -0.01495300 0.02783100 0.05445200
v -0.01605900 0.02448700 0.06046200
v -0.02089100 0.02360100 0.05664500
v -0.02209800 0.02101900 0.05990500
v 0.00315600 0.03363400 0.04297800
v -0.00321700 0.03297200 0.04432200
v 0.00052900 0.03327400 0.04562100
v -0.02128200 0.02637600 0.04151500
v -0.02238600 0.02543700 0.04638400
v -0.01938200 0.02724300 0.04593900
v -0.01980500 0.02071400 0.06248500
v -0.01482100 0.02320100 0.06320900
v -0.02021500 0.02709800 0.03882000
v -0.01377700 0.03023200 0.04209200
v -0.01788300 0.02820000 0.03614300
v 0.00864900 0.03328000 0.03838100
v 0.00435000 0.03355200 0.03633000
v 0.00720900 0.03347200 0.04086900
v 0.01069800 0.03276900 0.04236700
v 0.01202600 0.03252200 0.03723600
v -0.03171500 0.01226000 0.02524400
v -0.01650700 0.02877300 0.04527900
v -0.03435300 0.00966100 0.03198400
v 0.00642500 0.03300600 0.04634200
v 0.00816600 0.03274700 0.04669200
v -0.00694800 0.03246400 0.04130700
v -0.00586400 0.03243100 0.04544800
v -0.01610300 0.02884700 0.04770900
v -0.01111300 0.03119900 0.04401600
v -0.01123300 0.02854800 0.05647200
v -0.01165000 0.02953000 0.05327100
v -0.00530700 0.03205700 0.04904600
v -0.01553200 0.02782600 0.02384500
v -0.00264400 0.03246900 0.04856700
v -0.01175900 0.02954300 0.02479700
v -0.00095100 0.03178000 0.05284400
v 0.00439000 0.03267600 0.04954200
v -0.01965100 0.02580500 0.02501300
v -0.03241700 0.01370500 0.03065400
v -0.01059900 0.02645400 0.06113400
v -0.00409800 0.02972300 0.05776500
v -0.00730100 0.03022200 0.05483300
v -0.00773800 0.02876400 0.05812000
v -0.03042800 0.01482600 0.02518200
v -0.01279500 0.03000600 0.02986300
v -0.01858300 0.02708600 0.02847500
v -0.01594700 0.02905200 0.03333700
v -0.02815300 0.01753600 0.02357800
v -0.00661200 0.02771800 0.06078700
v -0.00622900 0.02670400 0.06248000
v 0.00921600 0.03187600 0.05072500
v -0.03365800 0.01291600 0.03559500
v -0.00768800 0.03135000 0.02845900
v -0.02910900 0.01762100 0.02679100
v -0.03219500 0.01486500 0.05221900
v -0.03342300 0.01421800 0.04556800
v -0.00543200 0.03100000 0.02409500
v -0.03180000 0.01671600 0.04554600
v -0.03036100 0.01735800 0.05203400
v -0.03140400 0.01635200 0.03353100
v -0.00084800 0.03212700 0.02612700
v -0.03029100 0.01568400 0.05573700
v -0.00255000 0.03250200 0.02899400
v -0.02849900 0.02054000 0.04730300
v -0.03085300 0.01794700 0.04610900
v -0.02793000 0.02064900 0.04954100
v -0.02692700 0.02121500 0.05086500
v -0.00191700 0.02840900 0.06095000
v -0.02647800 0.02004000 0.02452600
v 0.00013800 0.03037600 0.05716500
v -0.02730900 0.01816700 0.05743400
v -0.02678100 0.01992200 0.05480000
v -0.00872200 0.03151100 0.03156900
v -0.00278300 0.02681100 0.06305600
v -0.01250400 0.03058000 0.03572400
v -0.02406300 0.02228500 0.05456500
v -0.02501400 0.02255300 0.05162600
v -0.01010300 0.03153300 0.03819400
v -0.02415900 0.02246400 0.02484300
v -0.02933000 0.01465600 0.05904000
v 0.00115100 0.02718400 0.06293600
v -0.00627200 0.03235200 0.03364000
v 0.00059100 0.02901700 0.06017000
v -0.02666500 0.01605700 0.06105400
v 0.00419000 0.02580200 0.06453800
v -0.00179800 0.03298400 0.03214000
v -0.02530900 0.01902300 0.05885400
v -0.02434700 0.02096900 0.05691600
v -0.02356400 0.01809800 0.06205400
v -0.02628200 0.02285000 0.04492800
v -0.02541700 0.02340300 0.04631500
v 0.00323900 0.03295100 0.02960700
v -0.02250200 0.02490200 0.03010100
v -0.02266800 0.02414300 0.05223400
v 0.00691300 0.03273900 0.03055300
v 0.01027000 0.03183200 0.02886700
v -0.02645700 0.02164000 0.02954800
v -0.02829700 0.01932100 0.02879200
v -0.02858700 0.02009100 0.03292800
v -0.03049100 0.01698400 0.03082700
v 0.00674800 0.03323900 0.03348700
v 0.01263100 0.03177100 0.03167700
v 0.00997400 0.03287800 0.03530700
v -0.02305300 0.02485700 0.03252000
v -0.01949000 0.02643500 0.05100100
v -0.01927300 0.02709600 0.03171100
v -0.01842800 0.02621900 0.05393700
v -0.00532500 0.03280500 0.03683000
v -0.01474600 0.02871800 0.05148400
v -0.01264700 0.03006400 0.04930900
v -0.00983400 0.03136000 0.04680300
v -0.00988100 0.03092700 0.05000000
v -0.00615100 0.03163900 0.05074600
v -0.00358600 0.03175100 0.05184500
v -0.03205500 0.01648100 0.03952800
v -0.03035600 0.01890700 0.03940800
v -0.02998500 0.01907700 0.03653500
v -0.03413200 0.01280100 0.04035000
v 0.00703100 0.03137100 0.05368400
v 0.00209500 0.03142200 0.05444600
v 0.00209100 0.02985000 0.05845700
v 0.00542000 0.03009500 0.05762100
v -0.02979700 0.01944300 0.04339900
v -0.02750900 0.02199500 0.04238300
v -0.02702300 0.02210800 0.03614400
v -0.02430100 0.02438300 0.03679300
v -0.02160200 0.02612900 0.03527600
v -0.02292700 0.02535700 0.03981200
v -0.02486300 0.02412600 0.04136300
v 0.00730900 0.01914200 0.06892600
v 0.00909900 0.01709800 0.06956100
v 0.00940700 0.01924800 0.06878600
v 0.01125900 0.02205100 0.06692700
v 0.01157400 0.02063000 0.06782400
v 0.01487800 0.02211400 0.06580600
v 0.00687800 0.01643300 0.06973800
v 0.01701800 0.01979600 0.06679100
v 0.01969600 0.01848900 0.06653500
v 0.01912500 0.02103100 0.06476700
v 0.01837900 0.01737100 0.06780300
v 0.00438200 0.02070000 0.06829100
v 0.00789500 0.02180400 0.06760800
v 0.00445000 0.02251000 0.06735500
v 0.02877000 -0.00160300 0.06801300
v 0.01190600 0.01756600 0.06923400
v 0.02633200 -0.00088100 0.06972300
v 0.00136300 0.01880700 0.06902500
v 0.00150600 0.01741600 0.06931300
v 0.00103800 0.02107600 0.06808500
v 0.00274300 0.02435400 0.06598300
v 0.03138200 -0.00254100 0.06561300
v 0.00716300 0.02341700 0.06653500
v 0.00792000 0.02461000 0.06533400
v 0.02987000 0.00128000 0.06657200
v 0.01196800 0.02334700 0.06567100
v 0.01290900 0.02474000 0.06391600
v 0.01763800 0.00239600 0.07136300
v 0.02076000 -0.00033300 0.07149500
v 0.02879600 0.00607300 0.06649200
v 0.03040400 0.00729000 0.06440400
v 0.02876700 0.00967300 0.06516700
v 0.02296600 0.00017000 0.07113500
v 0.01648600 0.00468600 0.07125800
v 0.02055600 0.00297900 0.07137500
v 0.03158300 0.00080100 0.06481400
v 0.02855300 0.00287700 0.06744300
v 0.02408200 0.00385800 0.07014400
v 0.02639100 0.00258800 0.06912300
v 0.02215900 0.01432900 0.06780600
v 0.02033200 0.01402800 0.06877400
v 0.02251400 0.01071800 0.06903200
v 0.02653200 0.01302400 0.06562200
v 0.02545800 0.01101600 0.06731000
v 0.02364000 0.01629300 0.06578900
v 0.02591900 0.01403000 0.06547500
v 0.02252300 0.00344700 0.07082700
v 0.02223300 0.01925400 0.06434600
v 0.01840600 0.01455300 0.06919200
v 0.01456900 0.01799700 0.06856400
v 0.01454100 0.01531600 0.06973200
v 0.02597000 0.00572100 0.06872100
v 0.02667100 0.00939900 0.06703900
v 0.01488200 0.02013700 0.06728700
v 0.01105600 0.01473600 0.07017900
v 0.02502600 0.00916300 0.06819300
v 0.01908300 0.00573700 0.07118700
v 0.02098000 0.00619500 0.07077800
v 0.01541300 0.01295600 0.07034500
v 0.02241600 0.00829500 0.06980000
v 0.01251900 0.01013900 0.07078300
v 0.01736700 0.01144800 0.07042400
v 0.01604000 0.00908400 0.07098600
v 0.01208100 0.01294000 0.07052500
v 0.01972900 0.01011100 0.07019300
v 0.01888800 0.00775600 0.07091100
v 0.01660100 0.02431500 0.06269200
v 0.03149600 0.01314200 0.05892600
v 0.03158500 0.01041300 0.06100800
v 0.03277000 0.01015200 0.05890300
v 0.02390700 0.02178300 0.06023400
v 0.02742500 0.01917600 0.05936200
v 0.02602000 0.02114000 0.05856400
v 0.02981200 0.01269400 0.06218400
v 0.02133000 0.02394100 0.05949000
v 0.02320500 0.02381400 0.05774100
v 0.02588700 0.02252400 0.05630000
v 0.02756700 0.02064800 0.05665300
v 0.02965700 0.01601300 0.05925200
v 0.03099600 0.01633200 0.05596800
v 0.02403000 0.02461300 0.05453000
v 0.01990400 0.02309200 0.06193600
v 0.02141400 0.02791700 0.04782100
v 0.01872400 0.02899600 0.05018000
v 0.02108600 0.02738000 0.05155300
v 0.03722800 -0.00856000 0.05206900
v 0.02635200 0.01669300 0.06312600
v 0.02818000 0.01676700 0.06083300
v 0.03815800 -0.00495500 0.04744900
v 0.02434800 0.01952900 0.06238900
v 0.03702700 -0.00560100 0.05384300
v 0.03494600 0.01273100 0.04550600
v 0.03328400 0.01568400 0.04727600
v 0.03124500 0.01961600 0.04049300
v 0.03789900 -0.00247100 0.04925100
v 0.01632900 0.03072200 0.03381200
v 0.03105000 0.01903400 0.04771700
v 0.03179700 0.01708000 0.05122000
v 0.02372500 0.02671300 0.03414100
v 0.02955900 0.01934700 0.05393700
v 0.02851200 0.02150700 0.05151400
v 0.01970700 0.02930000 0.03650000
v 0.03558600 -0.00209700 0.05827200
v 0.03531400 -0.00407800 0.05931500
v 0.03562700 -0.00742000 0.05818100
v 0.03686400 -0.00226900 0.05402300
v 0.02205600 0.02805800 0.04102400
v 0.01493700 0.03162200 0.03939200
v 0.03680000 0.00155500 0.05262900
v 0.03623000 -0.00051300 0.05569000
v 0.03598500 0.00306800 0.05507100
v 0.02341300 0.02717300 0.04035100
v 0.01914600 0.02962400 0.04361300
v 0.03773800 0.00255000 0.04444700
v 0.03694500 0.00642100 0.04535100
v 0.00973400 0.03013000 0.05575000
v 0.01370000 0.02909000 0.05603800
v 0.01171500 0.03071200 0.05284500
v 0.01126700 0.02839000 0.05891500
v 0.00631700 0.02860500 0.06025300
v 0.03706900 0.00393700 0.04875500
v 0.02858100 0.02277200 0.03947500
v 0.02572000 0.02533100 0.03733900
v 0.00432100 0.02723000 0.06271600
v 0.01552200 0.03001300 0.05169900
v 0.00742700 0.02600900 0.06385700
v 0.03587500 0.01039100 0.04435900
v 0.01487300 0.02698600 0.05969300
v 0.01738600 0.02746700 0.05677200
v 0.01190000 0.02663300 0.06167200
v 0.03591300 0.00873300 0.04878800
v 0.03096900 0.01964300 0.04405800
v 0.02804400 0.02319900 0.04527300
v 0.03605600 0.00623300 0.05221900
v 0.01870000 0.02596300 0.05860000
v 0.02562400 0.02541800 0.04374800
v 0.02339900 0.02694300 0.04410000
v 0.03487400 0.01163200 0.04934700
v 0.03345800 0.01382800 0.05186000
v 0.03478600 0.01003800 0.05284800
v 0.01531500 0.03125800 0.04450900
v 0.03452600 -0.00291100 0.06084900
v 0.03459000 -0.00623300 0.06077800
v 0.03220000 -0.00440600 0.06470400
v 0.01244500 0.03181000 0.04758300
v 0.03318300 0.00026300 0.06278000
v 0.01609800 0.03063800 0.04754300
v 0.03481800 0.00070800 0.05953100
v 0.03360300 0.00507500 0.06030100
v 0.01931900 0.02750900 0.05442400
v 0.03250300 0.00714900 0.06131900
v 0.02783900 0.02291200 0.04865900
v 0.02662000 0.02427100 0.04699300
v 0.03476000 0.00522200 0.05761200
v 0.03432900 0.00804600 0.05684200
v 0.02432000 0.02535500 0.05133000
v 0.02398100 0.02621500 0.04763600
v 0.03292400 0.01291900 0.05567700
f 77 402 394
f 4 3 351
f 101 4 111
f 3 4 101
f 318 315 888
f 542 556 538
f 408 386 405
f 334 322 358
f 347 394 351
f 77 394 78
f 394 347 78
f 78 347 351
f 36 37 402
f 77 78 67
f 67 78 63
f 34 54 129
f 129 54 133
f 133 134 129
f 176 178 174
f 525 524 537
f 525 469 524
f 109 101 111
f 123 4 351
f 111 4 123
f 123 109 111
f 469 109 123
f 351 3 66
f 3 33 66
f 66 33 63
f 66 78 351
f 63 78 66
f 176 133 88
f 177 178 176
f 176 98 177
f 206 98 97
f 97 98 176
f 176 88 97
f 355 424 321
f 321 363 355
f 536 607 485
f 536 525 537
f 485 607 484
f 482 481 484
f 484 481 485
f 485 481 534
f 753 745 740
f 684 711 799
f 799 711 801
f 703 702 699
f 794 799 802
f 802 799 801
f 697 698 699
f 887 875 881
f 893 896 906
f 893 889 891
f 891 896 893
f 888 896 891
f 814 937 812
f 563 556 542
f 515 534 535
f 535 534 481
f 486 477 479
f 486 313 590
f 479 313 486
f 251 269 310
f 314 269 312
f 315 310 314
f 314 310 269
f 895 896 888
f 560 895 319
f 315 314 319
f 888 315 319
f 319 895 888
f 941 906 910
f 910 906 896
f 941 910 1213
f 759 753 738
f 745 753 759
f 967 956 960
f 960 991 967
f 954 967 1068
f 956 967 954
f 1104 1076 1078
f 1083 1076 1104
f 633 645 640
f 770 764 769
f 770 778 764
f 527 545 561
f 482 484 488
f 532 479 542
f 542 538 532
f 532 313 479
f 312 313 532
f 532 538 312
f 478 551 542
f 542 479 478
f 479 477 478
f 1186 1209 1185
f 1016 984 986
f 647 642 651
f 651 643 622
f 642 643 651
f 443 408 444
f 408 1012 444
f 454 450 451
f 443 444 449
f 449 444 445
f 445 451 449
f 449 451 450
f 333 381 439
f 376 350 391
f 391 350 396
f 391 377 376
f 435 366 380
f 443 439 387
f 387 408 443
f 386 408 387
f 405 386 400
f 386 377 400
f 400 391 406
f 377 391 400
f 1023 396 1000
f 1000 396 349
f 396 350 349
f 38 402 77
f 77 36 38
f 38 36 402
f 162 156 147
f 71 165 85
f 76 165 71
f 58 67 63
f 7 6 8
f 116 26 115
f 115 26 27
f 128 83 84
f 31 30 29
f 31 196 30
f 29 30 11
f 195 31 29
f 196 31 195
f 263 256 268
f 172 23 12
f 172 256 23
f 32 52 57
f 57 34 32
f 54 34 57
f 1 33 3
f 134 133 173
f 173 133 176
f 176 174 173
f 170 174 178
f 170 172 12
f 178 172 170
f 469 525 499
f 101 109 103
f 206 97 103
f 524 469 495
f 495 123 524
f 469 123 495
f 351 524 468
f 468 123 351
f 524 123 468
f 54 57 53
f 53 57 52
f 53 133 54
f 53 88 133
f 3 88 53
f 53 1 3
f 52 1 53
f 178 177 179
f 179 177 98
f 99 97 88
f 3 101 99
f 99 88 3
f 101 103 99
f 99 103 97
f 389 413 558
f 323 322 334
f 334 353 352
f 324 427 322
f 322 323 324
f 424 355 356
f 356 524 351
f 356 355 363
f 363 361 356
f 537 524 356
f 513 536 485
f 525 536 513
f 513 499 525
f 513 534 515
f 485 534 513
f 508 488 484
f 416 413 411
f 153 753 740
f 684 799 798
f 797 799 794
f 796 798 797
f 797 798 799
f 684 798 807
f 758 797 794
f 796 797 758
f 758 760 796
f 730 760 758
f 713 703 729
f 806 802 801
f 806 697 699
f 801 697 806
f 699 702 806
f 702 802 806
f 624 635 633
f 732 734 735
f 769 764 761
f 873 881 875
f 1145 1133 1138
f 826 875 887
f 1130 821 820
f 812 937 820
f 820 821 812
f 1133 1145 1123
f 1130 1133 1123
f 1123 821 1130
f 921 847 845
f 936 943 942
f 864 883 874
f 878 877 893
f 876 877 878
f 878 814 876
f 893 877 892
f 892 889 893
f 892 943 889
f 921 942 892
f 892 942 943
f 850 847 921
f 921 892 850
f 850 892 877
f 813 883 876
f 876 814 813
f 813 814 812
f 814 878 930
f 893 906 930
f 930 878 893
f 1264 1185 1209
f 1208 1188 1206
f 1206 1209 1208
f 1186 1188 1208
f 1208 1209 1186
f 1260 1264 1209
f 1205 1209 1206
f 1206 1201 1205
f 1205 1201 1240
f 1205 1260 1209
f 1205 1240 1241
f 1241 1260 1205
f 574 481 482
f 574 535 481
f 566 535 574
f 566 578 557
f 284 290 304
f 304 296 305
f 290 296 304
f 305 935 304
f 935 303 304
f 298 284 304
f 251 295 247
f 247 219 251
f 295 296 247
f 247 296 290
f 889 943 938
f 936 935 938
f 938 943 936
f 938 935 305
f 305 296 306
f 306 296 295
f 318 317 306
f 555 556 562
f 560 319 555
f 555 538 556
f 897 1213 910
f 897 895 560
f 896 895 897
f 897 910 896
f 1194 897 560
f 941 1213 1251
f 1251 937 941
f 184 199 200
f 184 200 144
f 944 836 928
f 283 285 217
f 898 923 901
f 901 199 898
f 925 926 924
f 924 926 923
f 191 199 184
f 191 898 199
f 244 898 191
f 191 209 244
f 928 919 920
f 894 199 901
f 901 902 894
f 894 200 199
f 894 902 789
f 789 200 894
f 916 902 901
f 793 809 692
f 907 919 911
f 907 916 919
f 902 916 907
f 87 135 728
f 728 730 87
f 87 86 83
f 90 83 128
f 128 135 90
f 90 87 83
f 135 87 90
f 1028 1047 1020
f 1051 1056 1046
f 1046 1038 1051
f 1056 1070 1046
f 1051 1038 1050
f 1059 1063 1050
f 1086 982 978
f 978 980 1086
f 1055 1056 1051
f 981 978 983
f 983 978 982
f 1048 1033 1077
f 1077 1076 1048
f 1078 1076 1077
f 1048 1076 1058
f 1058 406 1048
f 405 400 1058
f 1058 400 406
f 633 635 637
f 637 645 633
f 637 636 650
f 635 636 637
f 650 649 637
f 637 649 645
f 650 636 652
f 627 636 635
f 627 624 626
f 635 624 627
f 1073 1070 1056
f 1056 1055 1073
f 1073 982 1086
f 1073 1055 982
f 1096 1104 1078
f 1095 1104 1096
f 766 778 1034
f 764 778 766
f 573 526 584
f 583 597 584
f 529 561 583
f 583 584 529
f 529 584 526
f 529 526 527
f 527 561 529
f 1241 1240 1202
f 1202 1201 609
f 1240 1201 1202
f 523 545 527
f 549 389 550
f 558 564 550
f 550 389 558
f 570 496 494
f 1233 1258 1192
f 1191 1221 1192
f 1233 1225 1237
f 1237 1258 1233
f 1243 1258 1237
f 1184 1258 1243
f 1245 1244 1220
f 1220 1244 1231
f 1003 1016 1004
f 984 1016 1003
f 1003 1004 997
f 997 984 1003
f 1142 653 666
f 1142 1169 653
f 1017 408 405
f 405 1058 1017
f 1017 1012 408
f 1025 1012 1017
f 411 412 415
f 415 416 411
f 459 458 461
f 459 456 458
f 459 431 432
f 432 456 459
f 446 441 450
f 446 450 454
f 373 441 390
f 450 441 438
f 438 449 450
f 442 439 443
f 440 439 442
f 443 449 442
f 442 438 440
f 449 438 442
f 440 438 437
f 437 441 373
f 437 438 441
f 358 369 331
f 334 358 331
f 331 353 334
f 1048 406 1027
f 406 391 1027
f 1027 391 396
f 1027 1033 1048
f 396 1023 1027
f 1027 1023 1033
f 365 366 367
f 367 345 365
f 365 350 376
f 365 345 350
f 376 377 374
f 374 365 376
f 366 365 374
f 380 366 374
f 339 335 338
f 336 335 339
f 407 336 339
f 339 359 407
f 414 409 407
f 407 359 414
f 366 435 422
f 367 366 422
f 434 414 422
f 422 414 367
f 328 435 380
f 330 435 328
f 325 358 322
f 322 327 325
f 325 332 358
f 327 332 325
f 326 327 322
f 322 427 326
f 326 427 321
f 321 428 326
f 380 374 382
f 382 374 377
f 382 377 386
f 386 387 382
f 382 328 380
f 381 328 382
f 382 439 381
f 382 387 439
f 1018 1023 1000
f 1094 1037 1095
f 1095 1096 1094
f 1094 1096 1039
f 338 345 343
f 343 339 338
f 359 339 343
f 343 345 367
f 367 414 343
f 343 414 359
f 338 335 342
f 342 335 340
f 350 345 346
f 346 349 350
f 346 342 349
f 346 345 338
f 338 342 346
f 348 342 340
f 349 342 348
f 1000 349 348
f 348 974 1000
f 740 745 744
f 407 409 399
f 399 397 407
f 81 336 407
f 407 397 81
f 82 336 81
f 39 21 41
f 71 85 79
f 51 8 50
f 51 156 7
f 7 8 51
f 107 156 162
f 89 85 165
f 165 159 89
f 82 79 89
f 89 79 85
f 110 94 92
f 110 137 119
f 119 108 110
f 6 67 59
f 67 58 59
f 63 33 35
f 35 58 63
f 35 33 32
f 32 34 35
f 75 35 34
f 58 35 75
f 44 8 6
f 6 59 44
f 44 59 58
f 115 122 121
f 155 116 115
f 115 121 155
f 151 116 155
f 118 122 115
f 115 27 118
f 10 14 9
f 9 14 11
f 64 147 163
f 162 147 64
f 64 92 162
f 64 73 92
f 73 64 65
f 65 64 61
f 102 84 49
f 49 84 83
f 29 11 13
f 13 23 29
f 12 23 13
f 13 14 12
f 11 14 13
f 302 195 264
f 268 201 275
f 275 263 268
f 33 1 2
f 2 1 52
f 32 33 2
f 2 52 32
f 178 179 266
f 266 179 201
f 266 201 268
f 266 172 178
f 268 256 266
f 256 172 266
f 201 179 205
f 205 98 206
f 205 179 98
f 205 206 225
f 225 224 205
f 354 352 353
f 354 378 384
f 353 378 354
f 341 324 323
f 341 323 334
f 334 352 341
f 341 398 344
f 352 398 341
f 324 341 364
f 364 341 344
f 344 398 364
f 740 159 171
f 171 153 740
f 171 159 165
f 699 698 777
f 777 703 699
f 729 703 777
f 752 735 734
f 742 734 732
f 746 734 742
f 742 749 746
f 742 781 733
f 732 781 742
f 795 798 796
f 795 807 798
f 796 760 795
f 755 730 728
f 728 760 755
f 755 760 730
f 73 65 62
f 62 61 80
f 62 65 61
f 719 710 631
f 631 676 719
f 719 676 626
f 732 735 736
f 708 697 801
f 769 761 756
f 773 769 756
f 626 624 625
f 733 719 625
f 625 719 626
f 879 873 880
f 871 873 879
f 880 872 879
f 879 872 871
f 1144 1133 1130
f 1130 1254 1144
f 827 1123 1125
f 821 1123 827
f 815 826 887
f 887 874 815
f 815 874 883
f 883 813 815
f 1130 820 1252
f 1252 820 937
f 1252 1254 1130
f 1250 1254 1252
f 937 1251 1252
f 1252 1251 1250
f 921 845 914
f 914 942 921
f 845 913 914
f 914 913 908
f 856 853 854
f 856 854 859
f 849 850 877
f 849 877 876
f 864 847 849
f 847 850 849
f 849 883 864
f 876 883 849
f 937 814 934
f 814 930 934
f 934 930 906
f 941 937 934
f 934 906 941
f 928 836 940
f 940 919 928
f 911 919 940
f 692 809 691
f 691 688 692
f 622 643 621
f 621 643 685
f 685 689 621
f 621 689 688
f 683 689 685
f 684 807 683
f 692 688 690
f 688 689 690
f 690 793 692
f 808 793 690
f 1232 1234 1228
f 1243 1175 1190
f 1175 1118 1190
f 1228 1234 1238
f 1129 973 971
f 1132 1131 1134
f 1122 971 1128
f 1122 1131 1129
f 1129 971 1122
f 1053 973 1060
f 1060 1047 1053
f 1062 1047 1060
f 1049 1020 1062
f 1062 1020 1047
f 1062 1232 1228
f 1060 1232 1062
f 1191 1264 1265
f 1265 1245 1191
f 1244 1245 1265
f 1151 1140 1182
f 1151 1195 1154
f 1182 1195 1151
f 1176 1182 1177
f 480 574 482
f 480 482 489
f 489 578 480
f 576 578 566
f 566 574 576
f 576 480 578
f 574 480 576
f 491 578 489
f 582 557 578
f 578 491 582
f 582 491 516
f 203 557 212
f 203 198 557
f 566 557 554
f 557 198 554
f 554 535 566
f 258 235 234
f 269 235 258
f 590 313 258
f 258 313 312
f 312 269 258
f 251 219 252
f 219 235 252
f 252 269 251
f 252 235 269
f 277 290 284
f 273 237 274
f 274 272 273
f 208 202 219
f 208 194 202
f 219 247 241
f 242 208 241
f 241 208 219
f 889 938 890
f 890 938 317
f 890 891 889
f 890 317 318
f 890 318 888
f 888 891 890
f 308 938 305
f 317 938 308
f 305 306 308
f 308 306 317
f 251 310 311
f 318 306 311
f 315 318 311
f 311 310 315
f 559 555 562
f 560 555 559
f 562 1194 559
f 559 1194 560
f 538 555 539
f 539 555 319
f 539 319 314
f 312 538 539
f 539 314 312
f 132 135 128
f 128 131 132
f 128 84 114
f 114 131 128
f 20 131 114
f 114 19 20
f 125 131 20
f 145 200 789
f 145 144 200
f 145 125 144
f 131 125 145
f 144 125 127
f 20 19 127
f 127 125 20
f 236 217 231
f 900 899 925
f 265 903 899
f 899 900 265
f 298 903 265
f 265 253 298
f 929 926 932
f 932 944 929
f 929 944 928
f 917 944 932
f 932 912 917
f 908 912 904
f 904 912 932
f 196 195 249
f 249 195 302
f 214 267 270
f 261 283 270
f 270 267 261
f 214 278 280
f 280 267 214
f 283 217 216
f 214 270 216
f 216 270 283
f 244 209 243
f 209 226 243
f 189 184 186
f 186 191 189
f 189 191 184
f 901 923 918
f 918 916 901
f 928 920 927
f 927 929 928
f 926 929 927
f 923 926 927
f 927 918 923
f 916 918 927
f 927 920 919
f 919 916 927
f 789 902 716
f 911 809 717
f 717 907 911
f 809 793 717
f 902 907 717
f 717 716 902
f 981 991 979
f 991 1019 979
f 979 1019 1009
f 979 978 981
f 1009 980 979
f 980 978 979
f 1092 1093 1011
f 1015 1020 1049
f 1093 1020 1015
f 1015 1016 986
f 1011 1093 1013
f 986 985 1013
f 1013 985 1011
f 1013 1015 986
f 1093 1015 1013
f 1028 1020 1022
f 1022 1019 1028
f 1009 1019 1022
f 1043 1038 1045
f 1038 1046 1045
f 1045 1070 1043
f 1045 1046 1070
f 1059 1050 1041
f 1041 1050 1038
f 1041 1038 1034
f 1034 778 1041
f 1041 770 1059
f 778 770 1041
f 1051 1050 1067
f 1067 1055 1051
f 982 1055 1067
f 1067 983 982
f 990 991 981
f 981 983 990
f 990 967 991
f 1068 967 990
f 990 983 1068
f 986 984 976
f 976 985 986
f 976 977 975
f 984 977 976
f 1079 1077 1033
f 1079 1018 1039
f 1078 1077 1079
f 1033 1023 1079
f 1023 1018 1079
f 1079 1096 1078
f 1039 1096 1079
f 985 976 1005
f 1005 1057 1008
f 1008 1090 1005
f 1024 1032 1014
f 1014 1012 1024
f 445 444 1014
f 1014 444 1012
f 975 977 1065
f 1042 1032 1061
f 1061 1065 1042
f 1068 1063 675
f 675 954 1068
f 679 954 675
f 675 659 679
f 618 627 619
f 636 627 618
f 672 618 619
f 617 618 672
f 653 617 620
f 626 676 638
f 638 627 626
f 638 676 619
f 619 627 638
f 949 958 953
f 953 958 956
f 953 954 679
f 956 954 953
f 960 956 963
f 956 958 963
f 1095 1037 1044
f 1044 1102 1095
f 1043 1102 1044
f 1044 1038 1043
f 1034 1038 1044
f 1044 1037 1034
f 1103 1104 1095
f 1095 1102 1103
f 1103 1102 1043
f 1024 1012 1026
f 1026 1012 1025
f 687 761 762
f 762 761 764
f 609 1201 1200
f 1200 597 609
f 597 1200 1235
f 551 511 569
f 569 511 526
f 573 551 569
f 569 526 573
f 551 478 483
f 483 511 551
f 483 478 477
f 526 511 504
f 511 483 504
f 609 597 596
f 596 597 583
f 583 561 598
f 598 596 583
f 599 596 598
f 553 598 561
f 599 598 553
f 1241 1202 1230
f 614 1231 1230
f 1230 1244 1241
f 1230 1231 1244
f 528 523 527
f 540 523 528
f 528 570 540
f 527 526 528
f 526 504 528
f 496 570 528
f 528 504 496
f 507 472 520
f 507 508 473
f 488 508 507
f 520 533 507
f 564 472 474
f 474 550 564
f 474 507 473
f 472 507 474
f 473 549 474
f 549 550 474
f 519 533 520
f 519 523 540
f 540 533 519
f 558 413 605
f 413 416 605
f 489 482 487
f 482 488 487
f 540 570 518
f 518 533 540
f 489 487 518
f 1180 1188 1186
f 1193 1192 1258
f 1193 1264 1191
f 1191 1192 1193
f 1207 1231 614
f 1220 1231 1207
f 1101 1062 1228
f 1098 1101 1224
f 1004 1016 1030
f 1016 1098 1030
f 1030 1253 1004
f 1233 1253 1030
f 639 676 631
f 631 632 639
f 619 676 639
f 639 672 619
f 628 642 647
f 868 666 886
f 666 867 886
f 880 1137 886
f 886 872 880
f 886 867 872
f 833 671 670
f 1169 1142 1171
f 1072 1017 1058
f 1072 1076 1083
f 1072 1058 1076
f 1025 1017 1072
f 1083 1106 1072
f 431 415 429
f 429 415 412
f 432 431 429
f 429 412 432
f 453 456 448
f 383 395 384
f 384 378 383
f 383 390 395
f 378 390 383
f 395 390 447
f 453 448 447
f 373 390 388
f 388 390 378
f 370 437 373
f 370 331 369
f 329 381 333
f 329 328 381
f 333 332 329
f 329 332 327
f 329 327 330
f 330 328 329
f 321 424 357
f 357 356 351
f 424 356 357
f 430 422 435
f 430 420 422
f 430 435 330
f 425 420 430
f 351 394 418
f 418 357 351
f 434 422 410
f 410 414 434
f 409 414 410
f 368 369 358
f 358 332 368
f 368 439 440
f 333 439 368
f 368 332 333
f 425 326 426
f 426 326 428
f 330 327 433
f 327 326 433
f 433 430 330
f 433 326 425
f 425 430 433
f 1000 974 1002
f 1002 1018 1000
f 1037 1094 1035
f 1034 1037 1035
f 1035 766 1034
f 1039 1018 1031
f 1031 1094 1039
f 1018 1002 1031
f 157 89 159
f 157 348 340
f 397 399 393
f 402 37 393
f 37 397 393
f 56 397 37
f 56 81 397
f 82 81 56
f 74 67 6
f 6 39 74
f 74 39 36
f 74 36 77
f 77 67 74
f 5 39 6
f 21 39 5
f 5 6 7
f 7 21 5
f 41 21 70
f 71 79 70
f 70 21 68
f 148 147 156
f 156 51 148
f 163 147 148
f 163 148 146
f 146 148 51
f 50 164 149
f 149 51 50
f 149 146 51
f 156 107 22
f 22 107 68
f 7 156 22
f 22 21 7
f 68 21 22
f 162 92 95
f 92 94 95
f 94 110 95
f 340 335 158
f 158 157 340
f 89 157 158
f 82 89 158
f 158 336 82
f 158 335 336
f 68 107 69
f 107 72 69
f 71 70 69
f 69 70 68
f 69 76 71
f 69 72 76
f 76 72 117
f 119 154 117
f 117 108 119
f 117 72 108
f 58 75 45
f 50 8 46
f 8 44 46
f 46 164 50
f 46 44 58
f 58 45 46
f 46 45 75
f 129 134 130
f 124 140 75
f 124 34 129
f 124 75 34
f 129 130 124
f 124 130 140
f 120 121 122
f 122 61 120
f 163 146 120
f 120 64 163
f 61 64 120
f 164 140 139
f 25 24 102
f 102 27 25
f 25 27 26
f 151 10 15
f 10 9 15
f 15 116 151
f 26 116 15
f 142 24 28
f 28 9 142
f 28 25 26
f 24 25 28
f 26 15 28
f 28 15 9
f 141 11 30
f 141 9 11
f 30 142 141
f 142 9 141
f 102 49 48
f 80 61 48
f 48 61 122
f 166 173 174
f 134 173 166
f 166 167 134
f 166 170 12
f 174 170 166
f 12 14 168
f 14 167 168
f 168 166 12
f 167 166 168
f 302 264 300
f 294 264 195
f 29 23 294
f 294 195 29
f 499 513 498
f 469 499 498
f 498 109 469
f 498 238 109
f 612 549 473
f 612 548 549
f 371 361 363
f 363 364 371
f 371 364 372
f 413 389 385
f 411 413 385
f 401 412 411
f 411 385 401
f 401 385 372
f 403 398 352
f 352 354 403
f 403 354 384
f 384 412 403
f 412 401 403
f 427 324 337
f 324 364 337
f 337 364 363
f 337 363 321
f 321 427 337
f 372 364 375
f 375 364 398
f 375 401 372
f 398 403 375
f 375 403 401
f 1215 1210 1221
f 1215 1245 1220
f 1220 1207 1215
f 1215 1207 1210
f 1215 1221 1191
f 1191 1245 1215
f 1204 1210 592
f 1210 1207 592
f 1075 1080 1082
f 1082 1080 995
f 1255 1192 1221
f 1233 1192 1255
f 1255 1253 1233
f 461 467 466
f 466 467 581
f 1081 467 1075
f 1075 1082 1081
f 1075 467 464
f 458 463 464
f 461 458 464
f 464 467 461
f 580 575 581
f 153 171 169
f 169 171 165
f 169 154 153
f 169 117 154
f 126 154 119
f 119 137 126
f 137 701 126
f 786 774 729
f 788 777 698
f 782 737 731
f 731 786 782
f 774 786 731
f 729 774 731
f 731 713 729
f 738 737 739
f 739 759 738
f 739 763 759
f 787 752 782
f 735 752 787
f 695 734 746
f 695 752 734
f 695 761 687
f 805 752 695
f 746 756 695
f 695 756 761
f 695 686 805
f 687 686 695
f 784 760 728
f 784 790 760
f 728 135 784
f 716 717 714
f 714 715 789
f 789 716 714
f 792 795 760
f 760 790 792
f 792 793 808
f 792 790 793
f 92 73 104
f 104 110 92
f 723 87 730
f 86 87 723
f 730 758 750
f 750 723 730
f 768 802 702
f 794 802 768
f 704 711 684
f 704 705 711
f 801 711 709
f 709 708 801
f 697 708 780
f 698 697 780
f 732 736 780
f 780 788 698
f 780 781 732
f 780 708 781
f 780 736 735
f 735 788 780
f 757 749 721
f 757 721 773
f 773 756 757
f 746 749 757
f 757 756 746
f 749 742 743
f 743 742 733
f 733 625 743
f 634 625 624
f 634 640 721
f 633 640 634
f 634 624 633
f 1138 1133 1139
f 1133 1144 1139
f 1139 1140 1138
f 1182 1140 1139
f 1139 1177 1182
f 1139 1144 1254
f 884 827 1125
f 826 827 884
f 816 827 826
f 826 815 816
f 812 821 816
f 821 827 816
f 816 813 812
f 816 815 813
f 936 942 933
f 942 914 933
f 843 847 864
f 887 881 869
f 869 874 887
f 831 829 825
f 939 831 825
f 940 831 939
f 911 940 939
f 939 809 911
f 939 691 809
f 688 691 700
f 840 854 853
f 853 848 840
f 840 843 854
f 840 848 841
f 861 853 856
f 851 837 855
f 855 837 844
f 810 683 807
f 689 683 810
f 807 795 810
f 808 690 810
f 810 690 689
f 810 792 808
f 795 792 810
f 1234 1232 1064
f 1132 1234 1064
f 1064 1232 1060
f 1129 1131 1064
f 1064 1131 1132
f 1064 973 1129
f 1060 973 1064
f 1156 1190 1118
f 1183 1184 1243
f 1243 1190 1183
f 1179 1184 1183
f 1183 1190 1179
f 1225 1224 1227
f 1228 1238 1227
f 1227 1101 1228
f 1227 1224 1101
f 1135 1238 1234
f 1135 1234 1132
f 1132 1134 1135
f 1120 1122 1128
f 1131 1122 1121
f 1111 1113 1121
f 1122 1120 1121
f 1112 1134 1131
f 1131 1121 1112
f 1112 1121 1113
f 1112 1113 1162
f 1029 1047 1028
f 1029 1053 1047
f 1028 1019 1029
f 1244 1265 1261
f 1241 1244 1261
f 1261 1260 1241
f 1264 1260 1261
f 1261 1265 1264
f 1138 1140 1161
f 1140 1151 1161
f 885 884 1141
f 1141 1137 880
f 880 885 1141
f 1125 1146 1141
f 1141 884 1125
f 1138 1161 1160
f 1160 1145 1138
f 1146 1160 1168
f 1164 1150 1168
f 1168 1160 1164
f 1149 1150 1148
f 493 595 516
f 494 492 493
f 493 492 595
f 516 595 546
f 546 582 516
f 198 197 517
f 535 554 517
f 517 554 198
f 515 535 517
f 290 277 287
f 287 277 272
f 242 241 287
f 287 293 242
f 272 293 287
f 192 194 229
f 229 181 192
f 192 181 215
f 190 203 212
f 222 181 229
f 309 295 251
f 251 311 309
f 309 306 295
f 309 311 306
f 135 132 785
f 785 784 135
f 790 784 785
f 715 714 785
f 785 714 790
f 143 132 131
f 131 145 143
f 715 785 143
f 143 785 132
f 789 715 143
f 143 145 789
f 102 24 113
f 113 84 102
f 113 114 84
f 184 144 185
f 144 127 185
f 186 184 185
f 30 196 43
f 17 127 19
f 232 231 217
f 232 217 285
f 274 237 232
f 237 231 232
f 237 273 282
f 282 231 237
f 282 253 231
f 298 253 282
f 282 284 298
f 282 277 284
f 272 277 282
f 282 273 272
f 255 265 900
f 255 900 925
f 915 917 912
f 915 912 908
f 915 913 841
f 908 913 915
f 944 917 839
f 844 837 839
f 925 899 905
f 899 904 905
f 905 904 932
f 905 926 925
f 932 926 905
f 196 249 257
f 257 249 267
f 267 280 257
f 250 280 278
f 16 43 250
f 250 257 280
f 250 43 196
f 196 257 250
f 274 232 299
f 299 232 285
f 299 272 274
f 299 293 272
f 214 216 211
f 218 226 211
f 211 226 209
f 211 217 218
f 211 216 217
f 228 226 218
f 218 217 228
f 228 217 236
f 236 255 228
f 228 243 226
f 244 243 922
f 922 243 924
f 922 898 244
f 923 898 922
f 922 924 923
f 965 991 960
f 960 961 965
f 1128 971 970
f 1010 980 1009
f 1021 1020 1093
f 1093 1092 1021
f 1009 1022 1021
f 1021 1022 1020
f 1021 1010 1009
f 1021 1092 1091
f 1091 1010 1021
f 1099 1015 1049
f 1099 1101 1098
f 1099 1098 1016
f 1016 1015 1099
f 1066 1067 1050
f 983 1067 1066
f 1066 1050 1063
f 1066 1063 1068
f 1068 983 1066
f 985 1005 1006
f 1006 1005 1090
f 1011 985 1006
f 1006 1090 1091
f 1091 1092 1006
f 1006 1092 1011
f 1036 1014 1032
f 1036 1032 1042
f 1036 451 445
f 445 1014 1036
f 1042 1040 1036
f 454 451 1036
f 1036 1040 454
f 1087 976 975
f 1087 1005 976
f 975 1065 1087
f 1065 1061 1087
f 1057 1005 1087
f 1087 1061 1057
f 1057 1061 1052
f 1052 1032 1024
f 1052 1061 1032
f 726 640 645
f 721 640 726
f 773 721 726
f 726 660 773
f 662 660 659
f 662 1063 1059
f 662 675 1063
f 659 675 662
f 645 649 648
f 648 726 645
f 660 726 648
f 659 660 648
f 646 618 617
f 646 652 636
f 636 618 646
f 653 652 646
f 646 617 653
f 617 672 667
f 666 620 667
f 667 620 617
f 667 665 666
f 666 653 658
f 658 620 666
f 653 620 658
f 657 957 947
f 947 955 657
f 653 1169 657
f 1169 957 657
f 949 953 678
f 964 958 949
f 964 963 958
f 950 964 946
f 946 955 947
f 945 950 946
f 946 957 945
f 947 957 946
f 992 1106 1107
f 1043 1070 1069
f 1069 1103 1043
f 1089 1010 1091
f 1091 1090 1089
f 1089 1090 1008
f 1070 1073 988
f 1024 1026 1054
f 1054 1052 1024
f 1057 1052 1054
f 1085 1026 1025
f 1106 1026 1085
f 1025 1072 1085
f 1085 1072 1106
f 994 1106 992
f 994 1026 1106
f 562 556 567
f 556 563 567
f 1213 897 1199
f 897 1194 1199
f 1266 1188 1176
f 496 504 497
f 497 504 483
f 494 496 497
f 497 492 494
f 497 483 477
f 477 492 497
f 615 1230 1202
f 614 1230 615
f 615 613 614
f 611 613 615
f 602 552 587
f 553 552 602
f 587 613 602
f 602 613 611
f 599 553 602
f 609 596 603
f 603 596 599
f 599 602 603
f 603 602 611
f 523 519 521
f 521 530 523
f 520 472 521
f 521 519 520
f 502 605 476
f 505 507 533
f 533 518 505
f 505 518 487
f 488 507 505
f 505 487 488
f 522 570 494
f 522 518 570
f 494 493 522
f 1196 1195 1182
f 1196 1180 1195
f 1179 1180 1181
f 1181 1184 1179
f 1185 1184 1181
f 1186 1185 1181
f 1181 1180 1186
f 1264 1193 1189
f 1185 1264 1189
f 1189 1184 1185
f 1258 1184 1189
f 1189 1193 1258
f 1049 1062 1100
f 1062 1101 1100
f 1100 1099 1049
f 1101 1099 1100
f 1226 1225 1233
f 1233 1030 1226
f 1226 1224 1225
f 1098 1224 1226
f 1226 1030 1098
f 672 639 641
f 665 667 641
f 641 667 672
f 641 639 632
f 647 665 641
f 1136 886 1137
f 868 886 1136
f 1136 666 868
f 1136 1142 666
f 674 867 666
f 674 671 867
f 655 654 823
f 622 654 655
f 1165 1174 1171
f 945 957 1126
f 1126 1120 1128
f 423 448 456
f 423 456 432
f 395 447 423
f 423 447 448
f 432 412 423
f 423 412 384
f 384 395 423
f 996 984 997
f 996 977 984
f 997 995 996
f 995 1080 996
f 457 463 458
f 457 456 453
f 458 456 457
f 453 446 452
f 452 457 453
f 463 457 452
f 1071 1065 977
f 977 996 1071
f 1071 996 1080
f 1071 1040 1042
f 1042 1065 1071
f 453 447 392
f 392 447 390
f 392 446 453
f 441 446 392
f 392 390 441
f 353 331 362
f 331 370 362
f 362 378 353
f 362 388 378
f 373 388 362
f 362 370 373
f 360 428 321
f 321 357 360
f 360 357 428
f 428 357 421
f 357 418 421
f 425 426 421
f 421 426 428
f 421 420 425
f 421 418 420
f 422 420 419
f 419 410 422
f 420 418 419
f 369 368 436
f 436 370 369
f 437 370 436
f 440 437 436
f 436 368 440
f 974 744 748
f 748 1002 974
f 1097 1035 1094
f 1094 1031 1097
f 160 157 159
f 160 159 740
f 740 744 160
f 160 744 974
f 974 348 160
f 348 157 160
f 40 39 41
f 36 39 40
f 37 36 40
f 40 56 37
f 175 149 164
f 146 149 175
f 164 139 175
f 121 120 175
f 175 120 146
f 175 155 121
f 175 139 155
f 105 107 162
f 162 95 105
f 105 72 107
f 108 72 105
f 105 110 108
f 105 95 110
f 161 140 164
f 164 46 161
f 75 140 161
f 161 46 75
f 134 167 150
f 150 130 134
f 151 130 150
f 150 10 151
f 150 14 10
f 150 167 14
f 140 130 138
f 138 139 140
f 138 130 151
f 151 155 138
f 155 139 138
f 60 118 27
f 60 27 102
f 102 48 60
f 122 118 60
f 60 48 122
f 47 49 83
f 47 48 49
f 83 86 47
f 47 86 80
f 80 48 47
f 292 300 263
f 260 300 264
f 264 294 260
f 256 263 260
f 263 300 260
f 23 256 260
f 260 294 23
f 263 275 286
f 220 316 221
f 221 222 220
f 233 245 225
f 225 206 233
f 206 103 233
f 233 103 109
f 109 238 233
f 503 498 513
f 503 513 515
f 473 508 608
f 608 612 473
f 607 612 608
f 608 484 607
f 608 508 484
f 607 536 606
f 606 612 607
f 379 371 372
f 372 385 379
f 361 371 379
f 379 385 389
f 549 548 379
f 379 389 549
f 1204 592 616
f 616 592 581
f 581 467 616
f 616 1081 1204
f 467 1081 616
f 581 592 586
f 586 592 1207
f 586 580 581
f 1216 1210 1204
f 1221 1210 1216
f 462 459 461
f 581 575 571
f 571 466 581
f 575 462 571
f 461 466 571
f 571 462 461
f 588 1207 614
f 614 613 588
f 588 586 1207
f 580 586 588
f 587 580 588
f 588 613 587
f 575 580 577
f 76 117 112
f 117 169 112
f 165 76 112
f 112 169 165
f 153 154 152
f 154 126 152
f 729 777 775
f 775 786 729
f 777 786 775
f 713 731 727
f 727 731 737
f 701 713 727
f 779 737 782
f 779 739 737
f 783 752 805
f 782 752 783
f 805 800 783
f 783 779 782
f 739 779 783
f 763 739 783
f 735 787 791
f 791 788 735
f 782 786 791
f 791 787 782
f 791 786 777
f 777 788 791
f 793 790 718
f 790 714 718
f 718 717 793
f 718 714 717
f 706 701 137
f 706 713 701
f 96 724 741
f 137 110 136
f 110 104 136
f 136 706 137
f 754 758 794
f 754 750 758
f 794 768 754
f 754 768 750
f 741 724 722
f 750 768 722
f 723 750 722
f 712 709 711
f 711 705 712
f 712 705 710
f 710 719 707
f 707 712 710
f 709 712 707
f 707 719 733
f 708 709 707
f 733 781 707
f 781 708 707
f 749 743 751
f 751 743 625
f 625 634 751
f 721 749 751
f 751 634 721
f 1254 1257 1259
f 1259 1139 1254
f 1177 1139 1259
f 875 826 882
f 826 884 882
f 882 884 885
f 882 885 880
f 880 873 882
f 882 873 875
f 899 903 909
f 903 933 909
f 908 904 909
f 909 904 899
f 909 914 908
f 909 933 914
f 931 933 903
f 931 903 298
f 298 304 931
f 931 304 303
f 936 933 931
f 931 935 936
f 931 303 935
f 881 873 866
f 866 869 881
f 866 873 871
f 859 869 866
f 864 874 870
f 874 869 870
f 870 869 859
f 870 843 864
f 823 824 828
f 828 655 823
f 670 655 828
f 834 824 829
f 829 831 830
f 830 837 851
f 836 837 830
f 851 834 830
f 830 834 829
f 819 700 825
f 819 824 823
f 823 654 819
f 654 700 819
f 825 829 819
f 829 824 819
f 691 939 818
f 818 700 691
f 818 939 825
f 825 700 818
f 623 700 654
f 623 654 622
f 622 621 623
f 623 621 688
f 688 700 623
f 843 840 842
f 842 845 847
f 847 843 842
f 842 840 841
f 841 913 842
f 842 913 845
f 811 671 833
f 833 670 811
f 865 861 857
f 857 855 865
f 853 861 865
f 865 855 844
f 844 848 865
f 865 848 853
f 1198 1180 1179
f 1195 1180 1198
f 1179 1190 1198
f 1190 1156 1198
f 1154 1195 1153
f 1195 1198 1153
f 1153 1198 1156
f 1153 1151 1154
f 1148 1151 1153
f 1236 1237 1225
f 1225 1227 1236
f 1236 1227 1238
f 1243 1237 1236
f 1236 1175 1243
f 1236 1135 1175
f 1238 1135 1236
f 1114 1135 1134
f 1116 1118 1114
f 1114 1118 1175
f 1175 1135 1114
f 1114 1162 1116
f 1114 1112 1162
f 1134 1112 1114
f 1152 1161 1151
f 1152 1151 1148
f 1164 1160 1152
f 1152 1160 1161
f 1152 1150 1164
f 1148 1150 1152
f 1155 1141 1146
f 1155 1168 1166
f 1146 1168 1155
f 1145 1160 1147
f 1125 1123 1147
f 1147 1123 1145
f 1147 1146 1125
f 1147 1160 1146
f 1116 1162 1119
f 1119 1149 1148
f 595 492 591
f 477 486 591
f 591 492 477
f 591 486 590
f 590 258 544
f 544 258 234
f 557 582 543
f 582 546 543
f 248 241 247
f 248 287 241
f 248 247 290
f 290 287 248
f 227 192 215
f 227 544 234
f 202 194 193
f 194 192 193
f 192 227 193
f 193 227 234
f 219 202 193
f 234 235 193
f 193 235 219
f 221 316 204
f 316 286 183
f 262 249 302
f 261 267 262
f 267 249 262
f 42 24 142
f 16 17 42
f 42 43 16
f 42 142 30
f 30 43 42
f 276 17 16
f 276 250 278
f 16 250 276
f 276 278 186
f 254 255 236
f 265 255 254
f 236 231 254
f 231 253 254
f 253 265 254
f 846 915 841
f 917 915 846
f 846 839 917
f 844 839 846
f 841 848 846
f 846 848 844
f 836 944 838
f 944 839 838
f 838 837 836
f 838 839 837
f 271 283 261
f 271 285 283
f 261 262 271
f 271 262 279
f 281 271 279
f 285 271 281
f 242 293 207
f 293 289 207
f 207 208 242
f 194 208 207
f 288 289 293
f 293 299 288
f 288 281 289
f 288 299 285
f 285 281 288
f 214 211 210
f 210 211 209
f 210 278 214
f 186 278 210
f 210 191 186
f 209 191 210
f 243 228 259
f 259 228 255
f 924 243 259
f 925 924 259
f 259 255 925
f 959 1019 991
f 991 965 959
f 959 965 969
f 959 1029 1019
f 969 1029 959
f 973 1053 972
f 972 971 973
f 972 970 971
f 1053 1029 972
f 972 1029 969
f 951 950 945
f 1128 970 951
f 951 952 950
f 970 952 951
f 945 1126 951
f 951 1126 1128
f 773 660 776
f 660 662 776
f 776 769 773
f 776 770 769
f 1059 770 776
f 776 662 1059
f 679 659 661
f 659 648 661
f 661 648 649
f 661 649 650
f 650 673 661
f 656 673 650
f 653 657 656
f 656 678 673
f 657 678 656
f 650 652 656
f 656 652 653
f 673 678 677
f 677 678 953
f 677 953 679
f 679 661 677
f 677 661 673
f 963 964 966
f 966 964 950
f 950 952 966
f 948 964 949
f 948 946 964
f 949 678 948
f 948 678 657
f 955 946 948
f 948 657 955
f 1104 1103 1105
f 1083 1104 1105
f 1105 1106 1083
f 989 1001 992
f 987 989 992
f 988 989 987
f 993 1054 1026
f 1026 994 993
f 1008 1057 993
f 1057 1054 993
f 992 1001 993
f 993 994 992
f 1197 1194 562
f 562 567 1197
f 1197 567 1203
f 1197 1199 1194
f 1203 1199 1197
f 573 584 594
f 594 584 597
f 1203 567 589
f 585 1222 589
f 551 585 565
f 542 551 565
f 565 563 542
f 585 589 565
f 565 567 563
f 565 589 567
f 1246 1235 1200
f 1178 1266 1176
f 1178 1263 1266
f 1176 1177 1178
f 1177 1259 1178
f 1257 1263 1178
f 1178 1259 1257
f 512 552 509
f 509 500 512
f 512 500 510
f 587 552 512
f 510 577 512
f 541 530 509
f 509 552 541
f 545 523 541
f 523 530 541
f 541 552 553
f 541 561 545
f 541 553 561
f 610 1202 609
f 609 603 610
f 610 603 611
f 610 615 1202
f 611 615 610
f 601 564 558
f 558 605 601
f 601 605 502
f 502 600 601
f 531 600 530
f 530 521 531
f 564 601 531
f 531 601 600
f 531 472 564
f 531 521 472
f 417 605 416
f 417 476 605
f 416 415 417
f 476 417 475
f 475 462 575
f 514 493 516
f 514 522 493
f 518 522 514
f 489 518 514
f 514 491 489
f 516 491 514
f 1180 1196 1187
f 1176 1188 1187
f 1188 1180 1187
f 1187 1182 1176
f 1187 1196 1182
f 647 641 663
f 663 641 632
f 663 628 647
f 632 628 663
f 710 705 629
f 705 630 629
f 631 710 629
f 629 630 628
f 629 632 631
f 629 628 632
f 705 704 644
f 644 630 705
f 644 704 684
f 684 683 644
f 644 683 685
f 644 643 642
f 685 643 644
f 642 628 644
f 628 630 644
f 668 651 622
f 622 655 668
f 1166 1174 1143
f 1174 1165 1143
f 1143 1155 1166
f 1141 1155 1143
f 1137 1141 1143
f 1143 1136 1137
f 1142 1136 1143
f 1143 1171 1142
f 1143 1165 1171
f 1169 1171 1172
f 1172 957 1169
f 1172 1163 1115
f 1115 1163 1110
f 1110 1126 1115
f 1124 1113 1111
f 1111 1110 1124
f 1124 1110 1163
f 1127 1126 957
f 1115 1126 1127
f 957 1172 1127
f 1127 1172 1115
f 1120 1126 1109
f 1111 1121 1109
f 1109 1121 1120
f 1109 1110 1111
f 1126 1110 1109
f 455 446 454
f 455 452 446
f 454 1040 455
f 463 452 455
f 1040 1071 455
f 1075 464 465
f 465 464 463
f 463 455 465
f 465 455 1071
f 404 419 418
f 404 394 402
f 404 418 394
f 410 419 404
f 409 410 404
f 404 399 409
f 402 393 404
f 404 393 399
f 766 1035 765
f 764 766 765
f 765 762 764
f 55 40 41
f 56 40 55
f 41 70 55
f 55 70 79
f 55 79 82
f 82 56 55
f 302 300 301
f 300 292 301
f 301 262 302
f 279 262 301
f 301 292 307
f 307 281 301
f 301 281 279
f 291 220 307
f 316 220 291
f 307 292 291
f 291 292 263
f 263 286 291
f 291 286 316
f 307 220 223
f 223 220 222
f 223 281 307
f 289 281 223
f 245 233 239
f 239 233 238
f 238 498 239
f 498 503 239
f 506 503 515
f 197 245 506
f 515 517 506
f 506 517 197
f 604 536 537
f 604 606 536
f 612 606 604
f 999 1082 995
f 999 1081 1082
f 1204 1081 999
f 999 1216 1204
f 1216 999 998
f 998 999 995
f 998 995 997
f 997 1004 998
f 1004 1253 998
f 1249 1255 1221
f 1221 1216 1249
f 1216 998 1249
f 1253 1255 1249
f 1249 998 1253
f 510 500 490
f 476 475 490
f 502 476 490
f 490 500 502
f 490 475 575
f 575 577 490
f 490 577 510
f 530 600 501
f 509 530 501
f 501 500 509
f 501 600 502
f 502 500 501
f 720 152 126
f 720 126 701
f 720 737 738
f 701 727 720
f 720 727 737
f 738 753 725
f 725 720 738
f 152 720 725
f 753 153 725
f 153 152 725
f 702 703 693
f 703 713 693
f 713 706 693
f 93 104 73
f 73 62 93
f 80 86 91
f 91 62 80
f 91 93 62
f 96 93 91
f 724 96 100
f 723 722 100
f 100 722 724
f 86 723 100
f 100 91 86
f 96 91 100
f 106 136 104
f 104 93 106
f 106 93 96
f 106 96 741
f 706 136 106
f 106 693 706
f 863 866 871
f 856 859 863
f 859 866 863
f 860 859 854
f 860 870 859
f 854 843 860
f 843 870 860
f 824 834 852
f 852 857 858
f 852 855 857
f 851 855 852
f 852 834 851
f 836 830 832
f 832 830 831
f 832 940 836
f 832 831 940
f 862 811 670
f 857 861 862
f 861 811 862
f 1148 1153 1117
f 1117 1119 1148
f 1116 1119 1117
f 1117 1118 1116
f 1117 1156 1118
f 1117 1153 1156
f 547 546 595
f 595 591 547
f 547 543 546
f 544 543 547
f 547 591 590
f 590 544 547
f 212 557 568
f 557 543 568
f 568 215 212
f 181 222 320
f 320 204 190
f 320 222 221
f 221 204 320
f 203 190 188
f 188 245 197
f 188 197 198
f 198 203 188
f 245 188 187
f 225 245 187
f 187 183 225
f 182 204 316
f 316 183 182
f 183 187 182
f 190 204 182
f 182 188 190
f 182 187 188
f 213 286 275
f 213 183 286
f 213 205 224
f 213 224 225
f 225 183 213
f 213 275 201
f 201 205 213
f 18 113 24
f 24 42 18
f 19 114 18
f 114 113 18
f 18 17 19
f 18 42 17
f 127 17 297
f 17 276 297
f 297 185 127
f 186 185 297
f 297 276 186
f 230 207 289
f 230 223 222
f 289 223 230
f 230 222 229
f 229 194 230
f 194 207 230
f 961 952 968
f 968 952 970
f 968 965 961
f 970 972 968
f 969 965 968
f 968 972 969
f 962 952 961
f 962 966 952
f 962 961 960
f 960 963 962
f 963 966 962
f 1108 1107 1106
f 1106 1105 1108
f 1108 1105 1103
f 1103 1069 1108
f 1108 1069 1070
f 1070 988 1108
f 988 987 1108
f 992 1107 1108
f 1108 987 992
f 1001 989 1007
f 1007 993 1001
f 1007 1089 1008
f 1008 993 1007
f 1223 1222 585
f 1213 1199 1212
f 1199 1211 1212
f 1212 1251 1213
f 1250 1251 1212
f 1262 1263 1257
f 1214 1199 1203
f 1214 1211 1199
f 1256 1254 1250
f 1250 1212 1256
f 1256 1212 1211
f 1256 1257 1254
f 1256 1262 1257
f 1248 1263 1242
f 1266 1263 1248
f 1206 1188 1247
f 1188 1266 1247
f 1247 1201 1206
f 1266 1248 1247
f 1247 1248 1246
f 1247 1200 1201
f 1247 1246 1200
f 587 512 579
f 579 512 577
f 579 580 587
f 579 577 580
f 460 415 431
f 460 417 415
f 431 459 460
f 459 462 460
f 462 475 460
f 460 475 417
f 669 670 671
f 671 674 669
f 669 655 670
f 669 668 655
f 1163 1172 1167
f 1167 1172 1171
f 1162 1113 1158
f 1113 1124 1158
f 1158 1119 1162
f 1074 1080 1075
f 1075 465 1074
f 1074 1071 1080
f 1074 465 1071
f 771 1031 1002
f 1002 748 771
f 696 1097 1031
f 1031 771 696
f 696 771 803
f 1035 1097 696
f 696 765 1035
f 759 763 767
f 767 783 800
f 763 783 767
f 246 239 503
f 503 506 246
f 245 239 246
f 246 506 245
f 548 612 471
f 612 604 471
f 361 379 471
f 471 379 548
f 694 106 741
f 693 106 694
f 741 722 694
f 694 722 768
f 694 768 702
f 702 693 694
f 817 861 856
f 856 863 817
f 817 811 861
f 871 872 822
f 822 863 871
f 822 817 863
f 811 817 822
f 671 811 822
f 872 867 822
f 867 671 822
f 835 828 824
f 824 852 835
f 835 852 858
f 670 828 835
f 835 862 670
f 858 857 835
f 857 862 835
f 215 568 240
f 240 568 543
f 240 227 215
f 240 543 544
f 544 227 240
f 181 320 180
f 180 320 190
f 180 190 212
f 212 215 180
f 215 181 180
f 1089 1007 1088
f 980 1010 1088
f 1010 1089 1088
f 1086 980 1088
f 1084 989 988
f 1084 1007 989
f 1084 988 1073
f 1084 1073 1086
f 1086 1088 1084
f 1084 1088 1007
f 1242 1223 1239
f 1239 1248 1242
f 1246 1248 1239
f 1235 1246 1239
f 1239 1223 1235
f 1229 1223 1242
f 1203 589 1229
f 1229 589 1222
f 1222 1223 1229
f 593 1223 585
f 1235 1223 593
f 597 1235 593
f 593 594 597
f 1217 1214 1203
f 1217 1229 1242
f 1203 1229 1217
f 664 669 674
f 666 665 664
f 664 674 666
f 668 669 664
f 664 665 647
f 647 651 664
f 651 668 664
f 1159 1124 1163
f 1163 1167 1159
f 1159 1158 1124
f 1173 1174 1166
f 1166 1168 1173
f 1173 1168 1150
f 1150 1149 1173
f 1171 1174 1170
f 1170 1167 1171
f 1174 1173 1170
f 772 771 748
f 803 771 772
f 762 765 682
f 682 686 687
f 687 762 682
f 804 696 803
f 361 471 470
f 470 471 604
f 470 356 361
f 537 356 470
f 470 604 537
f 572 593 585
f 572 551 573
f 572 585 551
f 573 594 572
f 594 593 572
f 1219 1256 1211
f 1262 1256 1219
f 1219 1217 1242
f 1242 1263 1219
f 1263 1262 1219
f 1158 1159 1157
f 1149 1119 1157
f 1119 1158 1157
f 1157 1173 1149
f 1157 1170 1173
f 1157 1159 1167
f 1167 1170 1157
f 767 804 747
f 803 772 747
f 747 804 803
f 745 759 747
f 759 767 747
f 747 772 748
f 747 744 745
f 747 748 744
f 696 804 680
f 765 696 680
f 680 682 765
f 681 767 800
f 681 804 767
f 681 680 804
f 682 680 681
f 681 800 805
f 805 686 681
f 686 682 681
f 1214 1217 1218
f 1217 1219 1218
f 1211 1214 1218
f 1218 1219 1211

