# https://github.com/mikedh/trimesh
v -0.01902300 -0.09323100 0.00536900
v -0.01873700 -0.09424000 0.00610800
v -0.02063500 -0.09299600 0.00571000
v -0.03958200 -0.01352900 0.01164600
v -0.03822000 -0.00710900 0.01114700
v -0.03789600 -0.01485200 0.00808000
v -0.01797200 -0.09350600 0.00558300
v -0.02314400 -0.09140300 0.00642200
v -0.02256300 -0.09390200 0.00783700
v -0.02688000 -0.05116200 -0.00017400
v -0.02765200 -0.04179200 -0.00023700
v -0.03374800 -0.06982900 0.02534900
v -0.02400400 -0.09412300 0.00976000
v -0.02232000 -0.09540200 0.00965500
v -0.02950500 -0.08169000 0.02212900
v -0.03076300 -0.08138300 0.02071500
v -0.02600600 -0.09090200 0.00892700
v -0.02052300 -0.09457200 0.00713200
v -0.01988300 -0.09495400 0.00751700
v -0.03447100 -0.01282100 0.00389500
v -0.03612400 -0.01087600 0.00644200
v -0.03497800 -0.00760200 0.00582200
v -0.03426300 -0.07756500 0.01701800
v -0.03182600 -0.07994300 0.02026300
v -0.01742900 -0.09529100 0.00885200
v -0.03214600 -0.00177300 0.00405500
v -0.03316000 -0.00967600 0.00317900
v -0.02102800 -0.09591300 0.01033900
v -0.01827900 -0.09598500 0.01112900
v -0.03361500 -0.07342900 0.02325500
v -0.03350500 -0.07657400 0.02054300
v -0.02643700 -0.08778600 0.00715600
v -0.02393400 -0.08649400 0.00449900
v -0.03140500 -0.07797600 0.02264200
v -0.02604000 -0.08577000 0.00570700
v -0.03214200 -0.07474500 0.02421600
v -0.02531900 -0.08370700 0.00442100
v -0.02293800 -0.08555500 0.00370100
v -0.03021000 -0.07584100 0.02505800
v -0.02067300 -0.09017500 0.00454400
v -0.01871300 -0.09139000 0.00469800
v -0.01645600 -0.09305700 0.00571400
v -0.03570200 -0.05026500 0.00409600
v -0.03306300 -0.05495800 0.00228200
v -0.03638800 -0.00505800 0.00867500
v -0.01583100 -0.09056800 0.00501500
v -0.01827600 -0.08926100 0.00419600
v -0.02167200 -0.08491500 0.00326700
v -0.02433000 -0.08601100 0.02311000
v -0.03430800 -0.04624200 0.00220000
v -0.02234600 -0.08611700 0.02369200
v -0.01934500 -0.08363600 0.00308100
v -0.01649200 -0.08488000 0.00377100
v -0.01518600 -0.08558700 0.00425500
v -0.03326000 0.00058800 0.00610100
v -0.02321800 -0.08888000 0.00515100
v -0.03187700 -0.05429400 0.00124800
v -0.03238300 -0.04864000 0.00095200
v -0.03029300 -0.05643800 0.00049800
v -0.02934600 -0.00997600 0.00068200
v -0.02285800 -0.08104400 0.02546800
v -0.03054800 -0.00746100 0.00149700
v -0.02747300 -0.00230900 0.00075200
v -0.01976600 -0.08135100 0.02597900
v -0.02818300 0.00083900 0.00133400
v -0.02764700 -0.07529300 0.02636700
v -0.03780300 -0.05163600 0.00702100
v -0.03911200 -0.05499600 0.01001000
v -0.02647100 -0.08033900 0.00396900
v -0.02662300 -0.07423900 0.00210300
v -0.03536400 -0.07165400 0.02178100
v -0.02551200 -0.07389900 0.00164600
v -0.02093600 -0.08071100 0.00250100
v -0.03775800 -0.04667200 0.00617400
v -0.03110000 -0.00296300 0.00272900
v -0.03173500 -0.07118600 0.02624400
v -0.01780300 -0.08013900 0.00288900
v -0.02552500 -0.07398900 0.02745100
v -0.03194400 -0.04443500 0.00041100
v -0.02336200 -0.07300000 0.02809500
v -0.03380900 -0.04114900 0.00139900
v -0.03032800 -0.05071800 0.00016200
v -0.02169700 -0.07479400 0.02787800
v -0.03091600 -0.04498400 0.00005200
v -0.02953900 -0.00024800 0.00198200
v -0.01928500 -0.07501000 0.02803200
v -0.03055700 -0.03994400 -0.00015600
v -0.02355900 -0.07411400 0.00150900
v -0.02942100 -0.04846000 -0.00009300
v -0.02541800 -0.06978200 0.00098000
v -0.02174700 -0.07264700 0.00134600
v -0.03174600 -0.06793600 0.02735100
v -0.03382100 -0.06493600 0.02710400
v -0.02916200 -0.06978500 0.02775600
v -0.01920300 -0.07162500 0.00155200
v -0.02370500 -0.06627900 0.00064500
v -0.03589600 -0.04418300 0.00358100
v -0.02575500 -0.06865400 0.02887800
v -0.02915500 -0.06520200 0.02888000
v -0.03827700 -0.04132900 0.00637500
v -0.03726100 -0.03815800 0.00476700
v -0.03447300 -0.03659700 0.00181800
v -0.02872500 0.00591500 0.00270000
v -0.02211300 -0.06771200 0.02958400
v -0.01950800 -0.07097500 0.02905400
v -0.03628700 -0.03719400 0.00355400
v -0.02536300 0.00927200 0.00107600
v -0.02735500 0.00739900 0.00191700
v -0.03751100 -0.06982800 0.01393600
v -0.03952200 -0.06292600 0.01471600
v -0.03780200 -0.06819000 0.01293500
v -0.03862400 -0.06665000 0.01582900
v -0.03977100 -0.05967200 0.01331500
v -0.03853200 -0.06221400 0.01121200
v -0.02341700 -0.06083500 0.00017000
v -0.02391100 -0.05434200 -0.00008900
v -0.03792800 -0.06619900 0.01175700
v -0.03918600 -0.06407500 0.01758100
v -0.04021200 -0.05925600 0.01721700
v -0.04036400 -0.05843300 0.01499500
v -0.02757400 -0.09024400 0.01074000
v -0.02560900 -0.09335300 0.01129700
v -0.02885400 -0.08733800 0.00984900
v -0.03892000 -0.06362800 0.01922300
v -0.03981100 -0.05785300 0.02043900
v -0.02926500 0.00872900 0.00415300
v -0.02953500 -0.08730500 0.01150500
v -0.02965500 -0.08749800 0.01285000
v -0.02565800 -0.09354900 0.01340400
v -0.02348400 -0.09572900 0.01323000
v -0.02269600 -0.09611700 0.01221300
v -0.02313400 -0.09555200 0.01102300
v -0.03752000 -0.06589200 0.02162600
v -0.03758700 -0.06864800 0.01890300
v -0.02187000 -0.09644000 0.01329700
v -0.02179600 -0.09649000 0.01509900
v -0.03995600 -0.05381400 0.01159200
v -0.02731900 -0.09131800 0.01233100
v -0.02405200 -0.09498200 0.01542700
v -0.02266000 -0.09558800 0.01663400
v -0.04003400 -0.04797100 0.01032600
v -0.02514800 -0.09365800 0.01613300
v -0.02466500 -0.09318300 0.01812500
v -0.04100600 -0.05147000 0.01383600
v -0.04098000 -0.05366700 0.01507600
v -0.02711600 -0.09144000 0.01464100
v -0.04070600 -0.05622500 0.01693500
v -0.02690500 -0.09082200 0.01736400
v -0.02187300 -0.09435400 0.01868300
v -0.02326800 -0.09253100 0.01966300
v -0.02893700 -0.08850500 0.01538000
v -0.02762400 -0.08821900 0.01954900
v -0.02542200 -0.09054100 0.01979400
v -0.02901500 -0.08679400 0.01809900
v -0.03817300 -0.06150600 0.02270000
v -0.03595400 -0.06434600 0.02541500
v -0.02156700 -0.09256400 0.02023900
v -0.02301500 -0.08976700 0.02158600
v -0.02587200 -0.08797900 0.02139700
v -0.03558800 -0.06692200 0.02453000
v -0.02144700 -0.08832300 0.02285500
v -0.03511100 -0.06402600 0.02646400
v -0.03632200 -0.06037500 0.02642900
v -0.03053600 -0.07675600 0.00584500
v -0.02916600 -0.07668900 0.00458400
v -0.02886300 -0.07354900 0.00319100
v -0.03322000 -0.07744600 0.00937300
v -0.03179100 -0.07593600 0.00676000
v -0.03792800 -0.05719200 0.02544800
v -0.03896500 -0.05490600 0.02414100
v -0.03167000 -0.07060600 0.00465700
v -0.03628400 -0.05638400 0.02786600
v -0.03350400 -0.07315100 0.00767300
v -0.03354400 -0.07813300 0.01050800
v -0.03416600 -0.07805800 0.01249400
v -0.03473200 -0.07724800 0.01392700
v -0.04108500 -0.05100600 0.01936400
v -0.04169000 -0.04881400 0.01611900
v -0.03520200 -0.07522500 0.01203900
v -0.03608500 -0.07038500 0.01011200
v -0.04022700 -0.04987700 0.02295100
v -0.03694700 -0.07169700 0.01563800
v -0.04186700 -0.04421800 0.02035700
v -0.03571400 -0.07422300 0.01775300
v -0.02767400 -0.08637900 0.00771600
v -0.02522400 -0.06381400 0.02995500
v -0.02973300 -0.02447800 0.00000600
v -0.02971200 -0.01584900 0.00037000
v -0.02066500 -0.06309500 0.03059100
v -0.01835500 -0.06910500 0.02939900
v -0.03175700 -0.08265000 0.01137100
v -0.01873400 -0.05963200 0.03104200
v -0.02732200 -0.07718800 0.00342900
v -0.02127400 -0.05941900 0.03113000
v -0.03225900 -0.03672700 0.00038900
v -0.03121900 -0.03196800 0.00009300
v -0.03448200 -0.02627600 0.00195600
v -0.03502900 -0.03164400 0.00226700
v -0.03334600 -0.03700200 0.00098000
v -0.03247600 -0.02955600 0.00060600
v -0.04102800 -0.04342800 0.01158200
v -0.03976300 -0.04294600 0.00889800
v -0.02967100 -0.03337700 -0.00017200
v -0.04007500 -0.03441700 0.00880900
v -0.02854400 -0.06967700 0.00200600
v -0.04157600 -0.03836900 0.01216600
v -0.03011300 -0.07005300 0.00316100
v -0.02727200 -0.06791800 0.00103400
v -0.04224800 -0.04167800 0.01482000
v -0.04150700 -0.04763500 0.01406500
v -0.04218600 -0.04508800 0.01662900
v -0.02896800 -0.06550200 0.00122900
v -0.03076100 -0.06510300 0.00220500
v -0.04249100 -0.04145700 0.01733600
v -0.04267900 -0.03948000 0.01667200
v -0.04198300 -0.04063500 0.02139700
v -0.03434900 -0.06852300 0.00661200
v -0.04274900 -0.03596500 0.01560700
v -0.03318600 -0.06560600 0.00434200
v -0.04176900 -0.03355000 0.01241300
v -0.03086300 -0.05942000 0.00119800
v -0.03343600 -0.06224300 0.00376000
v -0.02882800 -0.06160500 0.00050900
v -0.02773500 -0.06259400 0.00035400
v -0.02610900 -0.06080700 0.00007700
v -0.03818100 -0.03255200 0.00581300
v -0.02859200 -0.05850000 0.00012300
v -0.03710700 -0.03144900 0.00441900
v -0.03635800 -0.02763100 0.00361700
v -0.03916800 -0.02671900 0.00756100
v -0.03087200 -0.02570000 0.00015500
v -0.03726200 -0.06303600 0.00884300
v -0.03512000 -0.06240900 0.00552900
v -0.03608800 -0.06584400 0.00791000
v -0.03415200 -0.02297200 0.00195000
v -0.03207400 -0.02443800 0.00059300
v -0.03593000 -0.02462900 0.00354200
v -0.03792700 -0.02267300 0.00629300
v -0.04083200 -0.02835200 0.01052800
v -0.04289900 -0.02947900 0.01618600
v -0.04193700 -0.02850900 0.01321000
v -0.03999600 -0.02232200 0.00989600
v -0.04106700 -0.02012000 0.01277200
v -0.04268100 -0.02448800 0.01632000
v -0.03107500 -0.02072000 0.00039300
v -0.03271900 -0.01707600 0.00144600
v -0.03375700 -0.01957600 0.00196200
v -0.03082200 -0.01314200 0.00087500
v -0.03572400 -0.01664600 0.00453500
v -0.03371500 -0.01646200 0.00235900
v -0.03243800 -0.01196700 0.00205700
v -0.01784400 -0.08099800 0.02594600
v -0.01682900 -0.08569200 0.02411700
v -0.01615100 -0.08127100 0.02537300
v -0.01607700 -0.09397600 0.00677100
v -0.01367300 -0.08069300 0.02431200
v -0.01552000 -0.07991300 0.02550300
v -0.01394800 -0.09353100 0.00773300
v -0.01488900 -0.09468100 0.00929900
v -0.01613600 -0.09544000 0.01052300
v -0.01747500 -0.09605400 0.01238000
v -0.01460500 -0.08974300 0.02165700
v -0.01253500 -0.08938900 0.02044800
v -0.01352900 -0.08628700 0.02248900
v -0.01402600 -0.09482400 0.01156500
v -0.01922300 -0.08655000 0.02402600
v -0.01305600 -0.09493600 0.01466500
v -0.01153800 -0.09375600 0.01219800
v -0.01077600 -0.07982700 0.02241200
v -0.01376800 -0.09219200 0.00652300
v -0.01298000 -0.09014300 0.00619900
v -0.01720800 -0.08922000 0.02265300
v -0.01572600 -0.09015500 0.02193600
v -0.01898200 -0.09129300 0.02150500
v -0.01209600 -0.09111400 0.00710300
v -0.01517300 -0.08630400 0.02335400
v -0.01096900 -0.09138100 0.00826100
v -0.01927400 -0.08346100 0.02517300
v -0.01274600 -0.07228400 0.02582000
v -0.01653400 -0.07237200 0.02811300
v -0.01132900 -0.09304900 0.01047700
v -0.01094600 -0.09200600 0.00905500
v -0.01165800 -0.08588200 0.02125000
v -0.01021000 -0.09073000 0.00916200
v -0.01046200 -0.09254500 0.01144000
v -0.01033100 -0.08778200 0.01889900
v -0.01088500 -0.09358400 0.01418200
v -0.00966000 -0.09099800 0.01340700
v -0.01782900 -0.07315100 0.02838600
v -0.01784000 -0.09642600 0.01487200
v -0.02013100 -0.09653700 0.01558100
v -0.01502000 -0.09576900 0.01524100
v -0.01287400 -0.09455300 0.01649100
v -0.01511000 -0.09528100 0.01733800
v -0.01976900 -0.09615100 0.01728900
v -0.01871100 -0.09600900 0.01780200
v -0.01845000 -0.09387000 0.01980700
v -0.01800900 -0.09591800 0.01790000
v -0.01619200 -0.09430200 0.01928100
v -0.01438400 -0.09364600 0.01901200
v -0.01614600 -0.09266100 0.02062500
v -0.01200300 -0.09333000 0.01716500
v -0.01044800 -0.09215700 0.01541400
v -0.01326200 -0.09217300 0.01936800
v -0.00957900 -0.08887900 0.01683100
v -0.01130900 -0.09110200 0.01802100
v -0.01728800 -0.06790700 0.02926800
v -0.01801600 -0.05907300 0.03091500
v -0.02330500 0.01163000 0.00070400
v -0.01607900 0.03217800 0.00091200
v -0.01344900 0.03142000 0.00044000
v -0.01817300 0.02704900 0.00078700
v -0.01337800 0.03553100 0.00069200
v -0.02323600 0.01480200 0.00090500
v -0.02558100 0.01484900 0.00235800
v -0.02488200 0.01407700 0.00159700
v -0.02811800 0.01300800 0.00439300
v -0.02061300 0.01597900 0.00051000
v -0.02174700 0.01988000 0.00100200
v -0.01898100 0.02130300 0.00053800
v -0.02028700 0.02263800 0.00089800
v -0.02286600 0.02145400 0.00206200
v -0.02584800 0.02045500 0.00465200
v -0.02073800 0.02494800 0.00157500
v -0.01768100 0.03136200 0.00144300
v -0.00996900 0.03914700 0.00043300
v -0.00255900 0.04422700 0.00017300
v -0.00652000 0.04399400 0.00036800
v 0.06520100 0.07203800 0.00535300
v 0.06597600 0.07456000 0.00542300
v 0.06548800 0.07636900 0.00351100
v 0.06533300 0.07308500 0.00843300
v 0.05908700 0.08001900 0.00264400
v 0.05940400 0.08065400 0.00331000
v 0.06195700 0.07590600 -0.00033400
v 0.06275800 0.07514200 -0.00042000
v 0.06372400 0.07600000 -0.00001500
v 0.06372800 0.07405500 0.00006000
v 0.06304800 0.07669700 -0.00023100
v 0.06238500 0.07707600 -0.00002000
v 0.06484300 0.07517900 0.00141300
v 0.06272700 0.07902400 0.00111000
v 0.06351500 0.07258900 0.00041000
v 0.06366300 0.07842900 0.00089300
v 0.06339500 0.07899800 0.00117200
v 0.06449200 0.07934500 0.00298300
v 0.06461400 0.07188600 0.00206100
v 0.06495700 0.07729800 0.00217200
v 0.06427400 0.07225400 0.00115100
v 0.06534100 0.07898800 0.00731800
v 0.06507400 0.07955200 0.00608600
v 0.06292600 0.08060300 0.00274700
v 0.06380300 0.08104500 0.00348200
v 0.06350200 0.08134100 0.00383200
v 0.06416100 0.08142000 0.00490800
v -0.02354200 -0.04503500 0.03301900
v -0.04055200 -0.00882800 0.02076700
v -0.04002600 -0.00988100 0.02342400
v -0.03927300 -0.00248300 0.02148700
v -0.03481100 -0.05687800 0.02870800
v -0.01933400 -0.04151300 0.03334600
v -0.02108200 -0.04053400 0.03358900
v -0.01811300 -0.04038300 0.03322400
v -0.03883000 -0.00161500 0.01474900
v -0.04043700 -0.00711700 0.01620100
v -0.03841000 0.00198600 0.01588800
v -0.03732400 -0.05555000 0.02693700
v -0.03985700 -0.00351400 0.01735400
v -0.04090300 -0.00896000 0.01786600
v -0.03773000 -0.04959800 0.02800800
v -0.03999100 -0.00434800 0.01875700
v -0.04108900 -0.01097700 0.01986900
v -0.03866500 0.00167000 0.01743600
v -0.03425600 -0.04742000 0.03062100
v -0.03202900 -0.05088200 0.03075800
v -0.03612600 -0.01510600 0.03140600
v -0.03755100 -0.01231000 0.02911400
v -0.03748200 -0.02060800 0.03043300
v -0.03873100 -0.00314300 0.02392100
v -0.03686000 -0.04866600 0.02904400
v -0.03641700 -0.04634100 0.02974300
v -0.03904100 -0.04729400 0.02668300
v -0.03879900 -0.00592900 0.02505800
v -0.03582300 -0.00837300 0.03064900
v -0.03440900 -0.00840100 0.03207100
v -0.03510800 -0.01680900 0.03225100
v -0.03463100 -0.01253600 0.03235400
v -0.03292500 -0.01190400 0.03311000
v -0.03290400 -0.01725300 0.03317800
v -0.03004600 -0.04908800 0.03154100
v -0.02551800 -0.04162700 0.03332900
v -0.02979100 -0.04072100 0.03291300
v -0.03624700 -0.00503000 0.02935400
v -0.03803300 0.00297500 0.02159800
v -0.03004100 -0.01080600 0.03413600
v -0.03189600 -0.05418500 0.03026200
v -0.03715700 -0.00097200 0.01158000
v -0.03949300 -0.00685400 0.01378000
v -0.03605700 0.00550600 0.01253800
v -0.02556600 -0.03169000 0.03427600
v -0.02820500 -0.05497900 0.03093400
v -0.03451000 -0.00562100 0.03154900
v -0.02258400 -0.03176900 0.03445500
v -0.03192200 -0.00708500 0.03332200
v -0.03465100 0.00159100 0.00839400
v -0.02019500 -0.03327300 0.03429500
v -0.02884600 -0.03047100 0.03389700
v -0.02967300 -0.00502000 0.03407100
v -0.02500800 -0.05223400 0.03186900
v -0.02880500 -0.01555700 0.03431000
v -0.01855600 -0.03528300 0.03392000
v -0.03962700 -0.02820500 0.02772300
v -0.04095300 -0.02812100 0.02512500
v -0.04113000 -0.03196000 0.02493100
v -0.02588000 -0.01038600 0.03500600
v -0.03898000 -0.03174000 0.02883700
v -0.03780200 -0.02683900 0.03031300
v -0.03754200 -0.03009000 0.03067100
v -0.01931300 -0.05575600 0.03160900
v -0.03838600 -0.03617200 0.02935700
v -0.03269300 0.00935000 0.00882300
v -0.03606700 -0.02705100 0.03179300
v -0.03655400 -0.03312500 0.03120300
v -0.03636100 -0.02456600 0.03162400
v -0.03921200 -0.02038300 0.02775100
v -0.04238000 -0.03394500 0.02127100
v -0.02276200 -0.01084900 0.03535200
v -0.03676500 -0.02179000 0.03127900
v -0.03367800 -0.03406900 0.03242200
v -0.04297200 -0.03132600 0.01744000
v -0.03282400 -0.02660400 0.03309800
v -0.03106000 -0.03522100 0.03314800
v -0.03439000 0.01224900 0.01289900
v -0.03041400 -0.02485500 0.03379800
v -0.03374800 -0.00047200 0.03117400
v -0.04139200 -0.03758200 0.02369100
v -0.04299500 -0.02643400 0.01719200
v -0.02412400 -0.02358400 0.03473100
v -0.03694100 0.00725800 0.01531000
v -0.03165000 -0.00444700 0.03332500
v -0.03689000 0.00924100 0.01766700
v -0.03880700 -0.01546900 0.02765800
v -0.03754200 0.00675700 0.01890000
v -0.04223000 -0.02633100 0.02140800
v -0.03215100 0.00059600 0.03248500
v -0.04272200 -0.02332800 0.01753900
v -0.02599200 -0.00496100 0.03497200
v -0.04198200 -0.01974600 0.01532800
v -0.03691900 0.00798500 0.02091600
v -0.04240500 -0.02024500 0.01671400
v -0.04225800 -0.01879500 0.01811000
v -0.04180300 -0.02043100 0.02144100
v -0.01901900 -0.00552300 0.03566600
v -0.03541100 0.01346900 0.01591400
v -0.02744300 -0.00015500 0.03456100
v -0.04185000 -0.01596600 0.01658300
v -0.04195000 -0.01621600 0.01762700
v -0.02062100 0.00147200 0.03572600
v -0.04120300 -0.01663100 0.02245400
v -0.04154800 -0.02410800 0.02316500
v -0.03855000 -0.01079300 0.02704600
v -0.04017100 -0.01839000 0.02556100
v -0.02319600 0.00222600 0.03542100
v -0.03743700 -0.00448900 0.02736800
v -0.02103700 -0.02490900 0.03485300
v -0.02026400 -0.01960200 0.03516800
v -0.01813300 -0.03068300 0.03426800
v -0.01735800 -0.01875300 0.03514400
v -0.03997400 -0.01417700 0.02491900
v -0.01810500 -0.01391500 0.03543700
v -0.04101300 -0.04449900 0.02322700
v -0.03985900 -0.04072000 0.02672700
v -0.01601100 -0.01254900 0.03536000
v -0.03777000 -0.00004600 0.02468500
v -0.03647700 0.00077600 0.02707700
v -0.03835700 -0.04346300 0.02855700
v -0.03756500 -0.04392900 0.02931600
v -0.03483000 0.00232400 0.02904400
v -0.04014900 -0.03531000 0.02673000
v -0.03708800 0.00443800 0.02376600
v -0.03611600 0.00555700 0.02546700
v -0.03378000 -0.02120000 0.03286300
v -0.03143300 -0.02072900 0.03360100
v -0.03304900 -0.04268700 0.03179200
v -0.03535400 0.00594100 0.02681600
v -0.03763800 -0.03769500 0.02998400
v -0.03633400 -0.04023700 0.03062700
v -0.03241900 0.01184400 0.02871500
v -0.03485500 0.01280400 0.02372200
v -0.03510400 0.01548300 0.01890200
v -0.03184400 0.00618000 0.03157300
v -0.03391900 0.01614600 0.02349500
v -0.03126500 0.00497100 0.03247200
v -0.02947300 0.00604500 0.03346700
v -0.04041400 -0.01039900 0.01452000
v -0.02719000 0.00538300 0.03436600
v -0.02975000 0.00857700 0.03292200
v -0.03340600 0.01488300 0.02556300
v -0.03012100 0.01031200 0.03217800
v -0.03082000 0.01803200 0.02810600
v -0.02394600 0.00563500 0.03525500
v -0.01907900 0.01058200 0.03595700
v -0.02750000 0.01552000 0.03309600
v -0.02791900 0.01050000 0.03366900
v -0.02799100 0.01733600 0.03218200
v -0.02639800 0.01464100 0.03384800
v -0.02491700 0.01069600 0.03475500
v -0.02064300 0.01572100 0.03547400
v -0.02290400 0.01666300 0.03484700
v -0.01723100 0.00419600 0.03600600
v -0.01483000 0.00205800 0.03590400
v -0.01478200 0.00849300 0.03613300
v -0.01817900 0.02664900 0.03522700
v -0.01542300 0.02221500 0.03600400
v -0.01370100 0.03062600 0.03571100
v 0.00276600 0.05873200 0.03421800
v 0.00041000 0.06121400 0.03317400
v -0.00302200 0.05427900 0.03436300
v -0.02863100 0.02023600 0.00807300
v -0.00428100 0.06208100 0.00890400
v -0.00037400 0.06437000 0.00722700
v -0.00160800 0.06059300 0.00478000
v 0.00169400 0.06511400 0.03200200
v -0.00199100 0.06162700 0.03230700
v -0.00219800 0.06726700 0.01266300
v -0.03100500 0.01740400 0.01008600
v 0.00780900 0.05865800 0.03425400
v 0.00327800 0.05148400 0.03519200
v 0.00870400 0.05490700 0.03459300
v 0.00883000 0.05801100 -0.00001800
v 0.00226300 0.05292100 0.00017700
v 0.01219900 0.05433600 0.03415600
v 0.01226000 0.06122100 0.03349200
v -0.02427200 0.02851600 0.00667500
v 0.00715600 0.06258700 0.03360100
v -0.03297100 0.01831800 0.01391500
v -0.03319600 0.01977200 0.01557000
v -0.03364600 0.01985000 0.01733700
v -0.01505600 0.01621000 0.03615900
v 0.00480000 0.06398400 0.03306800
v -0.00291600 0.06364700 0.02998200
v -0.00160800 0.06376100 0.03107200
v -0.00087800 0.06584500 0.02954300
v 0.00221700 0.06906600 0.02841400
v -0.00095600 0.06801200 0.02603300
v -0.03167900 0.02449100 0.01631500
v -0.00607300 0.02295100 0.03614900
v 0.00143600 0.07018200 0.02504000
v -0.03005200 0.02365000 0.01218900
v -0.02638600 0.02914100 0.00989300
v -0.00920900 0.02484500 0.03633200
v 0.00213200 0.06666900 0.03129500
v -0.03078900 0.02552300 0.01487900
v -0.01216600 0.05750500 0.01401300
v -0.01294000 0.05311800 0.01003300
v -0.01725200 0.05101400 0.01453000
v -0.02868200 0.03015100 0.01445100
v -0.01540700 0.05486500 0.01637700
v -0.02870500 0.03199800 0.01672900
v -0.01905700 0.04991400 0.01729700
v -0.01714500 0.05302000 0.01878400
v -0.01425700 0.05685800 0.01786800
v -0.02078100 0.02704300 0.00228200
v 0.00682800 0.06705000 0.03220300
v 0.00717200 0.06501700 0.03294400
v 0.00308800 0.06805600 0.03063600
v -0.01281900 0.05819000 0.01647900
v -0.02086400 0.03078200 0.00402300
v -0.01946600 0.04507800 0.02705500
v -0.01925700 0.04754200 0.02434800
v -0.02316400 0.04037200 0.02486900
v -0.02037900 0.04705300 0.02211400
v -0.01696300 0.05203800 0.02248300
v -0.01939200 0.04974300 0.01916100
v 0.00606800 0.06935500 0.03096700
v 0.00691700 0.07107000 0.02983800
v -0.01099700 0.02892100 0.03619200
v -0.01692400 0.04923400 0.02692900
v 0.01146100 0.06716300 0.03230900
v -0.00630100 0.02854000 0.03632000
v 0.01497100 0.06663500 0.03206900
v -0.01741900 0.03446900 0.00244500
v -0.01541000 0.05300300 0.02477300
v -0.01419700 0.03699700 0.00112300
v -0.01534500 0.03722900 0.00187100
v -0.00268500 0.02422700 0.03574800
v -0.01945500 0.03651200 0.00555600
v -0.01869000 0.05088500 0.01889300
v -0.01634200 0.03902500 0.00363700
v -0.01517400 0.05558600 0.01915600
v 0.01069000 0.07079900 0.03104000
v 0.00575700 0.06415700 0.00206500
v 0.00617100 0.06294100 0.00115800
v 0.00280900 0.06088400 0.00170500
v 0.00272100 0.05899400 0.00096500
v 0.01000800 0.06492000 0.00078900
v 0.00595300 0.05966400 0.00040100
v -0.02167900 0.03539600 0.03127000
v -0.02473700 0.03365300 0.02806100
v -0.02472400 0.02933300 0.03083600
v -0.01394800 0.05651100 0.02142500
v -0.02330000 0.03564700 0.00976600
v -0.02552300 0.03444300 0.01225300
v 0.00249300 0.06274000 0.00321100
v -0.02203600 0.03950700 0.02782900
v -0.02559800 0.03551600 0.02481400
v -0.02136900 0.03845900 0.02961800
v -0.02670500 0.03490400 0.01482400
v -0.01235700 0.05481700 0.02799700
v 0.00525800 0.06845400 0.00654400
v -0.01939500 0.04007000 0.00765500
v -0.01834400 0.04258800 0.03088100
v -0.01212300 0.05702500 0.02527900
v 0.00869100 0.06722500 0.00279800
v -0.02328300 0.03973300 0.01305700
v 0.00320600 0.06975700 0.00993200
v 0.00539000 0.03983100 0.03529400
v 0.00403100 0.03667900 0.03539300
v -0.03257800 0.02168900 0.02145200
v -0.03304600 0.02165900 0.01858700
v -0.03198600 0.02452300 0.01782200
v 0.00637600 0.04687100 0.03521200
v 0.00223300 0.03982900 0.03574100
v 0.00698800 0.07326500 0.01090000
v -0.03148200 0.02201600 0.02445300
v -0.00809000 0.05967900 0.01083600
v 0.00725300 0.05867800 0.00011800
v 0.01227800 0.06485800 0.00041600
v -0.00059200 0.02832400 0.03567900
v 0.01506400 0.06367700 -0.00007500
v -0.00609900 0.06338100 0.01264500
v -0.03043200 0.02828200 0.01914500
v -0.00188500 0.03120000 0.03607900
v 0.00151800 0.03210600 0.03555500
v 0.01865600 0.06371100 -0.00023900
v -0.02974300 0.02877600 0.02158600
v -0.03018600 0.02493700 0.02477800
v -0.00798700 0.06318900 0.01546400
v -0.01198900 0.05936500 0.01766100
v -0.00267500 0.03671200 0.03614100
v -0.00677800 0.06484400 0.01682300
v -0.00974700 0.06172400 0.01794900
v 0.01870700 0.06763000 0.00015400
v -0.02918100 0.02481700 0.02684800
v 0.01013800 0.06629300 0.00136600
v -0.02710400 0.03049500 0.02646400
v -0.02685700 0.02196000 0.03169000
v 0.01336700 0.06907500 0.00184700
v 0.01630400 0.06960000 0.00111400
v -0.02789300 0.03070900 0.02468500
v -0.00516200 0.06529700 0.01402400
v 0.01662400 0.06843800 0.00057900
v -0.01536800 0.04356800 0.00534100
v -0.01844400 0.04551300 0.01062800
v -0.02878900 0.03226700 0.01839900
v -0.00273700 0.06816300 0.01513500
v -0.01560200 0.04787600 0.00875100
v -0.02628600 0.03739700 0.01746200
v -0.02809400 0.03299900 0.02085200
v -0.02125500 0.04346400 0.01335100
v -0.02725800 0.03552100 0.01869900
v -0.00374200 0.06771200 0.01662500
v -0.02410500 0.04065400 0.01571400
v 0.01500200 0.07336800 0.00524800
v -0.01873100 0.04969000 0.01574100
v -0.01010900 0.06073700 0.02191600
v -0.02445400 0.04006400 0.02179700
v -0.02300600 0.04346200 0.01749200
v -0.02426900 0.04149800 0.01856200
v -0.02331600 0.04323100 0.01921800
v 0.01831700 0.07305900 0.00315700
v -0.02092200 0.04718100 0.01927000
v 0.02316200 0.06795800 0.00001600
v -0.00918600 0.05987500 0.02616200
v -0.00870900 0.06125500 0.02456900
v -0.00744900 0.06362600 0.02157600
v 0.02516700 0.07176100 0.00071100
v 0.02106700 0.07187400 0.00126900
v -0.00549500 0.06608800 0.01791900
v -0.01026400 0.04281300 0.00083300
v -0.01141200 0.04338900 0.00155400
v -0.00458700 0.06617900 0.02270700
v 0.02306700 0.07411900 0.00250300
v -0.01288900 0.04330100 0.00263300
v -0.00192500 0.06906600 0.01978300
v -0.00138600 0.06972200 0.01676500
v -0.00776900 0.04728800 0.00105000
v -0.00791700 0.04846700 0.00148300
v 0.01064800 0.07188500 0.00640200
v -0.00668700 0.04681500 0.00068300
v -0.00560900 0.06399600 0.02555200
v -0.00144200 0.06882100 0.02299700
v -0.00776100 0.05035500 0.00228500
v -0.01394400 0.04760500 0.00658100
v -0.00962000 0.05050900 0.00412400
v -0.02267000 0.02896700 0.03317600
v -0.02097000 0.02727900 0.03436500
v -0.02065600 0.02931600 0.03413600
v 0.01233100 0.07496500 0.00888700
v -0.01189000 0.05274200 0.00834900
v 0.01578300 0.07752500 0.00990600
v 0.01926600 0.07843000 0.00890400
v -0.01996200 0.03578300 0.03288100
v -0.02337100 0.02958800 0.03232900
v -0.01986600 0.03437800 0.03340400
v 0.02452200 0.07306800 0.00129400
v 0.02595700 0.07401500 0.00166800
v -0.01762000 0.03600400 0.03415300
v 0.02494100 0.07547900 0.00317100
v -0.01465400 0.03761600 0.03470400
v 0.02349400 0.07675300 0.00496300
v 0.02086900 0.07824900 0.00777900
v -0.00129400 0.05309200 0.00056700
v -0.00198900 0.05380300 0.00085300
v -0.00444900 0.05401000 0.00208200
v -0.00316000 0.05398700 0.00135100
v -0.00635600 0.05398700 0.00370000
v 0.02560900 0.07873100 0.00657800
v -0.01872600 0.03982100 0.03211100
v -0.01562000 0.04240500 0.03338900
v -0.01695900 0.04171300 0.03277500
v -0.01545300 0.04468900 0.03256200
v 0.02298500 0.08007100 0.00951500
v -0.02638600 0.02015000 0.03279600
v -0.02399100 0.02162000 0.03399000
v -0.00037000 0.05809000 0.00190800
v 0.02706600 0.08031500 0.00842800
v -0.00082000 0.05919700 0.00294000
v -0.01482000 0.04164900 0.03394000
v -0.01193600 0.04137600 0.03478500
v 0.02453700 0.08125400 0.01110500
v -0.02436000 0.02350500 0.03346100
v -0.02514300 0.02448500 0.03258100
v -0.02156100 0.02234200 0.03477000
v -0.00933300 0.03731600 0.03572800
v -0.01230800 0.04568200 0.03393300
v 0.00323600 0.07242300 0.01378900
v -0.01839600 0.02192300 0.03554700
v -0.00803700 0.05703700 0.00802100
v 0.00072600 0.07101800 0.01486900
v 0.00186300 0.07206900 0.01611300
v -0.00705000 0.03509300 0.03609800
v 0.00695100 0.07523100 0.01462800
v 0.00866600 0.07561500 0.01304800
v 0.00707800 0.07544900 0.01547600
v 0.00519100 0.07436700 0.01769700
v -0.00632200 0.04289300 0.03556100
v 0.00185500 0.07214000 0.01857400
v 0.00179000 0.07173100 0.02123000
v -0.01560500 0.04903300 0.02910400
v -0.01435700 0.04710800 0.03219800
v 0.00481200 0.07264700 0.02461100
v 0.01210000 0.07665700 0.01147400
v -0.01126500 0.05033100 0.03289800
v 0.01728600 0.07933300 0.01210400
v -0.00680800 0.04818500 0.03483200
v 0.01264800 0.07793300 0.01377500
v -0.01241000 0.05114900 0.03139400
v -0.01042700 0.05005000 0.03342700
v 0.01175000 0.07781600 0.01540500
v 0.00805700 0.07606300 0.01682100
v 0.01594300 0.07937800 0.01409700
v -0.00574900 0.05202900 0.03428000
v 0.01525500 0.07922700 0.01586900
v 0.00676500 0.07512900 0.01956200
v -0.00803400 0.05949000 0.02863500
v 0.00946300 0.07598300 0.02257000
v -0.01020400 0.05448500 0.03112800
v 0.00823400 0.07349100 0.02734800
v 0.01085900 0.07554000 0.02585700
v -0.00803800 0.05749600 0.03083400
v -0.00770400 0.05522300 0.03264900
v 0.01026000 0.07705800 0.01891300
v -0.00693200 0.05435100 0.03332500
v -0.00513700 0.05980800 0.03157900
v 0.01309000 0.07823500 0.01936900
v -0.00379200 0.05890000 0.03281800
v 0.01382700 0.07772800 0.02323000
v -0.00110600 0.05187900 0.03498800
v 0.01869500 0.07980600 0.02146200
v 0.01562100 0.07900400 0.02046900
v 0.01834300 0.07892500 0.02402200
v 0.01491300 0.07695500 0.02622200
v 0.00194700 0.04502100 0.03560900
v -0.00302600 0.04500900 0.03566300
v 0.02020200 0.07790500 0.02685100
v 0.02095600 0.08049400 0.01169500
v 0.02224800 0.08122800 0.01345300
v 0.02638000 0.08179600 0.01244500
v 0.00497300 0.05759500 0.03449400
v 0.01831200 0.08026300 0.01648100
v 0.01929100 0.08034300 0.01906100
v 0.02208100 0.08127400 0.01749400
v 0.02448800 0.08167400 0.01753000
v 0.02249300 0.08077100 0.02079500
v 0.02317700 0.08003100 0.02379100
v -0.00507400 0.06219100 0.02918800
v -0.00626100 0.06187100 0.02803100
v 0.00639900 0.07144500 0.02896700
v -0.00386500 0.06470300 0.02721600
v 0.01144100 0.07424300 0.02852600
v 0.01431000 0.07003100 0.03130400
v 0.01097900 0.06910300 0.03174100
v 0.01417300 0.07212600 0.03059300
v 0.01182800 0.07526400 0.02727200
v 0.01131100 0.07296300 0.02982300
v 0.01535900 0.07385000 0.02976800
v 0.01675800 0.07144300 0.03061100
v 0.01650400 0.07638200 0.02782500
v 0.01593700 0.07542100 0.02869100
v 0.01978400 0.07483600 0.02888200
v 0.02096000 0.07658000 0.02789000
v 0.02137700 0.07785200 0.02697400
v 0.02154100 0.06027900 0.03136400
v 0.02432100 0.06086200 0.03041900
v 0.02857400 0.06314100 0.02861000
v 0.02256500 0.06372900 0.03078100
v 0.02070900 0.06551000 0.03110300
v 0.02714200 0.06638400 0.02893500
v 0.02800200 0.07040800 0.02792800
v 0.02429000 0.07519600 0.02783100
v 0.02099500 0.07262000 0.02948900
v 0.02691100 0.07492700 0.02715300
v 0.02182400 0.07916000 0.02533800
v 0.02437500 0.07940100 0.02524000
v 0.02426700 0.07879600 0.02589600
v 0.02783800 0.07657800 0.02617900
v 0.02581700 0.07785500 0.02623000
v 0.02992500 0.07335800 0.02645500
v 0.01041100 0.04631900 0.03459400
v 0.03058500 0.07525400 0.00200800
v 0.01276100 0.04751700 0.03391700
v 0.03044700 0.07705400 0.00353600
v 0.01299000 0.04962200 0.03404700
v 0.01640900 0.05237400 0.03321800
v 0.01855500 0.05291300 0.03234400
v 0.01993000 0.05599100 0.03216500
v 0.01606200 0.05707200 0.03319400
v 0.02427600 0.05791400 0.03028900
v 0.01510600 0.06049200 0.03309800
v 0.02766000 0.08170600 0.01115400
v 0.02840600 0.08182300 0.01299100
v 0.03054900 0.07934400 0.00635600
v 0.02708400 0.08185800 0.01458700
v 0.02951000 0.08123500 0.00945500
v 0.02525000 0.08175600 0.01729100
v 0.02457900 0.05949900 0.03033000
v 0.02772600 0.08092800 0.02115500
v 0.01806000 0.06804400 0.03132700
v 0.02600300 0.08036300 0.02331700
v 0.02765500 0.07942600 0.02437900
v 0.02881600 0.08029700 0.02258000
v 0.02879300 0.07827500 0.02492200
v 0.06526700 0.07417500 0.01077100
v 0.06489100 0.07475300 0.01144200
v 0.06427700 0.07492500 0.01192100
v 0.06525700 0.07649900 0.01102500
v 0.06461700 0.07663800 0.01171400
v 0.06544400 0.07403200 0.01023300
v 0.06382600 0.08150900 0.00529000
v 0.06528400 0.07888400 0.00924500
v 0.06568900 0.07657600 0.00933700
v 0.06486800 0.08028000 0.00869400
v 0.06490900 0.07875300 0.01055000
v 0.06441000 0.08091400 0.00756200
v 0.06417300 0.08068000 0.00895600
v 0.06423000 0.07877600 0.01113000
v 0.06422100 0.07954800 0.01057200
v 0.02397700 0.07163200 0.02902800
f 232 114 68
f 67 232 68
f 336 115 116
f 95 115 336
f 330 862 859
f 336 337 338
f 858 816 856
f 403 391 362
f 856 280 279
f 279 256 856
f 280 256 279
f 190 308 192
f 192 189 190
f 190 189 105
f 202 204 100
f 100 204 226
f 287 329 332
f 332 329 330
f 330 859 332
f 46 338 271
f 329 285 347
f 330 329 347
f 274 297 301
f 287 332 303
f 303 332 859
f 297 274 157
f 358 459 469
f 204 202 206
f 214 215 211
f 469 459 462
f 513 708 697
f 327 187 326
f 839 280 856
f 819 858 820
f 816 858 819
f 857 859 862
f 400 391 403
f 391 400 392
f 392 432 484
f 484 390 392
f 105 189 104
f 98 83 104
f 104 83 105
f 356 362 391
f 830 308 832
f 832 835 830
f 308 835 832
f 837 835 836
f 836 839 837
f 280 839 836
f 64 83 78
f 78 61 64
f 272 274 301
f 307 190 280
f 308 190 307
f 280 836 307
f 307 835 308
f 307 836 835
f 289 190 105
f 280 190 289
f 289 254 280
f 252 254 289
f 86 83 64
f 105 83 86
f 86 289 105
f 64 252 86
f 252 289 86
f 241 243 239
f 239 243 242
f 242 243 4
f 229 235 197
f 197 235 236
f 43 97 50
f 74 202 100
f 67 202 74
f 43 67 74
f 74 97 43
f 229 106 228
f 228 226 229
f 230 238 229
f 229 226 230
f 239 242 230
f 230 242 238
f 230 204 239
f 230 226 204
f 100 226 101
f 106 97 101
f 101 228 106
f 226 228 101
f 101 74 100
f 97 74 101
f 219 168 217
f 217 167 180
f 219 217 233
f 232 67 233
f 233 67 43
f 484 374 396
f 336 338 54
f 54 53 336
f 54 338 46
f 46 53 54
f 336 11 635
f 737 616 525
f 820 858 829
f 288 329 287
f 287 285 288
f 288 285 329
f 349 347 277
f 277 275 349
f 277 347 284
f 284 347 285
f 161 157 274
f 297 296 298
f 305 303 859
f 306 303 305
f 293 300 294
f 856 256 855
f 855 858 856
f 855 857 858
f 291 296 295
f 7 42 255
f 47 53 46
f 294 298 292
f 292 293 294
f 131 14 28
f 28 135 131
f 239 204 220
f 204 206 220
f 220 241 239
f 201 206 202
f 466 400 403
f 405 45 397
f 397 399 405
f 183 214 211
f 387 440 385
f 469 462 461
f 464 461 377
f 704 598 600
f 646 644 600
f 488 498 485
f 464 377 393
f 393 475 464
f 506 504 507
f 704 600 733
f 733 600 647
f 503 504 506
f 499 488 491
f 491 493 499
f 754 720 759
f 751 758 612
f 751 754 758
f 612 598 719
f 708 720 705
f 525 616 521
f 616 610 521
f 521 610 604
f 326 320 312
f 326 187 311
f 311 320 326
f 187 320 311
f 314 312 320
f 187 245 188
f 231 245 187
f 231 196 236
f 236 245 231
f 328 327 326
f 815 814 837
f 816 819 815
f 580 577 551
f 391 392 409
f 409 356 391
f 419 189 192
f 362 356 419
f 80 83 98
f 98 78 80
f 80 78 83
f 257 256 280
f 280 254 257
f 253 254 252
f 167 168 185
f 32 8 17
f 32 35 8
f 32 185 35
f 225 116 115
f 227 225 224
f 6 242 4
f 238 242 6
f 20 27 250
f 198 106 229
f 229 197 198
f 43 50 44
f 81 97 106
f 81 50 97
f 118 125 119
f 124 125 118
f 180 167 174
f 166 219 207
f 70 205 212
f 166 205 70
f 171 219 166
f 171 168 219
f 166 69 165
f 165 69 35
f 165 171 166
f 173 168 167
f 167 217 173
f 173 217 168
f 232 233 234
f 234 233 217
f 180 232 234
f 234 217 180
f 432 431 429
f 484 432 429
f 388 440 387
f 423 429 422
f 422 429 431
f 76 39 66
f 66 39 49
f 99 92 94
f 98 99 94
f 94 78 98
f 94 66 78
f 94 92 76
f 76 66 94
f 374 381 360
f 360 396 374
f 360 92 99
f 99 396 360
f 375 390 484
f 484 396 375
f 375 396 390
f 160 12 156
f 339 677 706
f 643 677 339
f 339 337 336
f 339 344 337
f 673 635 643
f 643 635 630
f 630 628 643
f 630 627 597
f 597 628 630
f 187 327 203
f 203 231 187
f 203 11 87
f 203 635 11
f 87 196 203
f 196 231 203
f 604 610 592
f 566 799 544
f 576 799 566
f 823 829 858
f 820 829 823
f 858 857 864
f 268 285 287
f 268 281 285
f 268 259 281
f 270 275 277
f 255 42 270
f 271 275 270
f 46 271 270
f 270 42 46
f 338 349 343
f 343 349 275
f 343 271 338
f 343 275 271
f 277 284 282
f 282 284 285
f 285 281 282
f 49 161 51
f 51 66 49
f 64 61 51
f 61 78 51
f 78 66 51
f 278 252 64
f 278 253 252
f 274 272 266
f 266 161 274
f 272 253 266
f 253 278 266
f 266 51 161
f 64 51 266
f 266 278 64
f 294 300 299
f 299 298 294
f 299 300 301
f 301 297 299
f 297 298 299
f 300 293 302
f 302 303 306
f 287 303 302
f 302 293 287
f 256 283 269
f 269 855 256
f 283 855 269
f 286 263 306
f 283 263 286
f 306 305 286
f 18 14 9
f 9 14 13
f 9 3 18
f 8 3 9
f 9 13 17
f 17 8 9
f 132 14 131
f 13 14 132
f 135 28 29
f 158 161 49
f 157 161 158
f 30 160 71
f 12 160 30
f 53 47 52
f 41 7 1
f 41 47 46
f 46 42 41
f 42 7 41
f 241 220 240
f 240 430 437
f 141 201 202
f 141 67 68
f 141 202 67
f 395 415 447
f 463 415 458
f 501 447 463
f 463 447 415
f 400 415 407
f 432 392 407
f 407 392 400
f 400 466 438
f 458 415 427
f 427 438 466
f 427 415 400
f 400 438 427
f 470 427 466
f 492 498 625
f 625 498 644
f 632 621 620
f 655 621 632
f 383 461 464
f 383 358 469
f 469 461 383
f 5 397 45
f 5 6 4
f 45 6 5
f 387 385 376
f 376 378 428
f 376 385 402
f 376 377 378
f 442 462 425
f 442 461 462
f 442 377 461
f 425 378 442
f 378 377 442
f 513 515 710
f 515 730 710
f 710 708 513
f 759 720 736
f 708 710 736
f 736 710 730
f 515 577 735
f 735 730 515
f 501 463 502
f 502 463 458
f 636 625 650
f 489 498 492
f 402 385 445
f 445 493 402
f 494 493 445
f 445 440 494
f 445 385 440
f 644 498 500
f 498 488 500
f 500 488 647
f 647 600 500
f 500 600 644
f 435 393 402
f 402 493 435
f 435 493 491
f 475 393 478
f 485 475 478
f 478 435 491
f 393 435 478
f 478 488 485
f 491 488 478
f 508 507 501
f 501 502 508
f 506 507 734
f 513 697 734
f 496 504 494
f 496 507 504
f 494 440 496
f 698 697 708
f 708 705 698
f 724 503 732
f 732 733 724
f 647 488 505
f 488 499 505
f 505 733 647
f 724 733 505
f 505 503 724
f 505 499 503
f 497 499 493
f 503 499 497
f 497 493 494
f 494 504 497
f 504 503 497
f 722 751 612
f 612 719 722
f 722 719 721
f 721 720 722
f 720 754 722
f 754 751 722
f 703 598 704
f 703 719 598
f 721 719 703
f 703 720 721
f 703 705 720
f 597 627 713
f 627 328 713
f 713 328 690
f 676 642 666
f 525 651 656
f 631 651 525
f 558 567 554
f 562 567 558
f 638 567 641
f 641 656 638
f 638 656 651
f 554 567 638
f 638 631 554
f 651 631 638
f 663 608 658
f 663 658 668
f 668 658 669
f 661 658 655
f 669 658 661
f 322 315 323
f 323 563 322
f 563 324 322
f 322 324 319
f 654 657 611
f 611 602 654
f 319 312 321
f 321 314 319
f 312 314 321
f 107 248 65
f 318 320 187
f 187 188 318
f 248 107 60
f 245 248 60
f 60 188 245
f 531 328 627
f 847 815 837
f 816 815 847
f 837 839 847
f 856 816 847
f 847 839 856
f 817 815 819
f 819 818 817
f 814 815 817
f 617 618 830
f 401 392 390
f 401 409 392
f 390 396 401
f 401 396 99
f 356 409 194
f 189 419 194
f 194 419 356
f 830 835 834
f 834 532 830
f 835 532 834
f 830 532 622
f 622 617 830
f 623 617 622
f 838 835 837
f 838 532 835
f 837 814 838
f 814 817 838
f 838 817 818
f 581 533 849
f 849 802 581
f 849 822 808
f 808 802 849
f 34 30 152
f 56 3 8
f 56 35 33
f 8 35 56
f 33 35 37
f 37 69 33
f 35 69 37
f 223 227 224
f 59 227 223
f 225 227 10
f 116 225 10
f 87 11 10
f 336 116 10
f 10 11 336
f 22 45 405
f 405 55 22
f 22 27 20
f 20 250 249
f 237 235 229
f 237 249 250
f 229 238 237
f 238 249 237
f 251 27 75
f 251 250 27
f 75 85 251
f 213 207 219
f 166 207 213
f 213 205 166
f 212 205 213
f 58 44 50
f 58 79 59
f 50 81 58
f 58 81 79
f 219 233 222
f 222 213 219
f 222 233 43
f 43 44 222
f 87 10 89
f 89 10 227
f 84 89 227
f 87 89 84
f 106 198 102
f 102 81 106
f 195 196 87
f 87 84 195
f 195 84 79
f 118 119 110
f 110 119 120
f 182 109 176
f 147 178 120
f 120 119 147
f 211 178 147
f 147 183 211
f 125 183 177
f 177 119 125
f 183 147 177
f 177 147 119
f 125 124 155
f 176 109 179
f 180 174 179
f 193 69 166
f 166 70 193
f 33 69 193
f 193 70 33
f 168 171 164
f 171 165 164
f 164 165 35
f 35 185 164
f 164 185 168
f 404 388 395
f 440 388 404
f 482 422 431
f 367 169 156
f 382 169 367
f 92 360 93
f 76 92 93
f 93 12 76
f 487 477 381
f 484 429 487
f 487 429 423
f 487 374 484
f 487 381 374
f 412 378 425
f 416 412 479
f 340 339 706
f 342 339 340
f 643 339 335
f 335 673 643
f 335 339 336
f 336 635 335
f 635 673 335
f 530 203 327
f 635 203 530
f 327 328 530
f 328 531 530
f 530 531 627
f 627 630 530
f 530 630 635
f 596 628 597
f 652 677 643
f 652 596 649
f 643 628 652
f 628 596 652
f 648 664 671
f 671 649 648
f 678 649 671
f 671 683 678
f 678 683 706
f 678 652 649
f 706 677 678
f 677 652 678
f 345 339 342
f 344 339 345
f 355 354 860
f 860 865 355
f 337 344 348
f 330 347 341
f 341 331 330
f 347 349 341
f 341 348 331
f 341 349 338
f 341 338 337
f 337 348 341
f 699 664 689
f 616 737 624
f 753 699 624
f 624 610 616
f 689 610 624
f 624 699 689
f 566 544 543
f 543 544 545
f 545 800 543
f 804 808 807
f 802 808 804
f 799 576 801
f 576 806 801
f 828 812 821
f 805 801 809
f 860 354 841
f 841 789 860
f 820 823 869
f 869 821 822
f 823 821 869
f 869 819 820
f 869 818 819
f 869 822 849
f 849 818 869
f 867 823 858
f 858 864 867
f 867 864 868
f 861 857 862
f 861 864 857
f 868 864 863
f 864 861 863
f 863 355 865
f 260 259 265
f 259 268 265
f 265 292 260
f 255 270 258
f 258 259 255
f 258 270 277
f 277 282 258
f 281 259 258
f 258 282 281
f 854 855 283
f 283 286 854
f 859 857 854
f 857 855 854
f 854 305 859
f 854 286 305
f 263 262 304
f 300 302 304
f 301 300 304
f 304 262 301
f 306 263 304
f 304 302 306
f 273 272 301
f 301 262 273
f 273 253 272
f 254 253 276
f 253 273 276
f 276 273 262
f 256 257 276
f 276 257 254
f 13 132 122
f 138 121 122
f 122 129 138
f 17 13 122
f 122 121 17
f 260 292 261
f 261 29 260
f 260 29 25
f 255 259 25
f 25 259 260
f 25 29 28
f 12 30 36
f 36 30 34
f 36 39 76
f 76 12 36
f 34 152 36
f 77 52 95
f 53 52 77
f 77 95 336
f 336 53 77
f 95 52 91
f 115 95 91
f 1 3 40
f 40 41 1
f 40 56 33
f 3 56 40
f 218 220 206
f 218 240 220
f 218 215 430
f 430 240 218
f 120 144 113
f 113 110 120
f 120 178 145
f 145 144 120
f 434 431 432
f 432 407 434
f 434 407 415
f 512 580 551
f 512 547 580
f 559 621 655
f 655 658 559
f 559 658 608
f 660 654 615
f 615 654 602
f 663 660 615
f 615 608 663
f 492 625 619
f 619 625 636
f 619 632 620
f 636 632 619
f 464 475 474
f 474 383 464
f 4 243 495
f 170 181 125
f 125 155 170
f 170 155 169
f 170 169 382
f 384 393 377
f 377 376 384
f 402 393 384
f 384 376 402
f 729 720 708
f 708 736 729
f 729 736 720
f 551 577 539
f 539 512 551
f 759 774 772
f 772 754 759
f 612 758 750
f 609 750 758
f 578 750 609
f 562 558 588
f 588 558 560
f 560 668 588
f 669 661 670
f 670 668 669
f 670 588 668
f 646 600 599
f 599 600 598
f 569 578 570
f 569 605 612
f 612 750 569
f 569 750 578
f 646 650 637
f 637 650 625
f 637 644 646
f 637 625 644
f 480 489 449
f 449 489 492
f 485 498 481
f 498 489 481
f 481 489 480
f 480 474 481
f 481 475 485
f 481 474 475
f 514 577 515
f 514 539 577
f 502 539 514
f 507 508 509
f 509 734 507
f 508 734 509
f 408 496 440
f 408 404 395
f 440 404 408
f 725 503 506
f 725 732 503
f 506 734 725
f 725 734 697
f 697 698 725
f 698 732 725
f 696 703 704
f 705 703 696
f 704 733 696
f 733 732 696
f 696 698 705
f 696 732 698
f 639 642 641
f 639 567 562
f 641 567 639
f 562 666 639
f 639 666 642
f 550 602 534
f 534 602 587
f 587 602 611
f 326 312 313
f 325 312 319
f 319 324 325
f 325 324 563
f 556 558 554
f 556 654 660
f 714 595 597
f 597 713 714
f 714 713 690
f 65 85 108
f 108 107 65
f 309 318 188
f 309 314 320
f 320 318 309
f 633 617 623
f 618 617 633
f 580 547 633
f 623 640 633
f 633 640 580
f 468 470 466
f 470 468 473
f 473 633 547
f 586 633 473
f 473 468 586
f 577 580 742
f 580 640 742
f 742 640 785
f 742 735 577
f 785 747 742
f 742 747 735
f 784 640 623
f 623 622 784
f 785 640 784
f 529 532 533
f 529 622 532
f 840 838 818
f 849 533 840
f 840 818 849
f 533 532 840
f 532 838 840
f 127 121 138
f 27 22 26
f 26 22 55
f 75 27 26
f 55 126 26
f 238 6 21
f 21 249 238
f 21 6 45
f 45 22 21
f 21 22 20
f 20 249 21
f 323 315 317
f 315 126 317
f 235 237 247
f 247 237 250
f 62 251 85
f 65 248 62
f 62 85 65
f 212 213 221
f 221 222 44
f 213 222 221
f 59 223 221
f 221 223 212
f 59 79 82
f 79 84 82
f 82 227 59
f 82 84 227
f 199 198 197
f 199 102 198
f 81 102 199
f 79 81 199
f 199 195 79
f 118 110 112
f 112 110 109
f 109 182 112
f 117 113 114
f 110 113 117
f 117 232 180
f 114 232 117
f 184 176 23
f 184 182 176
f 133 155 124
f 71 160 133
f 133 160 156
f 156 169 133
f 169 155 133
f 176 179 175
f 191 127 175
f 175 174 191
f 175 179 174
f 386 424 422
f 422 482 386
f 428 424 386
f 386 388 387
f 386 482 388
f 386 376 428
f 387 376 386
f 395 388 389
f 388 482 389
f 380 360 381
f 381 477 380
f 423 422 418
f 422 424 418
f 418 424 428
f 416 420 418
f 476 477 486
f 486 420 476
f 486 418 420
f 423 418 486
f 486 487 423
f 477 487 486
f 425 462 413
f 413 412 425
f 471 170 382
f 181 170 471
f 471 183 125
f 125 181 471
f 597 595 593
f 593 596 597
f 689 664 614
f 664 648 614
f 614 610 689
f 614 592 610
f 671 711 709
f 709 683 671
f 709 711 718
f 718 833 709
f 831 833 342
f 843 833 718
f 833 843 334
f 344 345 353
f 354 355 353
f 744 624 737
f 737 743 744
f 753 624 744
f 545 682 691
f 691 800 545
f 822 821 811
f 811 821 812
f 811 808 822
f 811 812 807
f 807 808 811
f 807 812 810
f 810 806 807
f 810 801 806
f 810 809 801
f 824 825 796
f 796 782 824
f 813 810 812
f 828 851 826
f 851 825 826
f 825 813 826
f 826 812 828
f 826 813 812
f 787 762 788
f 789 841 731
f 731 788 789
f 787 788 731
f 778 782 780
f 780 782 796
f 823 867 827
f 828 821 827
f 827 821 823
f 868 863 866
f 866 863 865
f 866 851 868
f 866 865 860
f 860 848 866
f 355 863 351
f 331 348 351
f 292 265 267
f 267 265 268
f 267 268 287
f 287 293 267
f 293 292 267
f 264 283 256
f 256 276 264
f 264 276 262
f 264 263 283
f 264 262 263
f 131 135 136
f 136 135 291
f 291 295 136
f 129 122 130
f 131 136 130
f 130 132 131
f 130 122 132
f 290 261 292
f 290 292 298
f 291 135 290
f 290 296 291
f 290 298 296
f 135 29 290
f 29 261 290
f 19 25 28
f 19 14 18
f 19 28 14
f 96 225 115
f 115 91 96
f 208 70 212
f 208 223 224
f 212 223 208
f 211 215 209
f 215 218 209
f 206 201 209
f 209 218 206
f 137 113 144
f 137 141 68
f 68 114 137
f 114 113 137
f 201 141 137
f 483 434 395
f 431 434 483
f 483 482 431
f 395 389 483
f 483 389 482
f 410 415 395
f 395 434 410
f 410 434 415
f 618 467 411
f 510 502 458
f 458 427 510
f 510 539 502
f 512 539 510
f 470 512 510
f 546 559 553
f 621 559 546
f 553 537 546
f 553 559 557
f 557 559 608
f 557 549 553
f 557 550 549
f 553 549 536
f 536 537 553
f 536 549 526
f 441 373 443
f 379 474 480
f 383 474 379
f 358 383 379
f 379 359 358
f 459 358 372
f 244 240 437
f 241 240 244
f 398 5 4
f 4 495 398
f 397 5 398
f 533 581 579
f 579 535 533
f 579 581 802
f 516 535 540
f 566 543 552
f 543 542 552
f 771 772 775
f 771 775 797
f 570 578 583
f 578 609 583
f 574 670 672
f 588 670 574
f 667 670 661
f 607 599 598
f 605 599 607
f 607 598 612
f 612 605 607
f 480 449 394
f 394 379 480
f 359 379 394
f 443 359 394
f 394 449 443
f 492 619 490
f 490 449 492
f 490 619 620
f 443 449 490
f 490 441 443
f 738 508 502
f 502 514 738
f 513 734 738
f 738 734 508
f 738 515 513
f 738 514 515
f 496 408 455
f 501 507 455
f 507 496 455
f 455 408 395
f 395 447 455
f 455 447 501
f 769 544 799
f 769 752 544
f 770 752 769
f 805 770 769
f 799 801 769
f 769 801 805
f 676 682 679
f 641 642 679
f 679 642 676
f 662 656 641
f 641 679 662
f 685 679 682
f 686 662 685
f 685 662 679
f 534 587 568
f 568 323 534
f 568 563 323
f 584 325 585
f 585 681 584
f 555 556 554
f 657 654 555
f 654 556 555
f 560 558 665
f 558 556 665
f 663 668 665
f 665 668 560
f 665 660 663
f 665 556 660
f 525 521 520
f 520 631 525
f 739 520 522
f 522 520 521
f 522 521 604
f 604 728 522
f 589 568 587
f 589 587 611
f 687 714 690
f 103 126 315
f 315 108 103
f 103 26 126
f 75 26 103
f 103 85 75
f 103 108 85
f 107 108 316
f 319 314 316
f 314 107 316
f 316 108 315
f 316 322 319
f 315 322 316
f 188 60 63
f 63 309 188
f 314 309 63
f 63 107 314
f 63 60 107
f 629 633 586
f 586 468 629
f 629 468 467
f 465 466 403
f 465 468 466
f 511 512 470
f 470 473 511
f 547 512 511
f 511 473 547
f 409 401 186
f 186 401 99
f 189 194 186
f 186 194 409
f 186 104 189
f 186 99 98
f 98 104 186
f 533 535 527
f 527 529 533
f 528 784 622
f 622 529 528
f 785 784 528
f 121 127 123
f 123 174 167
f 191 174 123
f 123 127 191
f 17 121 123
f 167 185 123
f 123 32 17
f 185 32 123
f 128 127 138
f 176 175 128
f 128 175 127
f 31 30 71
f 71 184 31
f 23 154 31
f 31 184 23
f 152 154 148
f 39 36 159
f 159 158 49
f 49 39 159
f 323 317 519
f 534 323 519
f 519 550 534
f 526 549 519
f 549 550 519
f 421 126 55
f 421 317 126
f 421 519 317
f 526 519 421
f 421 55 405
f 246 62 248
f 251 62 246
f 250 251 246
f 246 247 250
f 246 245 236
f 246 248 245
f 236 235 246
f 235 247 246
f 44 58 57
f 57 221 44
f 57 58 59
f 59 221 57
f 200 197 236
f 200 199 197
f 195 199 200
f 236 196 200
f 196 195 200
f 109 110 111
f 110 117 111
f 111 117 180
f 180 179 111
f 111 179 109
f 134 133 124
f 134 124 118
f 134 184 71
f 71 133 134
f 182 184 134
f 118 112 134
f 134 112 182
f 370 476 382
f 382 367 370
f 370 477 476
f 370 380 477
f 172 93 360
f 360 380 172
f 172 370 367
f 380 370 172
f 428 378 417
f 417 418 428
f 416 418 417
f 378 412 417
f 417 412 416
f 414 479 412
f 412 413 414
f 460 462 459
f 460 413 462
f 460 414 413
f 472 471 382
f 382 476 472
f 476 420 472
f 472 420 416
f 416 479 472
f 726 715 728
f 596 593 645
f 649 596 645
f 645 648 649
f 645 593 592
f 592 614 645
f 645 614 648
f 706 683 707
f 683 709 707
f 707 831 342
f 707 709 833
f 833 831 707
f 707 340 706
f 342 340 707
f 342 833 333
f 833 334 333
f 845 731 841
f 845 841 354
f 354 334 845
f 346 353 355
f 355 351 346
f 346 351 348
f 346 348 344
f 344 353 346
f 797 800 798
f 800 691 798
f 541 542 543
f 541 800 797
f 541 543 800
f 797 775 541
f 775 542 541
f 805 809 783
f 783 782 778
f 783 824 782
f 783 770 805
f 778 770 783
f 786 783 809
f 824 783 786
f 809 810 786
f 810 813 786
f 825 824 786
f 786 813 825
f 796 825 850
f 850 825 851
f 846 848 860
f 846 850 848
f 755 762 787
f 787 702 755
f 757 744 743
f 762 755 757
f 753 744 757
f 757 755 753
f 791 762 764
f 791 788 762
f 793 788 791
f 764 776 791
f 718 711 712
f 712 711 671
f 671 664 712
f 664 702 712
f 787 731 723
f 723 702 787
f 723 712 702
f 718 712 723
f 781 776 778
f 778 780 781
f 781 791 776
f 795 780 796
f 793 780 795
f 796 850 795
f 828 827 853
f 853 827 867
f 853 867 868
f 853 851 828
f 868 851 853
f 350 863 861
f 350 351 863
f 350 862 330
f 350 861 862
f 330 331 350
f 331 351 350
f 255 25 2
f 25 19 2
f 2 7 255
f 1 7 2
f 2 19 18
f 18 3 2
f 2 3 1
f 90 96 91
f 90 208 224
f 224 225 90
f 225 96 90
f 33 70 38
f 38 40 33
f 48 52 47
f 47 41 48
f 41 40 48
f 40 38 48
f 210 209 201
f 201 137 210
f 210 137 144
f 144 145 210
f 211 209 210
f 210 178 211
f 210 145 178
f 361 419 192
f 362 419 361
f 830 618 363
f 618 411 363
f 363 308 830
f 192 308 363
f 363 361 192
f 411 361 363
f 427 470 453
f 453 510 427
f 470 510 453
f 602 550 603
f 550 557 603
f 603 557 608
f 603 615 602
f 608 615 603
f 433 536 526
f 526 421 433
f 405 399 433
f 433 421 405
f 371 359 443
f 371 372 359
f 373 441 366
f 358 359 357
f 357 372 358
f 359 372 357
f 756 747 785
f 730 735 756
f 735 747 756
f 756 736 730
f 802 804 803
f 803 579 802
f 517 540 523
f 517 518 516
f 516 540 517
f 768 609 758
f 768 771 609
f 772 771 768
f 758 754 768
f 754 772 768
f 613 583 609
f 670 667 572
f 672 670 572
f 572 574 672
f 571 569 570
f 570 572 571
f 571 572 667
f 605 569 571
f 636 650 659
f 659 667 661
f 659 661 655
f 655 632 659
f 659 632 636
f 441 490 538
f 538 490 620
f 620 621 538
f 621 546 538
f 538 546 537
f 767 752 770
f 767 770 778
f 778 776 767
f 776 773 767
f 752 767 749
f 743 741 745
f 686 741 740
f 656 662 740
f 740 662 686
f 740 737 525
f 525 656 740
f 740 743 737
f 740 741 743
f 312 325 310
f 325 584 310
f 739 555 626
f 631 520 626
f 626 520 739
f 554 631 626
f 626 555 554
f 700 555 739
f 657 555 700
f 582 589 585
f 568 589 582
f 563 568 582
f 582 325 563
f 585 325 582
f 657 700 694
f 693 681 684
f 684 681 585
f 585 589 684
f 680 584 681
f 680 687 690
f 326 313 680
f 680 310 584
f 680 328 326
f 690 328 680
f 680 313 312
f 312 310 680
f 688 681 693
f 693 715 688
f 688 680 681
f 687 680 688
f 618 633 634
f 633 629 634
f 634 467 618
f 634 629 467
f 468 465 406
f 467 468 406
f 406 465 403
f 406 411 467
f 403 362 406
f 362 361 406
f 406 361 411
f 790 535 516
f 790 527 535
f 529 527 790
f 790 528 529
f 785 528 779
f 516 518 779
f 779 790 516
f 528 790 779
f 779 756 785
f 518 756 779
f 24 154 152
f 24 31 154
f 30 31 24
f 149 295 296
f 149 296 297
f 297 157 149
f 15 36 152
f 152 159 15
f 15 159 36
f 93 172 162
f 156 12 162
f 12 93 162
f 163 367 156
f 163 172 367
f 156 162 163
f 163 162 172
f 430 215 426
f 215 214 426
f 437 430 426
f 437 426 444
f 414 460 444
f 444 426 414
f 471 472 436
f 414 426 436
f 479 414 436
f 436 472 479
f 594 593 595
f 592 593 594
f 594 726 728
f 604 592 594
f 594 728 604
f 715 726 716
f 716 688 715
f 595 714 716
f 714 687 716
f 687 688 716
f 716 594 595
f 726 594 716
f 342 333 352
f 352 333 334
f 352 334 354
f 354 353 352
f 352 345 342
f 352 353 345
f 852 866 848
f 848 850 852
f 851 866 852
f 852 850 851
f 789 788 794
f 794 846 789
f 794 788 793
f 793 795 794
f 850 846 794
f 794 795 850
f 844 846 860
f 789 846 844
f 753 755 701
f 701 755 702
f 701 699 753
f 664 699 701
f 701 702 664
f 731 845 727
f 727 723 731
f 718 723 727
f 727 843 718
f 727 334 843
f 727 845 334
f 793 791 792
f 791 781 792
f 792 780 793
f 792 781 780
f 72 38 70
f 70 208 72
f 208 90 72
f 72 48 38
f 73 91 52
f 52 48 73
f 397 398 364
f 399 397 364
f 454 538 537
f 441 538 454
f 537 536 454
f 536 433 454
f 373 366 368
f 443 373 368
f 368 371 443
f 763 518 774
f 763 756 518
f 763 774 759
f 759 736 763
f 736 756 763
f 591 803 804
f 591 804 807
f 807 806 591
f 535 579 565
f 579 803 565
f 565 540 535
f 777 772 774
f 774 518 777
f 518 517 777
f 775 772 777
f 583 613 601
f 601 613 666
f 766 613 609
f 609 771 766
f 766 771 797
f 797 798 766
f 674 798 691
f 674 766 798
f 613 766 674
f 605 571 606
f 646 599 606
f 606 599 605
f 606 650 646
f 606 571 667
f 606 659 650
f 667 659 606
f 748 741 686
f 686 685 748
f 685 749 748
f 752 749 548
f 545 544 548
f 544 752 548
f 765 767 773
f 765 749 767
f 765 773 761
f 765 748 749
f 760 757 743
f 743 745 760
f 760 745 761
f 761 773 760
f 764 762 760
f 762 757 760
f 760 776 764
f 760 773 776
f 717 700 739
f 717 715 693
f 739 522 717
f 717 522 728
f 728 715 717
f 694 684 653
f 611 657 653
f 657 694 653
f 653 589 611
f 653 684 589
f 151 128 138
f 151 148 154
f 151 154 23
f 23 176 151
f 176 128 151
f 16 152 30
f 30 24 16
f 16 24 152
f 139 130 136
f 129 130 139
f 140 139 136
f 140 136 295
f 295 149 140
f 143 140 149
f 152 148 143
f 139 140 143
f 452 460 459
f 452 444 460
f 459 372 452
f 372 451 452
f 471 436 216
f 216 436 426
f 183 471 216
f 214 183 216
f 216 426 214
f 860 789 842
f 842 844 860
f 789 844 842
f 48 72 88
f 88 73 48
f 88 72 90
f 88 90 91
f 91 73 88
f 439 366 441
f 441 454 439
f 399 364 439
f 439 364 366
f 439 433 399
f 439 454 433
f 372 371 369
f 371 368 369
f 448 495 243
f 448 456 495
f 243 241 448
f 241 244 448
f 495 456 365
f 365 369 368
f 456 369 365
f 365 398 495
f 365 364 398
f 366 364 365
f 365 368 366
f 575 806 576
f 575 591 806
f 575 576 566
f 566 552 575
f 575 552 523
f 540 565 564
f 591 575 564
f 803 591 564
f 564 565 803
f 523 540 564
f 564 575 523
f 524 517 523
f 524 777 517
f 775 777 524
f 524 542 775
f 523 552 524
f 524 552 542
f 573 601 588
f 583 601 573
f 588 574 573
f 574 572 573
f 570 583 573
f 573 572 570
f 588 601 590
f 590 666 562
f 590 601 666
f 675 674 691
f 675 691 682
f 666 613 675
f 613 674 675
f 675 682 676
f 676 666 675
f 746 745 741
f 741 748 746
f 761 745 746
f 746 765 761
f 748 765 746
f 545 548 692
f 692 548 749
f 692 682 545
f 692 685 682
f 692 749 685
f 695 717 693
f 700 717 695
f 695 694 700
f 693 684 695
f 695 684 694
f 138 129 146
f 146 151 138
f 148 151 146
f 153 159 152
f 152 143 153
f 142 143 148
f 139 143 142
f 148 146 142
f 129 139 142
f 142 146 129
f 437 444 446
f 444 452 446
f 446 452 451
f 457 369 456
f 457 451 372
f 372 369 457
f 450 448 244
f 456 448 450
f 450 244 437
f 437 446 450
f 450 457 456
f 450 446 451
f 451 457 450
f 562 588 561
f 561 590 562
f 588 590 561
f 158 159 150
f 159 153 150
f 157 158 150
f 150 149 157
f 150 143 149
f 150 153 143

